%TF.GenerationSoftware,KiCad,Pcbnew,7.0.5*%
%TF.CreationDate,2023-11-23T21:46:28-03:00*%
%TF.ProjectId,Inversor,496e7665-7273-46f7-922e-6b696361645f,rev?*%
%TF.SameCoordinates,Original*%
%TF.FileFunction,Soldermask,Top*%
%TF.FilePolarity,Negative*%
%FSLAX46Y46*%
G04 Gerber Fmt 4.6, Leading zero omitted, Abs format (unit mm)*
G04 Created by KiCad (PCBNEW 7.0.5) date 2023-11-23 21:46:28*
%MOMM*%
%LPD*%
G01*
G04 APERTURE LIST*
G04 Aperture macros list*
%AMRoundRect*
0 Rectangle with rounded corners*
0 $1 Rounding radius*
0 $2 $3 $4 $5 $6 $7 $8 $9 X,Y pos of 4 corners*
0 Add a 4 corners polygon primitive as box body*
4,1,4,$2,$3,$4,$5,$6,$7,$8,$9,$2,$3,0*
0 Add four circle primitives for the rounded corners*
1,1,$1+$1,$2,$3*
1,1,$1+$1,$4,$5*
1,1,$1+$1,$6,$7*
1,1,$1+$1,$8,$9*
0 Add four rect primitives between the rounded corners*
20,1,$1+$1,$2,$3,$4,$5,0*
20,1,$1+$1,$4,$5,$6,$7,0*
20,1,$1+$1,$6,$7,$8,$9,0*
20,1,$1+$1,$8,$9,$2,$3,0*%
G04 Aperture macros list end*
%ADD10RoundRect,0.150000X0.825000X0.150000X-0.825000X0.150000X-0.825000X-0.150000X0.825000X-0.150000X0*%
%ADD11RoundRect,0.250000X0.262500X0.450000X-0.262500X0.450000X-0.262500X-0.450000X0.262500X-0.450000X0*%
%ADD12RoundRect,0.250000X-0.450000X0.262500X-0.450000X-0.262500X0.450000X-0.262500X0.450000X0.262500X0*%
%ADD13R,2.000000X1.905000*%
%ADD14O,2.000000X1.905000*%
%ADD15O,1.980000X3.960000*%
%ADD16R,1.980000X3.960000*%
%ADD17R,2.200000X2.200000*%
%ADD18O,2.200000X2.200000*%
%ADD19O,1.700000X1.700000*%
%ADD20R,1.700000X1.700000*%
%ADD21R,1.600000X1.600000*%
%ADD22O,1.600000X1.600000*%
%ADD23R,2.400000X1.600000*%
%ADD24O,2.400000X1.600000*%
%ADD25R,1.905000X2.000000*%
%ADD26O,1.905000X2.000000*%
%ADD27RoundRect,0.250000X-0.650000X0.325000X-0.650000X-0.325000X0.650000X-0.325000X0.650000X0.325000X0*%
%ADD28RoundRect,0.250000X-0.262500X-0.450000X0.262500X-0.450000X0.262500X0.450000X-0.262500X0.450000X0*%
G04 APERTURE END LIST*
D10*
%TO.C,U4*%
X68775000Y-73415000D03*
X68775000Y-72145000D03*
X68775000Y-70875000D03*
X68775000Y-69605000D03*
X73725000Y-69605000D03*
X73725000Y-70875000D03*
X73725000Y-72145000D03*
X73725000Y-73415000D03*
%TD*%
D11*
%TO.C,R8*%
X64062500Y-73120000D03*
X62237500Y-73120000D03*
%TD*%
D12*
%TO.C,R7*%
X66230000Y-72917500D03*
X66230000Y-74742500D03*
%TD*%
D13*
%TO.C,Q2*%
X60585000Y-98090000D03*
D14*
X60585000Y-95550000D03*
X60585000Y-93010000D03*
%TD*%
D15*
%TO.C,J1*%
X76230000Y-61790000D03*
D16*
X71230000Y-61790000D03*
%TD*%
D17*
%TO.C,D2*%
X72570000Y-89000000D03*
D18*
X82730000Y-89000000D03*
%TD*%
D19*
%TO.C,J7*%
X62245000Y-70166250D03*
X59705000Y-70166250D03*
X62245000Y-67626250D03*
X59705000Y-67626250D03*
X62245000Y-65086250D03*
D20*
X59705000Y-65086250D03*
%TD*%
D21*
%TO.C,U6*%
X96760000Y-83730000D03*
D22*
X96760000Y-81190000D03*
X96760000Y-78650000D03*
X96760000Y-76110000D03*
X89140000Y-76110000D03*
X89140000Y-78650000D03*
X89140000Y-81190000D03*
X89140000Y-83730000D03*
%TD*%
D21*
%TO.C,U5*%
X96890000Y-72230000D03*
D22*
X96890000Y-69690000D03*
X96890000Y-67150000D03*
X96890000Y-64610000D03*
X89270000Y-64610000D03*
X89270000Y-67150000D03*
X89270000Y-69690000D03*
X89270000Y-72230000D03*
%TD*%
D19*
%TO.C,J4*%
X105245000Y-67626250D03*
X102705000Y-67626250D03*
X105245000Y-65086250D03*
D20*
X102705000Y-65086250D03*
%TD*%
D13*
%TO.C,Q1*%
X60615000Y-86880000D03*
D14*
X60615000Y-84340000D03*
X60615000Y-81800000D03*
%TD*%
D23*
%TO.C,U1*%
X80275000Y-84390000D03*
D24*
X80275000Y-81850000D03*
X80275000Y-79310000D03*
X80275000Y-76770000D03*
X72655000Y-76770000D03*
X72655000Y-79310000D03*
X72655000Y-81850000D03*
X72655000Y-84390000D03*
%TD*%
D13*
%TO.C,Q3*%
X60732800Y-109647600D03*
D14*
X60732800Y-107107600D03*
X60732800Y-104567600D03*
%TD*%
D19*
%TO.C,J6*%
X62245000Y-131126250D03*
X59705000Y-131126250D03*
X62245000Y-128586250D03*
D20*
X59705000Y-128586250D03*
%TD*%
D25*
%TO.C,U2*%
X93020000Y-117215000D03*
D26*
X95560000Y-117215000D03*
X98100000Y-117215000D03*
%TD*%
D19*
%TO.C,J5*%
X105245000Y-131126250D03*
X102705000Y-131126250D03*
X105245000Y-128586250D03*
D20*
X102705000Y-128586250D03*
%TD*%
D17*
%TO.C,D1*%
X70920000Y-116315000D03*
D18*
X81080000Y-116315000D03*
%TD*%
D16*
%TO.C,J3*%
X94195000Y-130300000D03*
D15*
X89195000Y-130300000D03*
%TD*%
D13*
%TO.C,Q4*%
X60760000Y-120570000D03*
D14*
X60760000Y-118030000D03*
X60760000Y-115490000D03*
%TD*%
D23*
%TO.C,U3*%
X79575000Y-111445000D03*
D24*
X79575000Y-108905000D03*
X79575000Y-106365000D03*
X79575000Y-103825000D03*
X71955000Y-103825000D03*
X71955000Y-106365000D03*
X71955000Y-108905000D03*
X71955000Y-111445000D03*
%TD*%
D27*
%TO.C,C7*%
X66250000Y-70475000D03*
X66250000Y-67525000D03*
%TD*%
D11*
%TO.C,R13*%
X102017500Y-71480000D03*
X103842500Y-71480000D03*
%TD*%
D28*
%TO.C,R5*%
X103692500Y-74390000D03*
X101867500Y-74390000D03*
%TD*%
M02*
