%TF.GenerationSoftware,KiCad,Pcbnew,7.0.5*%
%TF.CreationDate,2023-11-23T21:46:28-03:00*%
%TF.ProjectId,Inversor,496e7665-7273-46f7-922e-6b696361645f,rev?*%
%TF.SameCoordinates,Original*%
%TF.FileFunction,Copper,L2,Bot*%
%TF.FilePolarity,Positive*%
%FSLAX46Y46*%
G04 Gerber Fmt 4.6, Leading zero omitted, Abs format (unit mm)*
G04 Created by KiCad (PCBNEW 7.0.5) date 2023-11-23 21:46:28*
%MOMM*%
%LPD*%
G01*
G04 APERTURE LIST*
G04 Aperture macros list*
%AMRoundRect*
0 Rectangle with rounded corners*
0 $1 Rounding radius*
0 $2 $3 $4 $5 $6 $7 $8 $9 X,Y pos of 4 corners*
0 Add a 4 corners polygon primitive as box body*
4,1,4,$2,$3,$4,$5,$6,$7,$8,$9,$2,$3,0*
0 Add four circle primitives for the rounded corners*
1,1,$1+$1,$2,$3*
1,1,$1+$1,$4,$5*
1,1,$1+$1,$6,$7*
1,1,$1+$1,$8,$9*
0 Add four rect primitives between the rounded corners*
20,1,$1+$1,$2,$3,$4,$5,0*
20,1,$1+$1,$4,$5,$6,$7,0*
20,1,$1+$1,$6,$7,$8,$9,0*
20,1,$1+$1,$8,$9,$2,$3,0*%
G04 Aperture macros list end*
%TA.AperFunction,ComponentPad*%
%ADD10R,2.000000X1.905000*%
%TD*%
%TA.AperFunction,ComponentPad*%
%ADD11O,2.000000X1.905000*%
%TD*%
%TA.AperFunction,ComponentPad*%
%ADD12O,1.980000X3.960000*%
%TD*%
%TA.AperFunction,ComponentPad*%
%ADD13R,1.980000X3.960000*%
%TD*%
%TA.AperFunction,ComponentPad*%
%ADD14R,2.200000X2.200000*%
%TD*%
%TA.AperFunction,ComponentPad*%
%ADD15O,2.200000X2.200000*%
%TD*%
%TA.AperFunction,ComponentPad*%
%ADD16O,1.700000X1.700000*%
%TD*%
%TA.AperFunction,ComponentPad*%
%ADD17R,1.700000X1.700000*%
%TD*%
%TA.AperFunction,ComponentPad*%
%ADD18R,1.600000X1.600000*%
%TD*%
%TA.AperFunction,ComponentPad*%
%ADD19O,1.600000X1.600000*%
%TD*%
%TA.AperFunction,ComponentPad*%
%ADD20R,2.400000X1.600000*%
%TD*%
%TA.AperFunction,ComponentPad*%
%ADD21O,2.400000X1.600000*%
%TD*%
%TA.AperFunction,ComponentPad*%
%ADD22R,1.905000X2.000000*%
%TD*%
%TA.AperFunction,ComponentPad*%
%ADD23O,1.905000X2.000000*%
%TD*%
%TA.AperFunction,SMDPad,CuDef*%
%ADD24RoundRect,0.250000X0.450000X-0.262500X0.450000X0.262500X-0.450000X0.262500X-0.450000X-0.262500X0*%
%TD*%
%TA.AperFunction,SMDPad,CuDef*%
%ADD25RoundRect,0.250000X0.262500X0.450000X-0.262500X0.450000X-0.262500X-0.450000X0.262500X-0.450000X0*%
%TD*%
%TA.AperFunction,SMDPad,CuDef*%
%ADD26RoundRect,0.250000X-0.325000X-0.650000X0.325000X-0.650000X0.325000X0.650000X-0.325000X0.650000X0*%
%TD*%
%TA.AperFunction,SMDPad,CuDef*%
%ADD27RoundRect,0.250000X0.650000X-0.325000X0.650000X0.325000X-0.650000X0.325000X-0.650000X-0.325000X0*%
%TD*%
%TA.AperFunction,SMDPad,CuDef*%
%ADD28RoundRect,0.250000X0.325000X0.650000X-0.325000X0.650000X-0.325000X-0.650000X0.325000X-0.650000X0*%
%TD*%
%TA.AperFunction,SMDPad,CuDef*%
%ADD29RoundRect,0.250000X-0.650000X0.325000X-0.650000X-0.325000X0.650000X-0.325000X0.650000X0.325000X0*%
%TD*%
%TA.AperFunction,ViaPad*%
%ADD30C,1.500000*%
%TD*%
%TA.AperFunction,ViaPad*%
%ADD31C,0.800000*%
%TD*%
%TA.AperFunction,ViaPad*%
%ADD32C,2.000000*%
%TD*%
%TA.AperFunction,Conductor*%
%ADD33C,1.000000*%
%TD*%
%TA.AperFunction,Conductor*%
%ADD34C,0.500000*%
%TD*%
%TA.AperFunction,Conductor*%
%ADD35C,2.000000*%
%TD*%
G04 APERTURE END LIST*
D10*
%TO.P,Q2,1,G*%
%TO.N,Net-(Q2-G)*%
X60585000Y-98090000D03*
D11*
%TO.P,Q2,2,D*%
%TO.N,Load+*%
X60585000Y-95550000D03*
%TO.P,Q2,3,S*%
%TO.N,GND*%
X60585000Y-93010000D03*
%TD*%
D12*
%TO.P,J1,2,Pin_2*%
%TO.N,Net-(J1-Pin_2)*%
X76230000Y-61790000D03*
D13*
%TO.P,J1,1,Pin_1*%
%TO.N,Load+*%
X71230000Y-61790000D03*
%TD*%
D14*
%TO.P,D2,1,K*%
%TO.N,Net-(D2-K)*%
X72570000Y-89000000D03*
D15*
%TO.P,D2,2,A*%
%TO.N,+15V*%
X82730000Y-89000000D03*
%TD*%
D16*
%TO.P,J7,6,Pin_6*%
%TO.N,iout*%
X62245000Y-70166250D03*
%TO.P,J7,5,Pin_5*%
%TO.N,unconnected-(J7-Pin_5-Pad5)*%
X59705000Y-70166250D03*
%TO.P,J7,4,Pin_4*%
%TO.N,GNDS*%
X62245000Y-67626250D03*
%TO.P,J7,3,Pin_3*%
%TO.N,unconnected-(J7-Pin_3-Pad3)*%
X59705000Y-67626250D03*
%TO.P,J7,2,Pin_2*%
%TO.N,+5V*%
X62245000Y-65086250D03*
D17*
%TO.P,J7,1,Pin_1*%
%TO.N,unconnected-(J7-Pin_1-Pad1)*%
X59705000Y-65086250D03*
%TD*%
D18*
%TO.P,U6,1,NC*%
%TO.N,unconnected-(U6-NC-Pad1)*%
X96760000Y-83730000D03*
D19*
%TO.P,U6,2*%
%TO.N,Net-(R5-Pad2)*%
X96760000Y-81190000D03*
%TO.P,U6,3*%
%TO.N,GNDS*%
X96760000Y-78650000D03*
%TO.P,U6,4,NC*%
%TO.N,unconnected-(U6-NC-Pad4)*%
X96760000Y-76110000D03*
%TO.P,U6,5*%
%TO.N,GND*%
X89140000Y-76110000D03*
%TO.P,U6,6*%
%TO.N,in2*%
X89140000Y-78650000D03*
%TO.P,U6,7*%
%TO.N,unconnected-(U6-Pad7)*%
X89140000Y-81190000D03*
%TO.P,U6,8*%
%TO.N,+15V*%
X89140000Y-83730000D03*
%TD*%
D18*
%TO.P,U5,1,NC*%
%TO.N,unconnected-(U5-NC-Pad1)*%
X96890000Y-72230000D03*
D19*
%TO.P,U5,2*%
%TO.N,Net-(R13-Pad2)*%
X96890000Y-69690000D03*
%TO.P,U5,3*%
%TO.N,GNDS*%
X96890000Y-67150000D03*
%TO.P,U5,4,NC*%
%TO.N,unconnected-(U5-NC-Pad4)*%
X96890000Y-64610000D03*
%TO.P,U5,5*%
%TO.N,GND*%
X89270000Y-64610000D03*
%TO.P,U5,6*%
%TO.N,in1*%
X89270000Y-67150000D03*
%TO.P,U5,7*%
%TO.N,unconnected-(U5-Pad7)*%
X89270000Y-69690000D03*
%TO.P,U5,8*%
%TO.N,+15V*%
X89270000Y-72230000D03*
%TD*%
D16*
%TO.P,J4,4,Pin_4*%
%TO.N,unconnected-(J4-Pin_4-Pad4)*%
X105245000Y-67626250D03*
%TO.P,J4,3,Pin_3*%
%TO.N,pwm1*%
X102705000Y-67626250D03*
%TO.P,J4,2,Pin_2*%
%TO.N,GNDS*%
X105245000Y-65086250D03*
D17*
%TO.P,J4,1,Pin_1*%
%TO.N,pwm2*%
X102705000Y-65086250D03*
%TD*%
D10*
%TO.P,Q1,1,G*%
%TO.N,Net-(Q1-G)*%
X60615000Y-86880000D03*
D11*
%TO.P,Q1,2,D*%
%TO.N,+24V*%
X60615000Y-84340000D03*
%TO.P,Q1,3,S*%
%TO.N,Load+*%
X60615000Y-81800000D03*
%TD*%
D20*
%TO.P,U1,1,VCC*%
%TO.N,+15V*%
X80275000Y-84390000D03*
D21*
%TO.P,U1,2,IN*%
%TO.N,in1*%
X80275000Y-81850000D03*
%TO.P,U1,3,COM*%
%TO.N,GND*%
X80275000Y-79310000D03*
%TO.P,U1,4,LO*%
%TO.N,Net-(U1-LO)*%
X80275000Y-76770000D03*
%TO.P,U1,5,NC*%
%TO.N,unconnected-(U1-NC-Pad5)*%
X72655000Y-76770000D03*
%TO.P,U1,6,VS*%
%TO.N,Load+*%
X72655000Y-79310000D03*
%TO.P,U1,7,HO*%
%TO.N,Net-(U1-HO)*%
X72655000Y-81850000D03*
%TO.P,U1,8,VB*%
%TO.N,Net-(D2-K)*%
X72655000Y-84390000D03*
%TD*%
D10*
%TO.P,Q3,1,G*%
%TO.N,Net-(Q3-G)*%
X60732800Y-109647600D03*
D11*
%TO.P,Q3,2,D*%
%TO.N,+24V*%
X60732800Y-107107600D03*
%TO.P,Q3,3,S*%
%TO.N,Load-*%
X60732800Y-104567600D03*
%TD*%
D16*
%TO.P,J6,4,Pin_4*%
%TO.N,unconnected-(J6-Pin_4-Pad4)*%
X62245000Y-131126250D03*
%TO.P,J6,3,Pin_3*%
%TO.N,unconnected-(J6-Pin_3-Pad3)*%
X59705000Y-131126250D03*
%TO.P,J6,2,Pin_2*%
%TO.N,unconnected-(J6-Pin_2-Pad2)*%
X62245000Y-128586250D03*
D17*
%TO.P,J6,1,Pin_1*%
%TO.N,unconnected-(J6-Pin_1-Pad1)*%
X59705000Y-128586250D03*
%TD*%
D22*
%TO.P,U2,1,VI*%
%TO.N,+24V*%
X93020000Y-117215000D03*
D23*
%TO.P,U2,2,GND*%
%TO.N,GND*%
X95560000Y-117215000D03*
%TO.P,U2,3,VO*%
%TO.N,+15V*%
X98100000Y-117215000D03*
%TD*%
D16*
%TO.P,J5,4,Pin_4*%
%TO.N,unconnected-(J5-Pin_4-Pad4)*%
X105245000Y-131126250D03*
%TO.P,J5,3,Pin_3*%
%TO.N,unconnected-(J5-Pin_3-Pad3)*%
X102705000Y-131126250D03*
%TO.P,J5,2,Pin_2*%
%TO.N,unconnected-(J5-Pin_2-Pad2)*%
X105245000Y-128586250D03*
D17*
%TO.P,J5,1,Pin_1*%
%TO.N,unconnected-(J5-Pin_1-Pad1)*%
X102705000Y-128586250D03*
%TD*%
D14*
%TO.P,D1,1,K*%
%TO.N,Net-(D1-K)*%
X70920000Y-116315000D03*
D15*
%TO.P,D1,2,A*%
%TO.N,+15V*%
X81080000Y-116315000D03*
%TD*%
D13*
%TO.P,J3,1,Pin_1*%
%TO.N,GND*%
X94195000Y-130300000D03*
D12*
%TO.P,J3,2,Pin_2*%
%TO.N,+24V*%
X89195000Y-130300000D03*
%TD*%
D10*
%TO.P,Q4,1,G*%
%TO.N,Net-(Q4-G)*%
X60760000Y-120570000D03*
D11*
%TO.P,Q4,2,D*%
%TO.N,Load-*%
X60760000Y-118030000D03*
%TO.P,Q4,3,S*%
%TO.N,GND*%
X60760000Y-115490000D03*
%TD*%
D20*
%TO.P,U3,1,VCC*%
%TO.N,+15V*%
X79575000Y-111445000D03*
D21*
%TO.P,U3,2,IN*%
%TO.N,in2*%
X79575000Y-108905000D03*
%TO.P,U3,3,COM*%
%TO.N,GND*%
X79575000Y-106365000D03*
%TO.P,U3,4,LO*%
%TO.N,Net-(U3-LO)*%
X79575000Y-103825000D03*
%TO.P,U3,5,NC*%
%TO.N,unconnected-(U3-NC-Pad5)*%
X71955000Y-103825000D03*
%TO.P,U3,6,VS*%
%TO.N,Load-*%
X71955000Y-106365000D03*
%TO.P,U3,7,HO*%
%TO.N,Net-(U3-HO)*%
X71955000Y-108905000D03*
%TO.P,U3,8,VB*%
%TO.N,Net-(D1-K)*%
X71955000Y-111445000D03*
%TD*%
D24*
%TO.P,R12,1*%
%TO.N,+15V*%
X83170000Y-84332500D03*
%TO.P,R12,2*%
%TO.N,in1*%
X83170000Y-82507500D03*
%TD*%
D25*
%TO.P,R4,1*%
%TO.N,Net-(U1-HO)*%
X65392500Y-87040000D03*
%TO.P,R4,2*%
%TO.N,Net-(Q1-G)*%
X63567500Y-87040000D03*
%TD*%
D24*
%TO.P,R6,1*%
%TO.N,+15V*%
X82620000Y-111322500D03*
%TO.P,R6,2*%
%TO.N,in2*%
X82620000Y-109497500D03*
%TD*%
D25*
%TO.P,R2,1*%
%TO.N,Net-(U3-LO)*%
X64992500Y-120510000D03*
%TO.P,R2,2*%
%TO.N,Net-(Q4-G)*%
X63167500Y-120510000D03*
%TD*%
D26*
%TO.P,C6,1*%
%TO.N,GND*%
X95450000Y-114355000D03*
%TO.P,C6,2*%
%TO.N,+15V*%
X98400000Y-114355000D03*
%TD*%
D27*
%TO.P,C3,1*%
%TO.N,+15V*%
X86030000Y-84985000D03*
%TO.P,C3,2*%
%TO.N,GND*%
X86030000Y-82035000D03*
%TD*%
D25*
%TO.P,R1,1*%
%TO.N,Net-(U3-HO)*%
X66232500Y-109745000D03*
%TO.P,R1,2*%
%TO.N,Net-(Q3-G)*%
X64407500Y-109745000D03*
%TD*%
D28*
%TO.P,C5,1*%
%TO.N,GND*%
X95475000Y-119965000D03*
%TO.P,C5,2*%
%TO.N,+24V*%
X92525000Y-119965000D03*
%TD*%
D27*
%TO.P,C1,1*%
%TO.N,+15V*%
X85080000Y-111440000D03*
%TO.P,C1,2*%
%TO.N,GND*%
X85080000Y-108490000D03*
%TD*%
D29*
%TO.P,C4,1*%
%TO.N,Load+*%
X69030000Y-80765000D03*
%TO.P,C4,2*%
%TO.N,Net-(D2-K)*%
X69030000Y-83715000D03*
%TD*%
%TO.P,C2,1*%
%TO.N,Load-*%
X74560000Y-107495000D03*
%TO.P,C2,2*%
%TO.N,Net-(D1-K)*%
X74560000Y-110445000D03*
%TD*%
D25*
%TO.P,R3,1*%
%TO.N,Net-(U1-LO)*%
X66200000Y-98310000D03*
%TO.P,R3,2*%
%TO.N,Net-(Q2-G)*%
X64375000Y-98310000D03*
%TD*%
D30*
%TO.N,+15V*%
X89630000Y-111490000D03*
%TO.N,in2*%
X82760000Y-108290000D03*
%TO.N,in1*%
X83230000Y-81880000D03*
X86250000Y-67180000D03*
%TO.N,+15V*%
X91870000Y-72510000D03*
D31*
%TO.N,GNDS*%
X105590000Y-62490000D03*
%TO.N,Net-(R13-Pad2)*%
X100420000Y-69790000D03*
%TO.N,Net-(R5-Pad2)*%
X101360000Y-81410000D03*
D32*
%TO.N,Net-(J1-Pin_2)*%
X78650000Y-69860000D03*
%TO.N,Load-*%
X55330000Y-79480000D03*
%TD*%
D33*
%TO.N,+15V*%
X89630000Y-111540000D02*
X89540000Y-111450000D01*
X89630000Y-111490000D02*
X89630000Y-111540000D01*
X89580000Y-111490000D02*
X89630000Y-111490000D01*
X89530000Y-111440000D02*
X89580000Y-111490000D01*
X85080000Y-111440000D02*
X89530000Y-111440000D01*
%TO.N,in2*%
X82760000Y-108510000D02*
X82570000Y-108700000D01*
X82760000Y-108290000D02*
X82760000Y-108510000D01*
%TO.N,GND*%
X85080000Y-107350000D02*
X84095000Y-106365000D01*
X85080000Y-108490000D02*
X85080000Y-107350000D01*
X84095000Y-106365000D02*
X79575000Y-106365000D01*
%TO.N,in1*%
X83230000Y-82567500D02*
X83170000Y-82507500D01*
X83230000Y-81880000D02*
X83230000Y-82567500D01*
X82542500Y-81880000D02*
X83230000Y-81880000D01*
X89240000Y-67180000D02*
X89270000Y-67150000D01*
X86250000Y-67180000D02*
X89240000Y-67180000D01*
%TO.N,+15V*%
X89550000Y-72510000D02*
X89270000Y-72230000D01*
X91870000Y-72510000D02*
X89550000Y-72510000D01*
D34*
%TO.N,GNDS*%
X105590000Y-62490000D02*
X105590000Y-62450000D01*
X104690000Y-61590000D02*
X105550000Y-62450000D01*
X104610000Y-61510000D02*
X104690000Y-61590000D01*
X105550000Y-62450000D02*
X105590000Y-62490000D01*
X96080000Y-61510000D02*
X104610000Y-61510000D01*
X95610000Y-67150000D02*
X94890000Y-66430000D01*
X94890000Y-62700000D02*
X96080000Y-61510000D01*
X96890000Y-67150000D02*
X95610000Y-67150000D01*
X94890000Y-66430000D02*
X94890000Y-62700000D01*
%TO.N,Net-(R13-Pad2)*%
X96990000Y-69790000D02*
X96890000Y-69690000D01*
X100420000Y-69790000D02*
X96990000Y-69790000D01*
%TO.N,GNDS*%
X95370000Y-78650000D02*
X96760000Y-78650000D01*
X94260000Y-68490000D02*
X94260000Y-77540000D01*
X94260000Y-77540000D02*
X95370000Y-78650000D01*
X95600000Y-67150000D02*
X94260000Y-68490000D01*
X96890000Y-67150000D02*
X95600000Y-67150000D01*
%TO.N,Net-(R5-Pad2)*%
X96980000Y-81410000D02*
X96760000Y-81190000D01*
X101360000Y-81410000D02*
X96980000Y-81410000D01*
D35*
%TO.N,Net-(J1-Pin_2)*%
X78610000Y-64170000D02*
X78610000Y-69820000D01*
X76230000Y-61790000D02*
X78610000Y-64170000D01*
X78610000Y-69820000D02*
X78650000Y-69860000D01*
%TO.N,Load+*%
X71120000Y-62890000D02*
X71120000Y-71295000D01*
X71120000Y-71295000D02*
X60615000Y-81800000D01*
X71230000Y-62780000D02*
X71120000Y-62890000D01*
%TO.N,Load-*%
X55330000Y-79480000D02*
X55320000Y-101410000D01*
%TO.N,Load+*%
X71230000Y-61790000D02*
X71230000Y-62780000D01*
D33*
%TO.N,+15V*%
X86030000Y-84985000D02*
X87885000Y-84985000D01*
X82730000Y-84772500D02*
X83170000Y-84332500D01*
X82730000Y-89000000D02*
X82730000Y-84772500D01*
X81080000Y-113705000D02*
X79575000Y-112200000D01*
X82620000Y-111322500D02*
X79697500Y-111322500D01*
X98100000Y-117215000D02*
X98100000Y-114655000D01*
X79697500Y-111322500D02*
X79575000Y-111445000D01*
X83112500Y-84390000D02*
X83170000Y-84332500D01*
X86030000Y-84985000D02*
X82942500Y-84985000D01*
X81080000Y-116315000D02*
X81080000Y-113705000D01*
X82737500Y-111440000D02*
X82620000Y-111322500D01*
X98100000Y-114655000D02*
X98400000Y-114355000D01*
X80275000Y-84390000D02*
X83112500Y-84390000D01*
X82942500Y-84985000D02*
X82730000Y-84772500D01*
X79575000Y-112200000D02*
X79575000Y-111445000D01*
X85080000Y-111440000D02*
X82737500Y-111440000D01*
X87885000Y-84985000D02*
X89140000Y-83730000D01*
%TO.N,GND*%
X85080000Y-108490000D02*
X91390000Y-108490000D01*
X86030000Y-81880000D02*
X83460000Y-79310000D01*
X95450000Y-123580000D02*
X95450000Y-114355000D01*
X89140000Y-76110000D02*
X90280000Y-76110000D01*
X83510000Y-76110000D02*
X83460000Y-76060000D01*
X91390000Y-108490000D02*
X91490000Y-108390000D01*
X91490000Y-77320000D02*
X91490000Y-108390000D01*
X94195000Y-124835000D02*
X95450000Y-123580000D01*
X86030000Y-82035000D02*
X86030000Y-81880000D01*
X83460000Y-66970000D02*
X83460000Y-76060000D01*
X91490000Y-110395000D02*
X95450000Y-114355000D01*
X83460000Y-79310000D02*
X80275000Y-79310000D01*
X94195000Y-130300000D02*
X94195000Y-124835000D01*
X90280000Y-76110000D02*
X91490000Y-77320000D01*
X83460000Y-76060000D02*
X83460000Y-79310000D01*
X89270000Y-64610000D02*
X85820000Y-64610000D01*
X89140000Y-76110000D02*
X83510000Y-76110000D01*
X85820000Y-64610000D02*
X83460000Y-66970000D01*
X91490000Y-108390000D02*
X91490000Y-110395000D01*
D35*
%TO.N,Load-*%
X55320000Y-79570000D02*
X55330000Y-79480000D01*
X55370000Y-101460000D02*
X55320000Y-101410000D01*
D33*
X66090000Y-106365000D02*
X71955000Y-106365000D01*
X64292600Y-104567600D02*
X66090000Y-106365000D01*
D35*
X58110000Y-118030000D02*
X55370000Y-115290000D01*
X60760000Y-118030000D02*
X58110000Y-118030000D01*
D33*
X73840000Y-106365000D02*
X74560000Y-107085000D01*
X60732800Y-104567600D02*
X64292600Y-104567600D01*
D35*
X55320000Y-101410000D02*
X58477600Y-104567600D01*
D33*
X74560000Y-107085000D02*
X74560000Y-107495000D01*
D35*
X55370000Y-115290000D02*
X55370000Y-101460000D01*
X58477600Y-104567600D02*
X60732800Y-104567600D01*
D33*
X71955000Y-106365000D02*
X73840000Y-106365000D01*
%TO.N,Net-(D1-K)*%
X70920000Y-116315000D02*
X70920000Y-112480000D01*
X71955000Y-111445000D02*
X73560000Y-111445000D01*
X70920000Y-112480000D02*
X71955000Y-111445000D01*
X73560000Y-111445000D02*
X74560000Y-110445000D01*
D35*
%TO.N,Load+*%
X65815000Y-80765000D02*
X69030000Y-80765000D01*
X60615000Y-81800000D02*
X64780000Y-81800000D01*
X64780000Y-81800000D02*
X65815000Y-80765000D01*
D33*
X72655000Y-79310000D02*
X70485000Y-79310000D01*
X70485000Y-79310000D02*
X69030000Y-80765000D01*
%TO.N,Net-(D2-K)*%
X72570000Y-89000000D02*
X72570000Y-84475000D01*
X72570000Y-84475000D02*
X72655000Y-84390000D01*
X72655000Y-84390000D02*
X69705000Y-84390000D01*
X69705000Y-84390000D02*
X69030000Y-83715000D01*
D35*
%TO.N,+24V*%
X89195000Y-130300000D02*
X89195000Y-125435000D01*
X93020000Y-121610000D02*
X93020000Y-117215000D01*
D33*
X92525000Y-117710000D02*
X93020000Y-117215000D01*
D35*
X89195000Y-125435000D02*
X93020000Y-121610000D01*
D33*
%TO.N,Net-(Q1-G)*%
X63567500Y-87040000D02*
X60775000Y-87040000D01*
X60775000Y-87040000D02*
X60615000Y-86880000D01*
%TO.N,Net-(Q2-G)*%
X64375000Y-98310000D02*
X60675000Y-98310000D01*
X60675000Y-98310000D02*
X60615000Y-98370000D01*
%TO.N,Net-(Q3-G)*%
X64407500Y-109745000D02*
X60830200Y-109745000D01*
X60830200Y-109745000D02*
X60732800Y-109647600D01*
%TO.N,Net-(Q4-G)*%
X60820000Y-120510000D02*
X60760000Y-120570000D01*
X63167500Y-120510000D02*
X60820000Y-120510000D01*
%TO.N,Net-(U3-HO)*%
X66232500Y-109745000D02*
X67830000Y-109745000D01*
X68670000Y-108905000D02*
X71955000Y-108905000D01*
X67830000Y-109745000D02*
X68670000Y-108905000D01*
%TO.N,Net-(U3-LO)*%
X72280000Y-120510000D02*
X77130000Y-115660000D01*
X78445000Y-103825000D02*
X79575000Y-103825000D01*
X77130000Y-105140000D02*
X78445000Y-103825000D01*
X64992500Y-120510000D02*
X72280000Y-120510000D01*
X77130000Y-115660000D02*
X77130000Y-105140000D01*
%TO.N,Net-(U1-LO)*%
X66200000Y-95360000D02*
X66200000Y-98310000D01*
X78500000Y-76770000D02*
X77750000Y-77520000D01*
X77750000Y-77520000D02*
X77750000Y-91684000D01*
X66726000Y-94834000D02*
X66200000Y-95360000D01*
X74600000Y-94834000D02*
X66726000Y-94834000D01*
X77750000Y-91684000D02*
X74600000Y-94834000D01*
X80275000Y-76770000D02*
X78500000Y-76770000D01*
%TO.N,Net-(U1-HO)*%
X75440000Y-82890000D02*
X74400000Y-81850000D01*
X68120000Y-90350000D02*
X70110000Y-92340000D01*
X70110000Y-92340000D02*
X74170000Y-92340000D01*
X65392500Y-87040000D02*
X67160000Y-87040000D01*
X74400000Y-81850000D02*
X72655000Y-81850000D01*
X75440000Y-91070000D02*
X75440000Y-82890000D01*
X74170000Y-92340000D02*
X75440000Y-91070000D01*
X68120000Y-88000000D02*
X68120000Y-90350000D01*
X67160000Y-87040000D02*
X68120000Y-88000000D01*
%TO.N,in2*%
X82547500Y-109497500D02*
X81955000Y-108905000D01*
X82620000Y-109497500D02*
X82547500Y-109497500D01*
X81955000Y-108905000D02*
X79575000Y-108905000D01*
%TO.N,in1*%
X80275000Y-81850000D02*
X82512500Y-81850000D01*
X82512500Y-81850000D02*
X82542500Y-81880000D01*
%TD*%
%TA.AperFunction,Conductor*%
%TO.N,GND*%
G36*
X57075703Y-105288177D02*
G01*
X57082181Y-105294209D01*
X57347984Y-105560012D01*
X57353073Y-105565774D01*
X57369862Y-105587344D01*
X57369864Y-105587346D01*
X57369865Y-105587347D01*
X57437588Y-105649690D01*
X57439413Y-105651441D01*
X57449948Y-105661976D01*
X57460460Y-105672489D01*
X57460466Y-105672494D01*
X57460474Y-105672502D01*
X57483176Y-105691729D01*
X57485097Y-105693425D01*
X57552815Y-105755764D01*
X57552817Y-105755765D01*
X57552818Y-105755766D01*
X57575686Y-105770706D01*
X57581850Y-105775302D01*
X57602706Y-105792966D01*
X57681781Y-105840084D01*
X57683933Y-105841428D01*
X57697746Y-105850452D01*
X57760993Y-105891773D01*
X57786018Y-105902750D01*
X57792848Y-105906265D01*
X57816327Y-105920256D01*
X57902092Y-105953721D01*
X57904427Y-105954688D01*
X57988719Y-105991663D01*
X58015223Y-105998374D01*
X58022520Y-106000712D01*
X58047986Y-106010650D01*
X58138077Y-106029540D01*
X58140564Y-106030116D01*
X58229775Y-106052707D01*
X58229779Y-106052708D01*
X58229782Y-106052708D01*
X58229787Y-106052709D01*
X58257006Y-106054964D01*
X58264616Y-106056073D01*
X58277327Y-106058738D01*
X58291363Y-106061681D01*
X58383338Y-106065484D01*
X58385878Y-106065642D01*
X58415533Y-106068100D01*
X58445285Y-106068100D01*
X58447844Y-106068152D01*
X58539821Y-106071957D01*
X58566947Y-106068575D01*
X58574619Y-106068100D01*
X59399485Y-106068100D01*
X59466524Y-106087785D01*
X59512279Y-106140589D01*
X59522223Y-106209747D01*
X59497339Y-106268262D01*
X59464729Y-106310159D01*
X59350121Y-106521934D01*
X59350118Y-106521943D01*
X59271934Y-106749683D01*
X59248797Y-106888337D01*
X59232300Y-106987201D01*
X59232300Y-107227999D01*
X59239394Y-107270511D01*
X59271934Y-107465516D01*
X59350118Y-107693256D01*
X59350121Y-107693265D01*
X59464729Y-107905041D01*
X59464733Y-107905047D01*
X59575632Y-108047530D01*
X59601275Y-108112524D01*
X59587708Y-108181064D01*
X59539240Y-108231388D01*
X59521113Y-108239873D01*
X59490475Y-108251300D01*
X59490464Y-108251306D01*
X59375255Y-108337552D01*
X59375252Y-108337555D01*
X59289006Y-108452764D01*
X59289002Y-108452771D01*
X59238708Y-108587617D01*
X59232301Y-108647216D01*
X59232300Y-108647235D01*
X59232300Y-110647970D01*
X59232301Y-110647976D01*
X59238708Y-110707583D01*
X59289002Y-110842428D01*
X59289006Y-110842435D01*
X59375252Y-110957644D01*
X59375255Y-110957647D01*
X59490464Y-111043893D01*
X59490471Y-111043897D01*
X59625317Y-111094191D01*
X59625316Y-111094191D01*
X59630460Y-111094744D01*
X59684927Y-111100600D01*
X61780672Y-111100599D01*
X61840283Y-111094191D01*
X61975131Y-111043896D01*
X62090346Y-110957646D01*
X62176596Y-110842431D01*
X62182661Y-110826168D01*
X62224531Y-110770235D01*
X62289995Y-110745816D01*
X62298844Y-110745500D01*
X63582770Y-110745500D01*
X63649809Y-110765185D01*
X63670451Y-110781819D01*
X63676344Y-110787712D01*
X63825666Y-110879814D01*
X63992203Y-110934999D01*
X64094991Y-110945500D01*
X64720008Y-110945499D01*
X64720016Y-110945498D01*
X64720019Y-110945498D01*
X64776302Y-110939748D01*
X64822797Y-110934999D01*
X64989334Y-110879814D01*
X65138656Y-110787712D01*
X65232318Y-110694049D01*
X65293642Y-110660564D01*
X65363334Y-110665548D01*
X65407680Y-110694048D01*
X65501344Y-110787712D01*
X65650666Y-110879814D01*
X65817203Y-110934999D01*
X65919991Y-110945500D01*
X66545008Y-110945499D01*
X66545016Y-110945498D01*
X66545019Y-110945498D01*
X66601302Y-110939748D01*
X66647797Y-110934999D01*
X66814334Y-110879814D01*
X66963656Y-110787712D01*
X66969549Y-110781819D01*
X67030872Y-110748334D01*
X67057230Y-110745500D01*
X67816507Y-110745500D01*
X67818069Y-110745519D01*
X67855283Y-110746462D01*
X67906358Y-110747757D01*
X67906358Y-110747756D01*
X67906363Y-110747757D01*
X67966753Y-110736932D01*
X67971412Y-110736280D01*
X68013607Y-110731988D01*
X68032438Y-110730074D01*
X68065227Y-110719786D01*
X68072840Y-110717918D01*
X68106653Y-110711858D01*
X68163621Y-110689101D01*
X68168053Y-110687524D01*
X68182080Y-110683123D01*
X68226588Y-110669159D01*
X68256627Y-110652484D01*
X68263708Y-110649122D01*
X68295617Y-110636377D01*
X68346854Y-110602608D01*
X68350851Y-110600187D01*
X68404502Y-110570409D01*
X68430568Y-110548030D01*
X68436843Y-110543300D01*
X68465519Y-110524402D01*
X68508917Y-110481002D01*
X68512336Y-110477834D01*
X68558895Y-110437866D01*
X68579931Y-110410688D01*
X68585101Y-110404818D01*
X69048101Y-109941819D01*
X69109425Y-109908334D01*
X69135783Y-109905500D01*
X70677412Y-109905500D01*
X70744451Y-109925185D01*
X70748523Y-109927917D01*
X70902266Y-110035568D01*
X70960275Y-110062618D01*
X71012714Y-110108791D01*
X71031866Y-110175984D01*
X71011650Y-110242865D01*
X70960275Y-110287381D01*
X70950444Y-110291966D01*
X70902267Y-110314431D01*
X70902265Y-110314432D01*
X70715858Y-110444954D01*
X70554954Y-110605858D01*
X70424432Y-110792265D01*
X70424431Y-110792267D01*
X70328261Y-110998502D01*
X70328258Y-110998511D01*
X70269366Y-111218302D01*
X70269364Y-111218313D01*
X70249532Y-111444998D01*
X70249532Y-111445001D01*
X70267867Y-111654570D01*
X70254100Y-111723070D01*
X70232020Y-111753058D01*
X70222090Y-111762988D01*
X70220966Y-111764084D01*
X70156946Y-111824942D01*
X70121899Y-111875294D01*
X70119062Y-111879056D01*
X70080302Y-111926592D01*
X70080299Y-111926597D01*
X70064392Y-111957047D01*
X70060324Y-111963761D01*
X70040702Y-111991954D01*
X70016509Y-112048330D01*
X70014488Y-112052584D01*
X69986091Y-112106951D01*
X69986090Y-112106952D01*
X69976640Y-112139975D01*
X69974007Y-112147371D01*
X69960459Y-112178943D01*
X69948113Y-112239019D01*
X69946990Y-112243595D01*
X69930113Y-112302577D01*
X69930113Y-112302579D01*
X69927503Y-112336841D01*
X69926414Y-112344608D01*
X69924797Y-112352483D01*
X69919500Y-112378258D01*
X69919500Y-112439597D01*
X69919321Y-112444306D01*
X69914662Y-112505474D01*
X69916707Y-112521527D01*
X69919003Y-112539560D01*
X69919500Y-112547388D01*
X69919500Y-114590500D01*
X69899815Y-114657539D01*
X69847011Y-114703294D01*
X69795505Y-114714500D01*
X69772132Y-114714500D01*
X69772123Y-114714501D01*
X69712516Y-114720908D01*
X69577671Y-114771202D01*
X69577664Y-114771206D01*
X69462455Y-114857452D01*
X69462452Y-114857455D01*
X69376206Y-114972664D01*
X69376202Y-114972671D01*
X69325908Y-115107517D01*
X69320514Y-115157697D01*
X69319501Y-115167123D01*
X69319500Y-115167135D01*
X69319500Y-117462870D01*
X69319501Y-117462876D01*
X69325908Y-117522483D01*
X69376202Y-117657328D01*
X69376206Y-117657335D01*
X69462452Y-117772544D01*
X69462455Y-117772547D01*
X69577664Y-117858793D01*
X69577671Y-117858797D01*
X69712517Y-117909091D01*
X69712516Y-117909091D01*
X69719444Y-117909835D01*
X69772127Y-117915500D01*
X72067872Y-117915499D01*
X72127483Y-117909091D01*
X72262331Y-117858796D01*
X72377546Y-117772546D01*
X72463796Y-117657331D01*
X72514091Y-117522483D01*
X72520500Y-117462873D01*
X72520499Y-115167128D01*
X72514091Y-115107517D01*
X72494509Y-115055016D01*
X72463797Y-114972671D01*
X72463793Y-114972664D01*
X72377547Y-114857455D01*
X72377544Y-114857452D01*
X72262335Y-114771206D01*
X72262328Y-114771202D01*
X72127482Y-114720908D01*
X72127483Y-114720908D01*
X72067883Y-114714501D01*
X72067881Y-114714500D01*
X72067873Y-114714500D01*
X72067865Y-114714500D01*
X72044500Y-114714500D01*
X71977461Y-114694815D01*
X71931706Y-114642011D01*
X71920500Y-114590500D01*
X71920500Y-112945783D01*
X71940185Y-112878744D01*
X71956819Y-112858101D01*
X72033103Y-112781818D01*
X72094427Y-112748334D01*
X72120784Y-112745500D01*
X72411785Y-112745500D01*
X72411785Y-112745499D01*
X72581692Y-112730635D01*
X72801496Y-112671739D01*
X73007734Y-112575568D01*
X73161465Y-112467924D01*
X73227671Y-112445598D01*
X73232588Y-112445500D01*
X73546507Y-112445500D01*
X73548069Y-112445519D01*
X73585283Y-112446462D01*
X73636358Y-112447757D01*
X73636358Y-112447756D01*
X73636363Y-112447757D01*
X73696753Y-112436932D01*
X73701412Y-112436280D01*
X73743607Y-112431988D01*
X73762438Y-112430074D01*
X73795227Y-112419786D01*
X73802840Y-112417918D01*
X73836653Y-112411858D01*
X73893621Y-112389101D01*
X73898053Y-112387524D01*
X73956588Y-112369159D01*
X73986627Y-112352484D01*
X73993708Y-112349122D01*
X74025617Y-112336377D01*
X74076854Y-112302608D01*
X74080851Y-112300187D01*
X74134502Y-112270409D01*
X74160568Y-112248030D01*
X74166843Y-112243300D01*
X74173339Y-112239019D01*
X74195519Y-112224402D01*
X74238917Y-112181002D01*
X74242336Y-112177834D01*
X74288895Y-112137866D01*
X74309931Y-112110688D01*
X74315101Y-112104818D01*
X74863101Y-111556818D01*
X74924425Y-111523333D01*
X74950783Y-111520499D01*
X75260002Y-111520499D01*
X75260008Y-111520499D01*
X75362797Y-111509999D01*
X75529334Y-111454814D01*
X75678656Y-111362712D01*
X75802712Y-111238656D01*
X75894814Y-111089334D01*
X75894814Y-111089332D01*
X75898605Y-111083187D01*
X75900634Y-111084438D01*
X75939276Y-111040540D01*
X76006467Y-111021379D01*
X76073351Y-111041585D01*
X76118692Y-111094744D01*
X76129500Y-111145375D01*
X76129500Y-115194218D01*
X76109815Y-115261257D01*
X76093181Y-115281899D01*
X71901899Y-119473181D01*
X71840576Y-119506666D01*
X71814218Y-119509500D01*
X65817230Y-119509500D01*
X65750191Y-119489815D01*
X65729549Y-119473181D01*
X65723657Y-119467289D01*
X65723656Y-119467289D01*
X65723656Y-119467288D01*
X65574334Y-119375186D01*
X65407797Y-119320001D01*
X65407795Y-119320000D01*
X65305010Y-119309500D01*
X64679998Y-119309500D01*
X64679980Y-119309501D01*
X64577203Y-119320000D01*
X64577200Y-119320001D01*
X64410668Y-119375185D01*
X64410663Y-119375187D01*
X64261342Y-119467289D01*
X64167681Y-119560951D01*
X64106358Y-119594436D01*
X64036666Y-119589452D01*
X63992319Y-119560951D01*
X63898657Y-119467289D01*
X63898656Y-119467288D01*
X63749334Y-119375186D01*
X63582797Y-119320001D01*
X63582795Y-119320000D01*
X63480010Y-119309500D01*
X62854998Y-119309500D01*
X62854980Y-119309501D01*
X62752203Y-119320000D01*
X62752200Y-119320001D01*
X62585668Y-119375185D01*
X62585663Y-119375187D01*
X62436342Y-119467289D01*
X62430451Y-119473181D01*
X62369128Y-119506666D01*
X62342770Y-119509500D01*
X62339994Y-119509500D01*
X62272955Y-119489815D01*
X62227200Y-119437011D01*
X62223812Y-119428833D01*
X62203797Y-119375171D01*
X62203793Y-119375164D01*
X62117547Y-119259955D01*
X62117544Y-119259952D01*
X62002335Y-119173706D01*
X62002328Y-119173702D01*
X61981524Y-119165943D01*
X61925590Y-119124072D01*
X61901173Y-119058607D01*
X61916025Y-118990334D01*
X61926999Y-118973605D01*
X62020474Y-118853509D01*
X62138828Y-118634810D01*
X62219571Y-118399614D01*
X62260500Y-118154335D01*
X62260500Y-117905665D01*
X62219571Y-117660386D01*
X62138828Y-117425190D01*
X62020474Y-117206491D01*
X61867738Y-117010256D01*
X61684785Y-116841836D01*
X61684782Y-116841834D01*
X61681293Y-116838622D01*
X61645303Y-116778735D01*
X61647403Y-116708897D01*
X61686927Y-116651281D01*
X61697458Y-116643581D01*
X61702703Y-116640153D01*
X61879797Y-116477126D01*
X61879806Y-116477116D01*
X62027649Y-116287168D01*
X62027655Y-116287159D01*
X62142215Y-116075468D01*
X62142221Y-116075454D01*
X62220380Y-115847791D01*
X62238367Y-115740000D01*
X61254852Y-115740000D01*
X61303559Y-115602953D01*
X61313877Y-115452114D01*
X61283116Y-115304085D01*
X61249910Y-115240000D01*
X62238366Y-115240000D01*
X62238366Y-115239999D01*
X62220380Y-115132208D01*
X62142221Y-114904545D01*
X62142215Y-114904531D01*
X62027655Y-114692840D01*
X62027649Y-114692831D01*
X61879806Y-114502883D01*
X61879797Y-114502873D01*
X61702710Y-114339851D01*
X61702699Y-114339843D01*
X61501184Y-114208186D01*
X61280739Y-114111491D01*
X61280740Y-114111491D01*
X61047390Y-114052399D01*
X61009999Y-114049300D01*
X61009999Y-114998315D01*
X60981181Y-114980791D01*
X60835596Y-114940000D01*
X60722378Y-114940000D01*
X60610217Y-114955416D01*
X60509999Y-114998946D01*
X60509999Y-114049300D01*
X60472608Y-114052399D01*
X60239259Y-114111491D01*
X60018815Y-114208186D01*
X59817300Y-114339843D01*
X59817289Y-114339851D01*
X59640202Y-114502873D01*
X59640193Y-114502883D01*
X59492350Y-114692831D01*
X59492344Y-114692840D01*
X59377784Y-114904531D01*
X59377778Y-114904545D01*
X59299619Y-115132208D01*
X59281633Y-115239999D01*
X59281634Y-115240000D01*
X60265148Y-115240000D01*
X60216441Y-115377047D01*
X60206123Y-115527886D01*
X60236884Y-115675915D01*
X60270090Y-115740000D01*
X59281633Y-115740000D01*
X59299619Y-115847791D01*
X59377778Y-116075454D01*
X59377784Y-116075468D01*
X59492344Y-116287159D01*
X59492346Y-116287162D01*
X59525173Y-116329337D01*
X59550816Y-116394331D01*
X59537250Y-116462871D01*
X59488782Y-116513196D01*
X59427320Y-116529500D01*
X58782890Y-116529500D01*
X58715851Y-116509815D01*
X58695209Y-116493181D01*
X56906819Y-114704791D01*
X56873334Y-114643468D01*
X56870500Y-114617110D01*
X56870500Y-105381890D01*
X56890185Y-105314851D01*
X56942989Y-105269096D01*
X57012147Y-105259152D01*
X57075703Y-105288177D01*
G37*
%TD.AperFunction*%
%TA.AperFunction,Conductor*%
G36*
X75397169Y-59350185D02*
G01*
X75442924Y-59402989D01*
X75452868Y-59472147D01*
X75423843Y-59535703D01*
X75406292Y-59552353D01*
X75217058Y-59699639D01*
X75217055Y-59699642D01*
X75049752Y-59881382D01*
X74914650Y-60088172D01*
X74815428Y-60314376D01*
X74754789Y-60553834D01*
X74739500Y-60738343D01*
X74739500Y-61612753D01*
X74739023Y-61620429D01*
X74725643Y-61727779D01*
X74735919Y-61976236D01*
X74736861Y-61980729D01*
X74739500Y-62006175D01*
X74739500Y-62841656D01*
X74754789Y-63026165D01*
X74815428Y-63265623D01*
X74897791Y-63453393D01*
X74914652Y-63491831D01*
X74981691Y-63594441D01*
X75038319Y-63681118D01*
X75049755Y-63698621D01*
X75217052Y-63880355D01*
X75217055Y-63880357D01*
X75217058Y-63880360D01*
X75411971Y-64032067D01*
X75411977Y-64032071D01*
X75411980Y-64032073D01*
X75629221Y-64149638D01*
X75742064Y-64188377D01*
X75862846Y-64229842D01*
X75862848Y-64229842D01*
X75862850Y-64229843D01*
X76106494Y-64270500D01*
X76106495Y-64270500D01*
X76353505Y-64270500D01*
X76353506Y-64270500D01*
X76491915Y-64247403D01*
X76561277Y-64255785D01*
X76600003Y-64282031D01*
X77073181Y-64755209D01*
X77106666Y-64816532D01*
X77109500Y-64842890D01*
X77109500Y-69722981D01*
X77109024Y-69730656D01*
X77105643Y-69757779D01*
X77109447Y-69849752D01*
X77109500Y-69852315D01*
X77109500Y-69882064D01*
X77111957Y-69911723D01*
X77112115Y-69914279D01*
X77115918Y-70006233D01*
X77121526Y-70032983D01*
X77122635Y-70040590D01*
X77124891Y-70067818D01*
X77124891Y-70067822D01*
X77147485Y-70157044D01*
X77148063Y-70159539D01*
X77166949Y-70249608D01*
X77166951Y-70249616D01*
X77176882Y-70275067D01*
X77179227Y-70282387D01*
X77185936Y-70308878D01*
X77222907Y-70393167D01*
X77223887Y-70395534D01*
X77257344Y-70481275D01*
X77271332Y-70504750D01*
X77274852Y-70511588D01*
X77285824Y-70536604D01*
X77314453Y-70580423D01*
X77336181Y-70613682D01*
X77337496Y-70615787D01*
X77384634Y-70694894D01*
X77402296Y-70715747D01*
X77406887Y-70721904D01*
X77421836Y-70744785D01*
X77421837Y-70744786D01*
X77484162Y-70812489D01*
X77485858Y-70814410D01*
X77505104Y-70837133D01*
X77526132Y-70858161D01*
X77527906Y-70860009D01*
X77590257Y-70927739D01*
X77593355Y-70930150D01*
X77608421Y-70944019D01*
X77630252Y-70967734D01*
X77630256Y-70967738D01*
X77702921Y-71024296D01*
X77704854Y-71025865D01*
X77775106Y-71085366D01*
X77798578Y-71099352D01*
X77804921Y-71103686D01*
X77816752Y-71112894D01*
X77826489Y-71120473D01*
X77826492Y-71120475D01*
X77907433Y-71164277D01*
X77909651Y-71165537D01*
X77988727Y-71212656D01*
X78014181Y-71222587D01*
X78021147Y-71225816D01*
X78045190Y-71238828D01*
X78045191Y-71238828D01*
X78045192Y-71238829D01*
X78132251Y-71268716D01*
X78134647Y-71269594D01*
X78220386Y-71303050D01*
X78247136Y-71308658D01*
X78254529Y-71310694D01*
X78279314Y-71319203D01*
X78280383Y-71319570D01*
X78280390Y-71319572D01*
X78371146Y-71334715D01*
X78373666Y-71335189D01*
X78397970Y-71340285D01*
X78463763Y-71354081D01*
X78491070Y-71355209D01*
X78498705Y-71356000D01*
X78515970Y-71358882D01*
X78525657Y-71360499D01*
X78525660Y-71360499D01*
X78525665Y-71360500D01*
X78617685Y-71360500D01*
X78620244Y-71360552D01*
X78712221Y-71364357D01*
X78739347Y-71360975D01*
X78747019Y-71360500D01*
X78774330Y-71360500D01*
X78774335Y-71360500D01*
X78865113Y-71345351D01*
X78867638Y-71344984D01*
X78878166Y-71343671D01*
X78958981Y-71333599D01*
X78969651Y-71330422D01*
X78985169Y-71325802D01*
X78992666Y-71324067D01*
X79001956Y-71322517D01*
X79019614Y-71319571D01*
X79106701Y-71289673D01*
X79109063Y-71288917D01*
X79197314Y-71262644D01*
X79221864Y-71250641D01*
X79228958Y-71247702D01*
X79254810Y-71238828D01*
X79335775Y-71195011D01*
X79337988Y-71193871D01*
X79420716Y-71153429D01*
X79442963Y-71137543D01*
X79449464Y-71133485D01*
X79473509Y-71120474D01*
X79546177Y-71063913D01*
X79548163Y-71062431D01*
X79623096Y-71008932D01*
X79642414Y-70989613D01*
X79648180Y-70984521D01*
X79669744Y-70967738D01*
X79732116Y-70899982D01*
X79733818Y-70898209D01*
X79798932Y-70833096D01*
X79814811Y-70810854D01*
X79819652Y-70804893D01*
X79838164Y-70784785D01*
X79888509Y-70707723D01*
X79889932Y-70705640D01*
X79943429Y-70630716D01*
X79955436Y-70606153D01*
X79959230Y-70599477D01*
X79974173Y-70576607D01*
X80011159Y-70492285D01*
X80012191Y-70490058D01*
X80052644Y-70407314D01*
X80060443Y-70381116D01*
X80063086Y-70373905D01*
X80074063Y-70348881D01*
X80096658Y-70259653D01*
X80097324Y-70257233D01*
X80123599Y-70168981D01*
X80126979Y-70141856D01*
X80128400Y-70134305D01*
X80135108Y-70107821D01*
X80142709Y-70016080D01*
X80142972Y-70013555D01*
X80147372Y-69978256D01*
X80154357Y-69922221D01*
X80153227Y-69894912D01*
X80153385Y-69887233D01*
X80155643Y-69860000D01*
X80155006Y-69852315D01*
X80148043Y-69768293D01*
X80147884Y-69765733D01*
X80147555Y-69757779D01*
X80144081Y-69673763D01*
X80138473Y-69647016D01*
X80137364Y-69639406D01*
X80135109Y-69612187D01*
X80135107Y-69612175D01*
X80114294Y-69529986D01*
X80110500Y-69499546D01*
X80110500Y-64267017D01*
X80110977Y-64259341D01*
X80112334Y-64248449D01*
X80114357Y-64232221D01*
X80110552Y-64140254D01*
X80110499Y-64137689D01*
X80110499Y-64128767D01*
X80110500Y-64107933D01*
X80108040Y-64078255D01*
X80107883Y-64075719D01*
X80107653Y-64070166D01*
X80104080Y-63983763D01*
X80098471Y-63957018D01*
X80097364Y-63949415D01*
X80095108Y-63922179D01*
X80084099Y-63878704D01*
X80072510Y-63832940D01*
X80071932Y-63830443D01*
X80068138Y-63812347D01*
X80053049Y-63740386D01*
X80043116Y-63714932D01*
X80040771Y-63707609D01*
X80034064Y-63681123D01*
X80034063Y-63681119D01*
X79997074Y-63596794D01*
X79996114Y-63594476D01*
X79962655Y-63508726D01*
X79948664Y-63485245D01*
X79945147Y-63478411D01*
X79934175Y-63453398D01*
X79934173Y-63453393D01*
X79893083Y-63390500D01*
X79883814Y-63376313D01*
X79882482Y-63374178D01*
X79835366Y-63295106D01*
X79817702Y-63274250D01*
X79813106Y-63268086D01*
X79798166Y-63245218D01*
X79798165Y-63245217D01*
X79798164Y-63245215D01*
X79735825Y-63177497D01*
X79734129Y-63175576D01*
X79723383Y-63162888D01*
X79714902Y-63152874D01*
X79714894Y-63152866D01*
X79714889Y-63152860D01*
X79704377Y-63142349D01*
X79693841Y-63131813D01*
X79692090Y-63129988D01*
X79629747Y-63062265D01*
X79629746Y-63062264D01*
X79629744Y-63062262D01*
X79608174Y-63045473D01*
X79602412Y-63040384D01*
X77756819Y-61194791D01*
X77723334Y-61133468D01*
X77720500Y-61107110D01*
X77720500Y-60738359D01*
X77720499Y-60738343D01*
X77705210Y-60553834D01*
X77705210Y-60553831D01*
X77644572Y-60314377D01*
X77545348Y-60088169D01*
X77410245Y-59881379D01*
X77242948Y-59699645D01*
X77242943Y-59699641D01*
X77242941Y-59699639D01*
X77053708Y-59552353D01*
X77012895Y-59495643D01*
X77009220Y-59425870D01*
X77043852Y-59365187D01*
X77105793Y-59332860D01*
X77129870Y-59330500D01*
X92510000Y-59330500D01*
X92577039Y-59350185D01*
X92622794Y-59402989D01*
X92634000Y-59454500D01*
X92634000Y-71291843D01*
X92614315Y-71358882D01*
X92561511Y-71404637D01*
X92492353Y-71414581D01*
X92457596Y-71404225D01*
X92299336Y-71330427D01*
X92299322Y-71330422D01*
X92087977Y-71273793D01*
X91870002Y-71254723D01*
X91869998Y-71254723D01*
X91724682Y-71267436D01*
X91652023Y-71273793D01*
X91652020Y-71273793D01*
X91440677Y-71330422D01*
X91440668Y-71330426D01*
X91242361Y-71422898D01*
X91242357Y-71422900D01*
X91150707Y-71487075D01*
X91084501Y-71509402D01*
X91079584Y-71509500D01*
X90417669Y-71509500D01*
X90350630Y-71489815D01*
X90316094Y-71456623D01*
X90270045Y-71390858D01*
X90109141Y-71229954D01*
X89922734Y-71099432D01*
X89922728Y-71099429D01*
X89892565Y-71085364D01*
X89864724Y-71072381D01*
X89812285Y-71026210D01*
X89793133Y-70959017D01*
X89813348Y-70892135D01*
X89864725Y-70847618D01*
X89922734Y-70820568D01*
X90109139Y-70690047D01*
X90270047Y-70529139D01*
X90400568Y-70342734D01*
X90496739Y-70136496D01*
X90555635Y-69916692D01*
X90575468Y-69690000D01*
X90574047Y-69673763D01*
X90567747Y-69601744D01*
X90555635Y-69463308D01*
X90496739Y-69243504D01*
X90400568Y-69037266D01*
X90270047Y-68850861D01*
X90270045Y-68850858D01*
X90109141Y-68689954D01*
X89922734Y-68559432D01*
X89922728Y-68559429D01*
X89864725Y-68532382D01*
X89812285Y-68486210D01*
X89793133Y-68419017D01*
X89813348Y-68352135D01*
X89864725Y-68307618D01*
X89922734Y-68280568D01*
X90109139Y-68150047D01*
X90270047Y-67989139D01*
X90400568Y-67802734D01*
X90496739Y-67596496D01*
X90555635Y-67376692D01*
X90575468Y-67150000D01*
X90555635Y-66923308D01*
X90509377Y-66750670D01*
X90496741Y-66703511D01*
X90496738Y-66703502D01*
X90440452Y-66582797D01*
X90400568Y-66497266D01*
X90270047Y-66310861D01*
X90270045Y-66310858D01*
X90109141Y-66149954D01*
X89922734Y-66019432D01*
X89922732Y-66019431D01*
X89911275Y-66014088D01*
X89864132Y-65992105D01*
X89811694Y-65945934D01*
X89792542Y-65878740D01*
X89812758Y-65811859D01*
X89864134Y-65767341D01*
X89922484Y-65740132D01*
X90108820Y-65609657D01*
X90269657Y-65448820D01*
X90400134Y-65262482D01*
X90496265Y-65056326D01*
X90496269Y-65056317D01*
X90548872Y-64860000D01*
X89585686Y-64860000D01*
X89597641Y-64848045D01*
X89655165Y-64735148D01*
X89674986Y-64610000D01*
X89655165Y-64484852D01*
X89597641Y-64371955D01*
X89585686Y-64360000D01*
X90548872Y-64360000D01*
X90548872Y-64359999D01*
X90496269Y-64163682D01*
X90496265Y-64163673D01*
X90400134Y-63957517D01*
X90269657Y-63771179D01*
X90108820Y-63610342D01*
X89922482Y-63479865D01*
X89716328Y-63383734D01*
X89520000Y-63331127D01*
X89520000Y-64294314D01*
X89508045Y-64282359D01*
X89395148Y-64224835D01*
X89301481Y-64210000D01*
X89238519Y-64210000D01*
X89144852Y-64224835D01*
X89031955Y-64282359D01*
X89020000Y-64294313D01*
X89020000Y-63331127D01*
X88823671Y-63383734D01*
X88617517Y-63479865D01*
X88431179Y-63610342D01*
X88270342Y-63771179D01*
X88139865Y-63957517D01*
X88043734Y-64163673D01*
X88043730Y-64163682D01*
X87991127Y-64359999D01*
X87991128Y-64360000D01*
X88954314Y-64360000D01*
X88942359Y-64371955D01*
X88884835Y-64484852D01*
X88865014Y-64610000D01*
X88884835Y-64735148D01*
X88942359Y-64848045D01*
X88954314Y-64860000D01*
X87991128Y-64860000D01*
X88043730Y-65056317D01*
X88043734Y-65056326D01*
X88139865Y-65262482D01*
X88270342Y-65448820D01*
X88431179Y-65609657D01*
X88617518Y-65740134D01*
X88617520Y-65740135D01*
X88675865Y-65767342D01*
X88728305Y-65813514D01*
X88747457Y-65880707D01*
X88727242Y-65947589D01*
X88675867Y-65992105D01*
X88617268Y-66019431D01*
X88617264Y-66019433D01*
X88430857Y-66149954D01*
X88430214Y-66150495D01*
X88429873Y-66150643D01*
X88426426Y-66153058D01*
X88425940Y-66152364D01*
X88366203Y-66178504D01*
X88350515Y-66179500D01*
X87040417Y-66179500D01*
X86973378Y-66159815D01*
X86969294Y-66157075D01*
X86877643Y-66092900D01*
X86877639Y-66092898D01*
X86772204Y-66043733D01*
X86679330Y-66000425D01*
X86679326Y-66000424D01*
X86679322Y-66000422D01*
X86467977Y-65943793D01*
X86250002Y-65924723D01*
X86249998Y-65924723D01*
X86104681Y-65937436D01*
X86032023Y-65943793D01*
X86032020Y-65943793D01*
X85820677Y-66000422D01*
X85820668Y-66000426D01*
X85622361Y-66092898D01*
X85622357Y-66092900D01*
X85443121Y-66218402D01*
X85288402Y-66373121D01*
X85162900Y-66552357D01*
X85162898Y-66552361D01*
X85070426Y-66750668D01*
X85070422Y-66750677D01*
X85013793Y-66962020D01*
X85013793Y-66962024D01*
X84994723Y-67179997D01*
X84994723Y-67180002D01*
X85013793Y-67397975D01*
X85013793Y-67397979D01*
X85070422Y-67609322D01*
X85070424Y-67609326D01*
X85070425Y-67609330D01*
X85078315Y-67626250D01*
X85162897Y-67807638D01*
X85162898Y-67807639D01*
X85288402Y-67986877D01*
X85443123Y-68141598D01*
X85622361Y-68267102D01*
X85820670Y-68359575D01*
X86032023Y-68416207D01*
X86214926Y-68432208D01*
X86249998Y-68435277D01*
X86250000Y-68435277D01*
X86250002Y-68435277D01*
X86278254Y-68432805D01*
X86467977Y-68416207D01*
X86679330Y-68359575D01*
X86877639Y-68267102D01*
X86913044Y-68242311D01*
X86969294Y-68202925D01*
X87035500Y-68180598D01*
X87040417Y-68180500D01*
X88435257Y-68180500D01*
X88502296Y-68200185D01*
X88506367Y-68202916D01*
X88617266Y-68280568D01*
X88675275Y-68307618D01*
X88727714Y-68353791D01*
X88746866Y-68420984D01*
X88726650Y-68487865D01*
X88675275Y-68532382D01*
X88617267Y-68559431D01*
X88617265Y-68559432D01*
X88430858Y-68689954D01*
X88269954Y-68850858D01*
X88139432Y-69037265D01*
X88139431Y-69037267D01*
X88043261Y-69243502D01*
X88043258Y-69243511D01*
X87984366Y-69463302D01*
X87984364Y-69463313D01*
X87964532Y-69689998D01*
X87964532Y-69690001D01*
X87984364Y-69916686D01*
X87984366Y-69916697D01*
X88043258Y-70136488D01*
X88043261Y-70136497D01*
X88139431Y-70342732D01*
X88139432Y-70342734D01*
X88269954Y-70529141D01*
X88430858Y-70690045D01*
X88430861Y-70690047D01*
X88617266Y-70820568D01*
X88675275Y-70847618D01*
X88727714Y-70893791D01*
X88746866Y-70960984D01*
X88726650Y-71027865D01*
X88675275Y-71072381D01*
X88658272Y-71080310D01*
X88617267Y-71099431D01*
X88617265Y-71099432D01*
X88430858Y-71229954D01*
X88269954Y-71390858D01*
X88139432Y-71577265D01*
X88139431Y-71577267D01*
X88043261Y-71783502D01*
X88043258Y-71783511D01*
X87984366Y-72003302D01*
X87984364Y-72003313D01*
X87964532Y-72229998D01*
X87964532Y-72230001D01*
X87984364Y-72456686D01*
X87984366Y-72456697D01*
X88043258Y-72676488D01*
X88043261Y-72676497D01*
X88139431Y-72882732D01*
X88139432Y-72882734D01*
X88269954Y-73069141D01*
X88430858Y-73230045D01*
X88430861Y-73230047D01*
X88617266Y-73360568D01*
X88823504Y-73456739D01*
X89043308Y-73515635D01*
X89205230Y-73529801D01*
X89269998Y-73535468D01*
X89270000Y-73535468D01*
X89270002Y-73535468D01*
X89326784Y-73530500D01*
X89496692Y-73515635D01*
X89496697Y-73515633D01*
X89502032Y-73514694D01*
X89502173Y-73515497D01*
X89536079Y-73512337D01*
X89575475Y-73515337D01*
X89575475Y-73515336D01*
X89575476Y-73515337D01*
X89609559Y-73510996D01*
X89617389Y-73510500D01*
X91079583Y-73510500D01*
X91146622Y-73530185D01*
X91150706Y-73532925D01*
X91242356Y-73597099D01*
X91242358Y-73597100D01*
X91242361Y-73597102D01*
X91440670Y-73689575D01*
X91440676Y-73689576D01*
X91440677Y-73689577D01*
X91471364Y-73697799D01*
X91652023Y-73746207D01*
X91834926Y-73762208D01*
X91869998Y-73765277D01*
X91870000Y-73765277D01*
X91870002Y-73765277D01*
X91898254Y-73762805D01*
X92087977Y-73746207D01*
X92299330Y-73689575D01*
X92457597Y-73615773D01*
X92526672Y-73605282D01*
X92590456Y-73633802D01*
X92628696Y-73692278D01*
X92634000Y-73728155D01*
X92634000Y-88230000D01*
X107750683Y-88230000D01*
X107817722Y-88249685D01*
X107863477Y-88302489D01*
X107874681Y-88353315D01*
X108127153Y-134050815D01*
X108107839Y-134117962D01*
X108055289Y-134164008D01*
X108003155Y-134175500D01*
X52880000Y-134175500D01*
X52812961Y-134155815D01*
X52767206Y-134103011D01*
X52756000Y-134051500D01*
X52756000Y-131126250D01*
X58349341Y-131126250D01*
X58369936Y-131361653D01*
X58369938Y-131361663D01*
X58431094Y-131589905D01*
X58431096Y-131589909D01*
X58431097Y-131589913D01*
X58435000Y-131598282D01*
X58530965Y-131804080D01*
X58530967Y-131804084D01*
X58639281Y-131958771D01*
X58666505Y-131997651D01*
X58833599Y-132164745D01*
X58930384Y-132232515D01*
X59027165Y-132300282D01*
X59027167Y-132300283D01*
X59027170Y-132300285D01*
X59241337Y-132400153D01*
X59469592Y-132461313D01*
X59657918Y-132477789D01*
X59704999Y-132481909D01*
X59705000Y-132481909D01*
X59705001Y-132481909D01*
X59744234Y-132478476D01*
X59940408Y-132461313D01*
X60168663Y-132400153D01*
X60382830Y-132300285D01*
X60576401Y-132164745D01*
X60743495Y-131997651D01*
X60873426Y-131812090D01*
X60928001Y-131768467D01*
X60997499Y-131761273D01*
X61059854Y-131792796D01*
X61076574Y-131812091D01*
X61206505Y-131997651D01*
X61373599Y-132164745D01*
X61470384Y-132232514D01*
X61567165Y-132300282D01*
X61567167Y-132300283D01*
X61567170Y-132300285D01*
X61781337Y-132400153D01*
X62009592Y-132461313D01*
X62197918Y-132477789D01*
X62244999Y-132481909D01*
X62245000Y-132481909D01*
X62245001Y-132481909D01*
X62284234Y-132478476D01*
X62480408Y-132461313D01*
X62708663Y-132400153D01*
X62922830Y-132300285D01*
X63116401Y-132164745D01*
X63283495Y-131997651D01*
X63419035Y-131804080D01*
X63518903Y-131589913D01*
X63580063Y-131361658D01*
X63600659Y-131126250D01*
X63580063Y-130890842D01*
X63518903Y-130662587D01*
X63419035Y-130448421D01*
X63283495Y-130254849D01*
X63283494Y-130254847D01*
X63116402Y-130087756D01*
X63116396Y-130087751D01*
X62930842Y-129957825D01*
X62887217Y-129903248D01*
X62880023Y-129833750D01*
X62911546Y-129771395D01*
X62930842Y-129754675D01*
X62992778Y-129711307D01*
X63116401Y-129624745D01*
X63283495Y-129457651D01*
X63419035Y-129264080D01*
X63518903Y-129049913D01*
X63580063Y-128821658D01*
X63600659Y-128586250D01*
X63580063Y-128350842D01*
X63518903Y-128122587D01*
X63419035Y-127908421D01*
X63396789Y-127876649D01*
X63283494Y-127714847D01*
X63116402Y-127547756D01*
X63116395Y-127547751D01*
X62922834Y-127412217D01*
X62922830Y-127412215D01*
X62922828Y-127412214D01*
X62708663Y-127312347D01*
X62708659Y-127312346D01*
X62708655Y-127312344D01*
X62480413Y-127251188D01*
X62480403Y-127251186D01*
X62245001Y-127230591D01*
X62244999Y-127230591D01*
X62009596Y-127251186D01*
X62009586Y-127251188D01*
X61781344Y-127312344D01*
X61781335Y-127312348D01*
X61567171Y-127412214D01*
X61567169Y-127412215D01*
X61373600Y-127547753D01*
X61251673Y-127669680D01*
X61190350Y-127703164D01*
X61120658Y-127698180D01*
X61064725Y-127656308D01*
X61047810Y-127625331D01*
X60998797Y-127493921D01*
X60998793Y-127493914D01*
X60912547Y-127378705D01*
X60912544Y-127378702D01*
X60797335Y-127292456D01*
X60797328Y-127292452D01*
X60662482Y-127242158D01*
X60662483Y-127242158D01*
X60602883Y-127235751D01*
X60602881Y-127235750D01*
X60602873Y-127235750D01*
X60602864Y-127235750D01*
X58807129Y-127235750D01*
X58807123Y-127235751D01*
X58747516Y-127242158D01*
X58612671Y-127292452D01*
X58612664Y-127292456D01*
X58497455Y-127378702D01*
X58497452Y-127378705D01*
X58411206Y-127493914D01*
X58411202Y-127493921D01*
X58360908Y-127628767D01*
X58354501Y-127688366D01*
X58354500Y-127688385D01*
X58354500Y-129484120D01*
X58354501Y-129484126D01*
X58360908Y-129543733D01*
X58411202Y-129678578D01*
X58411206Y-129678585D01*
X58497452Y-129793794D01*
X58497455Y-129793797D01*
X58612664Y-129880043D01*
X58612671Y-129880047D01*
X58744081Y-129929060D01*
X58800015Y-129970931D01*
X58824432Y-130036395D01*
X58809580Y-130104668D01*
X58788430Y-130132923D01*
X58666503Y-130254850D01*
X58530965Y-130448419D01*
X58530964Y-130448421D01*
X58431098Y-130662585D01*
X58431094Y-130662594D01*
X58369938Y-130890836D01*
X58369936Y-130890846D01*
X58349341Y-131126249D01*
X58349341Y-131126250D01*
X52756000Y-131126250D01*
X52756000Y-125497220D01*
X87690642Y-125497220D01*
X87694023Y-125524342D01*
X87694500Y-125532018D01*
X87694500Y-130362067D01*
X87699155Y-130418261D01*
X87704287Y-130480198D01*
X87704499Y-130485319D01*
X87704499Y-131351640D01*
X87704500Y-131351656D01*
X87719789Y-131536165D01*
X87719789Y-131536168D01*
X87719790Y-131536169D01*
X87780428Y-131775623D01*
X87879652Y-132001831D01*
X88014755Y-132208621D01*
X88182052Y-132390355D01*
X88182055Y-132390357D01*
X88182058Y-132390360D01*
X88376971Y-132542067D01*
X88376977Y-132542071D01*
X88376980Y-132542073D01*
X88594221Y-132659638D01*
X88715536Y-132701285D01*
X88827846Y-132739842D01*
X88827848Y-132739842D01*
X88827850Y-132739843D01*
X89071494Y-132780500D01*
X89071495Y-132780500D01*
X89318505Y-132780500D01*
X89318506Y-132780500D01*
X89562150Y-132739843D01*
X89795779Y-132659638D01*
X90013020Y-132542073D01*
X90038691Y-132522093D01*
X90116783Y-132461311D01*
X90207948Y-132390355D01*
X90265493Y-132327844D01*
X92705000Y-132327844D01*
X92711401Y-132387372D01*
X92711403Y-132387379D01*
X92761645Y-132522086D01*
X92761649Y-132522093D01*
X92847809Y-132637187D01*
X92847812Y-132637190D01*
X92962906Y-132723350D01*
X92962913Y-132723354D01*
X93097620Y-132773596D01*
X93097627Y-132773598D01*
X93157155Y-132779999D01*
X93157172Y-132780000D01*
X93945000Y-132780000D01*
X93945000Y-130911057D01*
X94035892Y-130945528D01*
X94155081Y-130960000D01*
X94234919Y-130960000D01*
X94354108Y-130945528D01*
X94445000Y-130911057D01*
X94445000Y-132780000D01*
X95232828Y-132780000D01*
X95232844Y-132779999D01*
X95292372Y-132773598D01*
X95292379Y-132773596D01*
X95427086Y-132723354D01*
X95427093Y-132723350D01*
X95542187Y-132637190D01*
X95542190Y-132637187D01*
X95628350Y-132522093D01*
X95628354Y-132522086D01*
X95678596Y-132387379D01*
X95678598Y-132387372D01*
X95684999Y-132327844D01*
X95685000Y-132327827D01*
X95685000Y-131126250D01*
X101349341Y-131126250D01*
X101369936Y-131361653D01*
X101369938Y-131361663D01*
X101431094Y-131589905D01*
X101431096Y-131589909D01*
X101431097Y-131589913D01*
X101435000Y-131598282D01*
X101530965Y-131804080D01*
X101530967Y-131804084D01*
X101639281Y-131958771D01*
X101666505Y-131997651D01*
X101833599Y-132164745D01*
X101930384Y-132232514D01*
X102027165Y-132300282D01*
X102027167Y-132300283D01*
X102027170Y-132300285D01*
X102241337Y-132400153D01*
X102469592Y-132461313D01*
X102657918Y-132477789D01*
X102704999Y-132481909D01*
X102705000Y-132481909D01*
X102705001Y-132481909D01*
X102744234Y-132478476D01*
X102940408Y-132461313D01*
X103168663Y-132400153D01*
X103382830Y-132300285D01*
X103576401Y-132164745D01*
X103743495Y-131997651D01*
X103873426Y-131812091D01*
X103928002Y-131768467D01*
X103997500Y-131761273D01*
X104059855Y-131792796D01*
X104076575Y-131812092D01*
X104206500Y-131997645D01*
X104206505Y-131997651D01*
X104373599Y-132164745D01*
X104470384Y-132232514D01*
X104567165Y-132300282D01*
X104567167Y-132300283D01*
X104567170Y-132300285D01*
X104781337Y-132400153D01*
X105009592Y-132461313D01*
X105197918Y-132477789D01*
X105244999Y-132481909D01*
X105245000Y-132481909D01*
X105245001Y-132481909D01*
X105284234Y-132478476D01*
X105480408Y-132461313D01*
X105708663Y-132400153D01*
X105922830Y-132300285D01*
X106116401Y-132164745D01*
X106283495Y-131997651D01*
X106419035Y-131804080D01*
X106518903Y-131589913D01*
X106580063Y-131361658D01*
X106600659Y-131126250D01*
X106580063Y-130890842D01*
X106518903Y-130662587D01*
X106419035Y-130448421D01*
X106283495Y-130254849D01*
X106283494Y-130254847D01*
X106116402Y-130087756D01*
X106116401Y-130087755D01*
X105993800Y-130001909D01*
X105930841Y-129957824D01*
X105887216Y-129903247D01*
X105880024Y-129833748D01*
X105911546Y-129771394D01*
X105930836Y-129754678D01*
X106116401Y-129624745D01*
X106283495Y-129457651D01*
X106419035Y-129264080D01*
X106518903Y-129049913D01*
X106580063Y-128821658D01*
X106600659Y-128586250D01*
X106580063Y-128350842D01*
X106518903Y-128122587D01*
X106419035Y-127908421D01*
X106396789Y-127876649D01*
X106283494Y-127714847D01*
X106116402Y-127547756D01*
X106116395Y-127547751D01*
X105922834Y-127412217D01*
X105922830Y-127412215D01*
X105922828Y-127412214D01*
X105708663Y-127312347D01*
X105708659Y-127312346D01*
X105708655Y-127312344D01*
X105480413Y-127251188D01*
X105480403Y-127251186D01*
X105245001Y-127230591D01*
X105244999Y-127230591D01*
X105009596Y-127251186D01*
X105009586Y-127251188D01*
X104781344Y-127312344D01*
X104781335Y-127312348D01*
X104567171Y-127412214D01*
X104567169Y-127412215D01*
X104373600Y-127547753D01*
X104251673Y-127669680D01*
X104190350Y-127703164D01*
X104120658Y-127698180D01*
X104064725Y-127656308D01*
X104047810Y-127625331D01*
X103998797Y-127493921D01*
X103998793Y-127493914D01*
X103912547Y-127378705D01*
X103912544Y-127378702D01*
X103797335Y-127292456D01*
X103797328Y-127292452D01*
X103662482Y-127242158D01*
X103662483Y-127242158D01*
X103602883Y-127235751D01*
X103602881Y-127235750D01*
X103602873Y-127235750D01*
X103602864Y-127235750D01*
X101807129Y-127235750D01*
X101807123Y-127235751D01*
X101747516Y-127242158D01*
X101612671Y-127292452D01*
X101612664Y-127292456D01*
X101497455Y-127378702D01*
X101497452Y-127378705D01*
X101411206Y-127493914D01*
X101411202Y-127493921D01*
X101360908Y-127628767D01*
X101354501Y-127688366D01*
X101354500Y-127688385D01*
X101354500Y-129484120D01*
X101354501Y-129484126D01*
X101360908Y-129543733D01*
X101411202Y-129678578D01*
X101411206Y-129678585D01*
X101497452Y-129793794D01*
X101497455Y-129793797D01*
X101612664Y-129880043D01*
X101612671Y-129880047D01*
X101744081Y-129929060D01*
X101800015Y-129970931D01*
X101824432Y-130036395D01*
X101809580Y-130104668D01*
X101788430Y-130132923D01*
X101666503Y-130254850D01*
X101530965Y-130448419D01*
X101530964Y-130448421D01*
X101431098Y-130662585D01*
X101431094Y-130662594D01*
X101369938Y-130890836D01*
X101369936Y-130890846D01*
X101349341Y-131126249D01*
X101349341Y-131126250D01*
X95685000Y-131126250D01*
X95685000Y-130550000D01*
X94809168Y-130550000D01*
X94816643Y-130535758D01*
X94855000Y-130380138D01*
X94855000Y-130219862D01*
X94816643Y-130064242D01*
X94809168Y-130050000D01*
X95685000Y-130050000D01*
X95685000Y-128272172D01*
X95684999Y-128272155D01*
X95678598Y-128212627D01*
X95678596Y-128212620D01*
X95628354Y-128077913D01*
X95628350Y-128077906D01*
X95542190Y-127962812D01*
X95542187Y-127962809D01*
X95427093Y-127876649D01*
X95427086Y-127876645D01*
X95292379Y-127826403D01*
X95292372Y-127826401D01*
X95232844Y-127820000D01*
X94445000Y-127820000D01*
X94445000Y-129688942D01*
X94354108Y-129654472D01*
X94234919Y-129640000D01*
X94155081Y-129640000D01*
X94035892Y-129654472D01*
X93945000Y-129688942D01*
X93945000Y-127820000D01*
X93157155Y-127820000D01*
X93097627Y-127826401D01*
X93097620Y-127826403D01*
X92962913Y-127876645D01*
X92962906Y-127876649D01*
X92847812Y-127962809D01*
X92847809Y-127962812D01*
X92761649Y-128077906D01*
X92761645Y-128077913D01*
X92711403Y-128212620D01*
X92711401Y-128212627D01*
X92705000Y-128272155D01*
X92705000Y-130050000D01*
X93580832Y-130050000D01*
X93573357Y-130064242D01*
X93535000Y-130219862D01*
X93535000Y-130380138D01*
X93573357Y-130535758D01*
X93580832Y-130550000D01*
X92705000Y-130550000D01*
X92705000Y-132327844D01*
X90265493Y-132327844D01*
X90375245Y-132208621D01*
X90510348Y-132001831D01*
X90609572Y-131775623D01*
X90670210Y-131536169D01*
X90685500Y-131351645D01*
X90685500Y-130485309D01*
X90685712Y-130480186D01*
X90688345Y-130448421D01*
X90695500Y-130362067D01*
X90695500Y-126107889D01*
X90715185Y-126040850D01*
X90731814Y-126020213D01*
X94012422Y-122739604D01*
X94018167Y-122734530D01*
X94039744Y-122717738D01*
X94102127Y-122649970D01*
X94103830Y-122648196D01*
X94124902Y-122627126D01*
X94144171Y-122604373D01*
X94145798Y-122602530D01*
X94208164Y-122534785D01*
X94223117Y-122511894D01*
X94227697Y-122505754D01*
X94245366Y-122484894D01*
X94292510Y-122405773D01*
X94293797Y-122403711D01*
X94344173Y-122326607D01*
X94355154Y-122301571D01*
X94358657Y-122294764D01*
X94372656Y-122271273D01*
X94406128Y-122185487D01*
X94407076Y-122183199D01*
X94444063Y-122098881D01*
X94450774Y-122072374D01*
X94453112Y-122065077D01*
X94463049Y-122039614D01*
X94481945Y-121949492D01*
X94482498Y-121947101D01*
X94505108Y-121857821D01*
X94507364Y-121830582D01*
X94508472Y-121822982D01*
X94514081Y-121796237D01*
X94517884Y-121704257D01*
X94518043Y-121701706D01*
X94520500Y-121672067D01*
X94520500Y-121642315D01*
X94520553Y-121639752D01*
X94524357Y-121547779D01*
X94520976Y-121520656D01*
X94520500Y-121512981D01*
X94520500Y-121330089D01*
X94540185Y-121263050D01*
X94592989Y-121217295D01*
X94662147Y-121207351D01*
X94709597Y-121224551D01*
X94830869Y-121299353D01*
X94830880Y-121299358D01*
X94997302Y-121354505D01*
X94997309Y-121354506D01*
X95100019Y-121364999D01*
X95224999Y-121364999D01*
X95225000Y-121364998D01*
X95225000Y-120215000D01*
X95725000Y-120215000D01*
X95725000Y-121364999D01*
X95849972Y-121364999D01*
X95849986Y-121364998D01*
X95952697Y-121354505D01*
X96119119Y-121299358D01*
X96119124Y-121299356D01*
X96268345Y-121207315D01*
X96392315Y-121083345D01*
X96484356Y-120934124D01*
X96484358Y-120934119D01*
X96539505Y-120767697D01*
X96539506Y-120767690D01*
X96549999Y-120664986D01*
X96550000Y-120664973D01*
X96550000Y-120215000D01*
X95725000Y-120215000D01*
X95225000Y-120215000D01*
X95225000Y-118649000D01*
X95244685Y-118581961D01*
X95297489Y-118536206D01*
X95299156Y-118535843D01*
X95310000Y-118525000D01*
X95310000Y-117706683D01*
X95338819Y-117724209D01*
X95484404Y-117765000D01*
X95597622Y-117765000D01*
X95709783Y-117749584D01*
X95810000Y-117706053D01*
X95810000Y-118631000D01*
X95790315Y-118698039D01*
X95737511Y-118743794D01*
X95735843Y-118744156D01*
X95725000Y-118755000D01*
X95725000Y-119715000D01*
X96549999Y-119715000D01*
X96549999Y-119265028D01*
X96549998Y-119265013D01*
X96539505Y-119162302D01*
X96484358Y-118995880D01*
X96484356Y-118995875D01*
X96392315Y-118846654D01*
X96263237Y-118717576D01*
X96265013Y-118715799D01*
X96231476Y-118668436D01*
X96228336Y-118598637D01*
X96263432Y-118538221D01*
X96289747Y-118519135D01*
X96357164Y-118482652D01*
X96357168Y-118482649D01*
X96547116Y-118334806D01*
X96547126Y-118334797D01*
X96710154Y-118157702D01*
X96710155Y-118157701D01*
X96725891Y-118133616D01*
X96779036Y-118088258D01*
X96848267Y-118078833D01*
X96911604Y-118108333D01*
X96933510Y-118133614D01*
X96949446Y-118158007D01*
X96949448Y-118158009D01*
X96949449Y-118158010D01*
X97112537Y-118335171D01*
X97268908Y-118456879D01*
X97302017Y-118482649D01*
X97302561Y-118483072D01*
X97514336Y-118597679D01*
X97611397Y-118631000D01*
X97742083Y-118675865D01*
X97742085Y-118675865D01*
X97742087Y-118675866D01*
X97979601Y-118715500D01*
X97979602Y-118715500D01*
X98220398Y-118715500D01*
X98220399Y-118715500D01*
X98457913Y-118675866D01*
X98685664Y-118597679D01*
X98897439Y-118483072D01*
X99087463Y-118335171D01*
X99250551Y-118158010D01*
X99382255Y-117956422D01*
X99478983Y-117735905D01*
X99538095Y-117502476D01*
X99553000Y-117322600D01*
X99553000Y-117107400D01*
X99538095Y-116927524D01*
X99478983Y-116694095D01*
X99382255Y-116473578D01*
X99250551Y-116271990D01*
X99133269Y-116144587D01*
X99102348Y-116081933D01*
X99100500Y-116060605D01*
X99100500Y-115724377D01*
X99120185Y-115657338D01*
X99159406Y-115618837D01*
X99193656Y-115597712D01*
X99317712Y-115473656D01*
X99409814Y-115324334D01*
X99464999Y-115157797D01*
X99475500Y-115055009D01*
X99475499Y-113654992D01*
X99464999Y-113552203D01*
X99409814Y-113385666D01*
X99317712Y-113236344D01*
X99193656Y-113112288D01*
X99100888Y-113055069D01*
X99044336Y-113020187D01*
X99044331Y-113020185D01*
X99042862Y-113019698D01*
X98877797Y-112965001D01*
X98877795Y-112965000D01*
X98775010Y-112954500D01*
X98024998Y-112954500D01*
X98024980Y-112954501D01*
X97922203Y-112965000D01*
X97922200Y-112965001D01*
X97755668Y-113020185D01*
X97755663Y-113020187D01*
X97606342Y-113112289D01*
X97482289Y-113236342D01*
X97390187Y-113385663D01*
X97390185Y-113385668D01*
X97364840Y-113462154D01*
X97335001Y-113552203D01*
X97335001Y-113552204D01*
X97335000Y-113552204D01*
X97324500Y-113654983D01*
X97324500Y-113978713D01*
X97304815Y-114045752D01*
X97296603Y-114057073D01*
X97260302Y-114101592D01*
X97260299Y-114101597D01*
X97244392Y-114132047D01*
X97240324Y-114138761D01*
X97220702Y-114166954D01*
X97196509Y-114223330D01*
X97194488Y-114227584D01*
X97166091Y-114281951D01*
X97166090Y-114281952D01*
X97156640Y-114314975D01*
X97154007Y-114322371D01*
X97140459Y-114353943D01*
X97128113Y-114414019D01*
X97126990Y-114418595D01*
X97110113Y-114477577D01*
X97110113Y-114477579D01*
X97107503Y-114511841D01*
X97106414Y-114519608D01*
X97100980Y-114546052D01*
X97099500Y-114553258D01*
X97099500Y-114614597D01*
X97099321Y-114619306D01*
X97094662Y-114680474D01*
X97096489Y-114694815D01*
X97099003Y-114714560D01*
X97099500Y-114722388D01*
X97099500Y-116060605D01*
X97079815Y-116127644D01*
X97066730Y-116144587D01*
X96949451Y-116271987D01*
X96949445Y-116271994D01*
X96933507Y-116296389D01*
X96880359Y-116341744D01*
X96811127Y-116351165D01*
X96747793Y-116321661D01*
X96725892Y-116296385D01*
X96710154Y-116272296D01*
X96547126Y-116095202D01*
X96547116Y-116095193D01*
X96357168Y-115947350D01*
X96357159Y-115947344D01*
X96182815Y-115852995D01*
X96133224Y-115803776D01*
X96118116Y-115735559D01*
X96142286Y-115670003D01*
X96176736Y-115638401D01*
X96243342Y-115597317D01*
X96243344Y-115597316D01*
X96367315Y-115473345D01*
X96459356Y-115324124D01*
X96459358Y-115324119D01*
X96514505Y-115157697D01*
X96514506Y-115157690D01*
X96524999Y-115054986D01*
X96525000Y-115054973D01*
X96525000Y-114605000D01*
X95700000Y-114605000D01*
X95700000Y-115675000D01*
X95705819Y-115680819D01*
X95753039Y-115694685D01*
X95798794Y-115747489D01*
X95810000Y-115799000D01*
X95810000Y-116723316D01*
X95781181Y-116705791D01*
X95635596Y-116665000D01*
X95522378Y-116665000D01*
X95410217Y-116680416D01*
X95310000Y-116723946D01*
X95310000Y-115795000D01*
X95304180Y-115789180D01*
X95256961Y-115775315D01*
X95211206Y-115722511D01*
X95200000Y-115671000D01*
X95200000Y-114605000D01*
X94375001Y-114605000D01*
X94375001Y-115054986D01*
X94385494Y-115157697D01*
X94440641Y-115324119D01*
X94440643Y-115324124D01*
X94532684Y-115473345D01*
X94656654Y-115597315D01*
X94805875Y-115689356D01*
X94812421Y-115692408D01*
X94811477Y-115694432D01*
X94860004Y-115728029D01*
X94886828Y-115792545D01*
X94874514Y-115861321D01*
X94826971Y-115912521D01*
X94822574Y-115915019D01*
X94762837Y-115947346D01*
X94620252Y-116058325D01*
X94555258Y-116083967D01*
X94486718Y-116070400D01*
X94436393Y-116021932D01*
X94427907Y-116003801D01*
X94426194Y-115999209D01*
X94416296Y-115972669D01*
X94416295Y-115972668D01*
X94416293Y-115972664D01*
X94330047Y-115857455D01*
X94330044Y-115857452D01*
X94214835Y-115771206D01*
X94214828Y-115771202D01*
X94079982Y-115720908D01*
X94079983Y-115720908D01*
X94020383Y-115714501D01*
X94020381Y-115714500D01*
X94020373Y-115714500D01*
X93144337Y-115714500D01*
X93144335Y-115714500D01*
X92895665Y-115714500D01*
X92895661Y-115714500D01*
X92019629Y-115714500D01*
X92019623Y-115714501D01*
X91960016Y-115720908D01*
X91825171Y-115771202D01*
X91825164Y-115771206D01*
X91709955Y-115857452D01*
X91709952Y-115857455D01*
X91623706Y-115972664D01*
X91623702Y-115972671D01*
X91573408Y-116107517D01*
X91567001Y-116167116D01*
X91567000Y-116167135D01*
X91567000Y-116824928D01*
X91563206Y-116855368D01*
X91534891Y-116967182D01*
X91519500Y-117152922D01*
X91519499Y-117152937D01*
X91519499Y-118962639D01*
X91513205Y-119001642D01*
X91460001Y-119162200D01*
X91460000Y-119162204D01*
X91449500Y-119264983D01*
X91449500Y-120665001D01*
X91449501Y-120665018D01*
X91460000Y-120767796D01*
X91460001Y-120767799D01*
X91505676Y-120905635D01*
X91508078Y-120975463D01*
X91475651Y-121032320D01*
X88202588Y-124305382D01*
X88196827Y-124310471D01*
X88175255Y-124327262D01*
X88112909Y-124394986D01*
X88111136Y-124396834D01*
X88090104Y-124417865D01*
X88090094Y-124417877D01*
X88070861Y-124440586D01*
X88069166Y-124442506D01*
X88006837Y-124510212D01*
X88006835Y-124510215D01*
X87991892Y-124533087D01*
X87987297Y-124539250D01*
X87969635Y-124560104D01*
X87922518Y-124639173D01*
X87921162Y-124641345D01*
X87870829Y-124718389D01*
X87870824Y-124718397D01*
X87859853Y-124743409D01*
X87856335Y-124750244D01*
X87842348Y-124773717D01*
X87842343Y-124773727D01*
X87808881Y-124859481D01*
X87807901Y-124861848D01*
X87770936Y-124946118D01*
X87770935Y-124946122D01*
X87764226Y-124972616D01*
X87761881Y-124979935D01*
X87751953Y-125005379D01*
X87751948Y-125005395D01*
X87733062Y-125095465D01*
X87732484Y-125097960D01*
X87709892Y-125187175D01*
X87709890Y-125187185D01*
X87707635Y-125214408D01*
X87706526Y-125222016D01*
X87700920Y-125248750D01*
X87700919Y-125248763D01*
X87697115Y-125340719D01*
X87696957Y-125343274D01*
X87694500Y-125372934D01*
X87694500Y-125402683D01*
X87694447Y-125405246D01*
X87690642Y-125497219D01*
X87690642Y-125497220D01*
X52756000Y-125497220D01*
X52756000Y-101347779D01*
X53815643Y-101347779D01*
X53819431Y-101439399D01*
X53819483Y-101441985D01*
X53819471Y-101471381D01*
X53819472Y-101471399D01*
X53821943Y-101501381D01*
X53822100Y-101503910D01*
X53825918Y-101596234D01*
X53825919Y-101596240D01*
X53828759Y-101609783D01*
X53831453Y-101622634D01*
X53832563Y-101630263D01*
X53834778Y-101657138D01*
X53834779Y-101657145D01*
X53857419Y-101746726D01*
X53857989Y-101749192D01*
X53866860Y-101791491D01*
X53869500Y-101816942D01*
X53869500Y-115192981D01*
X53869024Y-115200656D01*
X53865643Y-115227779D01*
X53869447Y-115319752D01*
X53869500Y-115322315D01*
X53869500Y-115352064D01*
X53871957Y-115381723D01*
X53872115Y-115384279D01*
X53875918Y-115476233D01*
X53881526Y-115502983D01*
X53882635Y-115510590D01*
X53884891Y-115537818D01*
X53884891Y-115537822D01*
X53907485Y-115627044D01*
X53908063Y-115629539D01*
X53926949Y-115719608D01*
X53926951Y-115719616D01*
X53936882Y-115745067D01*
X53939227Y-115752387D01*
X53941596Y-115761741D01*
X53945937Y-115778881D01*
X53953007Y-115795000D01*
X53982907Y-115863167D01*
X53983887Y-115865534D01*
X54017344Y-115951275D01*
X54031332Y-115974750D01*
X54034852Y-115981588D01*
X54045824Y-116006604D01*
X54063100Y-116033046D01*
X54096181Y-116083682D01*
X54097496Y-116085787D01*
X54144634Y-116164894D01*
X54162296Y-116185747D01*
X54166887Y-116191904D01*
X54181836Y-116214785D01*
X54181837Y-116214786D01*
X54244162Y-116282489D01*
X54245858Y-116284410D01*
X54265103Y-116307132D01*
X54272971Y-116314999D01*
X54286156Y-116328184D01*
X54287908Y-116330010D01*
X54350252Y-116397734D01*
X54350257Y-116397739D01*
X54371822Y-116414524D01*
X54377587Y-116419615D01*
X56980384Y-119022412D01*
X56985473Y-119028174D01*
X57002262Y-119049744D01*
X57002264Y-119049746D01*
X57002265Y-119049747D01*
X57069988Y-119112090D01*
X57071813Y-119113841D01*
X57081381Y-119123409D01*
X57092860Y-119134889D01*
X57092866Y-119134894D01*
X57092874Y-119134902D01*
X57115576Y-119154129D01*
X57117497Y-119155825D01*
X57185215Y-119218164D01*
X57185217Y-119218165D01*
X57185218Y-119218166D01*
X57208086Y-119233106D01*
X57214253Y-119237704D01*
X57235103Y-119255364D01*
X57235105Y-119255365D01*
X57235106Y-119255366D01*
X57314211Y-119302502D01*
X57316317Y-119303817D01*
X57393393Y-119354173D01*
X57393395Y-119354174D01*
X57418412Y-119365147D01*
X57425243Y-119368663D01*
X57436190Y-119375186D01*
X57448720Y-119382653D01*
X57448721Y-119382653D01*
X57448726Y-119382656D01*
X57534478Y-119416116D01*
X57536831Y-119417091D01*
X57621119Y-119454063D01*
X57643152Y-119459642D01*
X57647609Y-119460771D01*
X57654932Y-119463116D01*
X57680386Y-119473049D01*
X57760347Y-119489815D01*
X57770443Y-119491932D01*
X57772940Y-119492510D01*
X57828842Y-119506666D01*
X57862179Y-119515108D01*
X57889415Y-119517364D01*
X57897018Y-119518471D01*
X57923763Y-119524080D01*
X58015731Y-119527883D01*
X58018255Y-119528040D01*
X58047933Y-119530500D01*
X58077694Y-119530500D01*
X58080254Y-119530552D01*
X58172221Y-119534357D01*
X58188914Y-119532276D01*
X58199342Y-119530977D01*
X58207018Y-119530500D01*
X59135500Y-119530500D01*
X59202539Y-119550185D01*
X59248294Y-119602989D01*
X59259500Y-119654500D01*
X59259500Y-121570370D01*
X59259501Y-121570376D01*
X59265908Y-121629983D01*
X59316202Y-121764828D01*
X59316206Y-121764835D01*
X59402452Y-121880044D01*
X59402455Y-121880047D01*
X59517664Y-121966293D01*
X59517671Y-121966297D01*
X59652517Y-122016591D01*
X59652516Y-122016591D01*
X59659444Y-122017335D01*
X59712127Y-122023000D01*
X61807872Y-122022999D01*
X61867483Y-122016591D01*
X62002331Y-121966296D01*
X62117546Y-121880046D01*
X62203796Y-121764831D01*
X62238395Y-121672067D01*
X62256802Y-121622715D01*
X62258441Y-121623326D01*
X62288264Y-121570950D01*
X62350173Y-121538561D01*
X62419765Y-121544785D01*
X62439460Y-121554634D01*
X62585666Y-121644814D01*
X62752203Y-121699999D01*
X62854991Y-121710500D01*
X63480008Y-121710499D01*
X63480016Y-121710498D01*
X63480019Y-121710498D01*
X63541016Y-121704267D01*
X63582797Y-121699999D01*
X63749334Y-121644814D01*
X63898656Y-121552712D01*
X63992318Y-121459048D01*
X64053642Y-121425564D01*
X64123334Y-121430548D01*
X64167680Y-121459048D01*
X64261344Y-121552712D01*
X64410666Y-121644814D01*
X64577203Y-121699999D01*
X64679991Y-121710500D01*
X65305008Y-121710499D01*
X65305016Y-121710498D01*
X65305019Y-121710498D01*
X65366016Y-121704267D01*
X65407797Y-121699999D01*
X65574334Y-121644814D01*
X65723656Y-121552712D01*
X65729548Y-121546819D01*
X65790872Y-121513334D01*
X65817230Y-121510500D01*
X72266507Y-121510500D01*
X72268069Y-121510519D01*
X72305283Y-121511462D01*
X72356358Y-121512757D01*
X72356358Y-121512756D01*
X72356363Y-121512757D01*
X72416753Y-121501932D01*
X72421412Y-121501280D01*
X72463607Y-121496988D01*
X72482438Y-121495074D01*
X72515227Y-121484786D01*
X72522840Y-121482918D01*
X72556653Y-121476858D01*
X72613621Y-121454101D01*
X72618053Y-121452524D01*
X72676588Y-121434159D01*
X72706627Y-121417484D01*
X72713708Y-121414122D01*
X72745617Y-121401377D01*
X72796854Y-121367608D01*
X72800851Y-121365187D01*
X72854502Y-121335409D01*
X72880568Y-121313030D01*
X72886843Y-121308300D01*
X72915519Y-121289402D01*
X72958917Y-121246002D01*
X72962336Y-121242834D01*
X73008895Y-121202866D01*
X73029931Y-121175688D01*
X73035101Y-121169818D01*
X77828001Y-116376918D01*
X77829014Y-116375931D01*
X77893053Y-116315059D01*
X77928112Y-116264686D01*
X77930925Y-116260957D01*
X77969698Y-116213407D01*
X77985607Y-116182948D01*
X77989667Y-116176248D01*
X78009295Y-116148049D01*
X78033492Y-116091660D01*
X78035498Y-116087435D01*
X78063909Y-116033049D01*
X78073360Y-116000015D01*
X78075991Y-115992628D01*
X78082243Y-115978060D01*
X78089540Y-115961058D01*
X78101893Y-115900940D01*
X78103006Y-115896412D01*
X78119887Y-115837418D01*
X78122495Y-115803155D01*
X78123587Y-115795376D01*
X78123665Y-115795000D01*
X78130500Y-115761741D01*
X78130500Y-115700401D01*
X78130679Y-115695692D01*
X78135337Y-115634525D01*
X78134384Y-115627044D01*
X78133339Y-115618837D01*
X78130997Y-115600441D01*
X78130500Y-115592602D01*
X78130500Y-112862405D01*
X78150185Y-112795366D01*
X78202989Y-112749611D01*
X78267754Y-112739116D01*
X78327127Y-112745500D01*
X78667718Y-112745499D01*
X78734757Y-112765183D01*
X78761799Y-112788723D01*
X78771960Y-112800558D01*
X78776692Y-112806834D01*
X78790853Y-112828319D01*
X78795598Y-112835519D01*
X78838978Y-112878899D01*
X78842169Y-112882343D01*
X78882131Y-112928892D01*
X78882134Y-112928895D01*
X78909294Y-112949918D01*
X78915190Y-112955111D01*
X80043181Y-114083102D01*
X80076666Y-114144425D01*
X80079500Y-114170783D01*
X80079500Y-115007545D01*
X80059815Y-115074584D01*
X80036032Y-115101835D01*
X79944776Y-115179776D01*
X79781161Y-115371343D01*
X79781160Y-115371346D01*
X79649533Y-115586140D01*
X79553126Y-115818889D01*
X79494317Y-116063848D01*
X79474551Y-116314999D01*
X79494317Y-116566151D01*
X79553126Y-116811110D01*
X79649533Y-117043859D01*
X79781160Y-117258653D01*
X79781161Y-117258656D01*
X79781164Y-117258659D01*
X79944776Y-117450224D01*
X80044219Y-117535156D01*
X80136343Y-117613838D01*
X80136346Y-117613839D01*
X80351140Y-117745466D01*
X80583888Y-117841873D01*
X80583889Y-117841873D01*
X80828852Y-117900683D01*
X81080000Y-117920449D01*
X81331148Y-117900683D01*
X81576111Y-117841873D01*
X81808859Y-117745466D01*
X82023659Y-117613836D01*
X82215224Y-117450224D01*
X82378836Y-117258659D01*
X82510466Y-117043859D01*
X82606873Y-116811111D01*
X82665683Y-116566148D01*
X82685449Y-116315000D01*
X82665683Y-116063852D01*
X82606873Y-115818889D01*
X82587121Y-115771204D01*
X82510466Y-115586140D01*
X82378839Y-115371346D01*
X82378838Y-115371343D01*
X82284815Y-115261257D01*
X82215224Y-115179776D01*
X82130620Y-115107517D01*
X82123967Y-115101835D01*
X82085774Y-115043328D01*
X82080499Y-115007545D01*
X82080499Y-114414019D01*
X82080499Y-114105000D01*
X94375000Y-114105000D01*
X95200000Y-114105000D01*
X95199999Y-112955000D01*
X95700000Y-112955000D01*
X95700000Y-114105000D01*
X96524999Y-114105000D01*
X96524999Y-113655028D01*
X96524998Y-113655013D01*
X96514505Y-113552302D01*
X96459358Y-113385880D01*
X96459356Y-113385875D01*
X96367315Y-113236654D01*
X96243345Y-113112684D01*
X96094124Y-113020643D01*
X96094119Y-113020641D01*
X95927697Y-112965494D01*
X95927690Y-112965493D01*
X95824986Y-112955000D01*
X95700000Y-112955000D01*
X95199999Y-112955000D01*
X95075027Y-112955000D01*
X95075012Y-112955001D01*
X94972302Y-112965494D01*
X94805880Y-113020641D01*
X94805875Y-113020643D01*
X94656654Y-113112684D01*
X94532684Y-113236654D01*
X94440643Y-113385875D01*
X94440641Y-113385880D01*
X94385494Y-113552302D01*
X94385493Y-113552309D01*
X94375000Y-113655013D01*
X94375000Y-114105000D01*
X82080499Y-114105000D01*
X82080499Y-113718372D01*
X82080517Y-113716970D01*
X82082756Y-113628636D01*
X82071929Y-113568233D01*
X82071282Y-113563620D01*
X82065074Y-113502562D01*
X82065073Y-113502560D01*
X82065073Y-113502557D01*
X82054790Y-113469787D01*
X82052917Y-113462154D01*
X82046858Y-113428348D01*
X82024102Y-113371378D01*
X82022521Y-113366937D01*
X82004157Y-113308407D01*
X81987488Y-113278378D01*
X81984117Y-113271278D01*
X81971378Y-113239386D01*
X81971377Y-113239383D01*
X81937620Y-113188163D01*
X81935180Y-113184134D01*
X81924379Y-113164675D01*
X81905409Y-113130498D01*
X81905407Y-113130495D01*
X81883033Y-113104434D01*
X81878302Y-113098159D01*
X81859402Y-113069481D01*
X81816012Y-113026091D01*
X81812822Y-113022648D01*
X81772867Y-112976106D01*
X81772863Y-112976102D01*
X81745698Y-112955074D01*
X81739811Y-112949890D01*
X81324600Y-112534680D01*
X81291116Y-112473358D01*
X81296100Y-112403667D01*
X81337971Y-112347733D01*
X81403436Y-112323316D01*
X81412282Y-112323000D01*
X81994741Y-112323000D01*
X82010433Y-112324660D01*
X82010469Y-112324311D01*
X82017202Y-112324998D01*
X82017203Y-112324999D01*
X82119991Y-112335500D01*
X82260484Y-112335499D01*
X82317893Y-112349589D01*
X82364451Y-112373909D01*
X82397473Y-112383356D01*
X82404865Y-112385989D01*
X82436440Y-112399539D01*
X82436441Y-112399540D01*
X82449554Y-112402234D01*
X82496555Y-112411892D01*
X82501095Y-112413006D01*
X82560082Y-112429886D01*
X82594341Y-112432494D01*
X82602109Y-112433585D01*
X82635755Y-112440500D01*
X82635759Y-112440500D01*
X82697101Y-112440500D01*
X82701808Y-112440678D01*
X82738151Y-112443446D01*
X82762975Y-112445337D01*
X82762975Y-112445336D01*
X82762976Y-112445337D01*
X82797059Y-112440996D01*
X82804889Y-112440500D01*
X84063202Y-112440500D01*
X84103204Y-112449368D01*
X84103810Y-112447542D01*
X84110665Y-112449813D01*
X84110666Y-112449814D01*
X84277203Y-112504999D01*
X84379991Y-112515500D01*
X85780008Y-112515499D01*
X85882797Y-112504999D01*
X86049334Y-112449814D01*
X86049334Y-112449813D01*
X86056190Y-112447542D01*
X86056795Y-112449368D01*
X86096798Y-112440500D01*
X88768177Y-112440500D01*
X88835216Y-112460185D01*
X88839267Y-112462902D01*
X89002361Y-112577102D01*
X89200670Y-112669575D01*
X89200676Y-112669576D01*
X89200677Y-112669577D01*
X89231364Y-112677799D01*
X89412023Y-112726207D01*
X89594926Y-112742208D01*
X89629998Y-112745277D01*
X89630000Y-112745277D01*
X89630002Y-112745277D01*
X89658254Y-112742805D01*
X89847977Y-112726207D01*
X90059330Y-112669575D01*
X90257639Y-112577102D01*
X90436877Y-112451598D01*
X90591598Y-112296877D01*
X90717102Y-112117639D01*
X90809575Y-111919330D01*
X90866207Y-111707977D01*
X90883527Y-111509999D01*
X90885277Y-111490002D01*
X90885277Y-111489997D01*
X90874141Y-111362712D01*
X90866207Y-111272023D01*
X90815944Y-111084438D01*
X90809577Y-111060677D01*
X90809576Y-111060676D01*
X90809575Y-111060670D01*
X90717102Y-110862362D01*
X90717100Y-110862359D01*
X90717099Y-110862357D01*
X90591599Y-110683124D01*
X90514333Y-110605858D01*
X90436877Y-110528402D01*
X90296610Y-110430186D01*
X90257638Y-110402897D01*
X90150015Y-110352712D01*
X90059330Y-110310425D01*
X90059326Y-110310424D01*
X90059322Y-110310422D01*
X89847977Y-110253793D01*
X89630002Y-110234723D01*
X89629998Y-110234723D01*
X89484682Y-110247436D01*
X89412023Y-110253793D01*
X89412020Y-110253793D01*
X89200677Y-110310422D01*
X89200668Y-110310426D01*
X89002364Y-110402896D01*
X88999631Y-110404810D01*
X88982114Y-110417075D01*
X88915910Y-110439402D01*
X88910992Y-110439500D01*
X86096798Y-110439500D01*
X86056795Y-110430631D01*
X86056190Y-110432458D01*
X86018036Y-110419815D01*
X85882797Y-110375001D01*
X85882795Y-110375000D01*
X85780010Y-110364500D01*
X84379998Y-110364500D01*
X84379981Y-110364501D01*
X84277203Y-110375000D01*
X84277200Y-110375001D01*
X84103810Y-110432458D01*
X84103204Y-110430631D01*
X84063202Y-110439500D01*
X83751230Y-110439500D01*
X83684191Y-110419815D01*
X83638436Y-110367011D01*
X83628492Y-110297853D01*
X83657517Y-110234297D01*
X83662386Y-110229066D01*
X83662705Y-110228662D01*
X83662712Y-110228656D01*
X83754814Y-110079334D01*
X83809999Y-109912797D01*
X83820500Y-109810009D01*
X83820499Y-109542423D01*
X83840183Y-109475386D01*
X83892987Y-109429631D01*
X83962146Y-109419687D01*
X84009596Y-109436886D01*
X84110875Y-109499356D01*
X84110880Y-109499358D01*
X84277302Y-109554505D01*
X84277309Y-109554506D01*
X84380019Y-109564999D01*
X84829999Y-109564999D01*
X84830000Y-109564998D01*
X84830000Y-108740000D01*
X85330000Y-108740000D01*
X85330000Y-109564999D01*
X85779972Y-109564999D01*
X85779986Y-109564998D01*
X85882697Y-109554505D01*
X86049119Y-109499358D01*
X86049124Y-109499356D01*
X86198345Y-109407315D01*
X86322315Y-109283345D01*
X86414356Y-109134124D01*
X86414358Y-109134119D01*
X86469505Y-108967697D01*
X86469506Y-108967690D01*
X86479999Y-108864986D01*
X86480000Y-108864973D01*
X86480000Y-108740000D01*
X85330000Y-108740000D01*
X84830000Y-108740000D01*
X84830000Y-107415000D01*
X85330000Y-107415000D01*
X85330000Y-108240000D01*
X86479999Y-108240000D01*
X86479999Y-108115028D01*
X86479998Y-108115013D01*
X86469505Y-108012302D01*
X86414358Y-107845880D01*
X86414356Y-107845875D01*
X86322315Y-107696654D01*
X86198345Y-107572684D01*
X86049124Y-107480643D01*
X86049119Y-107480641D01*
X85882697Y-107425494D01*
X85882690Y-107425493D01*
X85779986Y-107415000D01*
X85330000Y-107415000D01*
X84830000Y-107415000D01*
X84380028Y-107415000D01*
X84380012Y-107415001D01*
X84277302Y-107425494D01*
X84110880Y-107480641D01*
X84110875Y-107480643D01*
X83961653Y-107572684D01*
X83955993Y-107577161D01*
X83955182Y-107576136D01*
X83900506Y-107605985D01*
X83830815Y-107600993D01*
X83774885Y-107559116D01*
X83772585Y-107555940D01*
X83721597Y-107483122D01*
X83653475Y-107415000D01*
X83566877Y-107328402D01*
X83415522Y-107222422D01*
X83387638Y-107202897D01*
X83288484Y-107156661D01*
X83189330Y-107110425D01*
X83189326Y-107110424D01*
X83189322Y-107110422D01*
X82977977Y-107053793D01*
X82760002Y-107034723D01*
X82759998Y-107034723D01*
X82614682Y-107047436D01*
X82542023Y-107053793D01*
X82542020Y-107053793D01*
X82330677Y-107110422D01*
X82330668Y-107110426D01*
X82132361Y-107202898D01*
X82132357Y-107202900D01*
X81953121Y-107328402D01*
X81798402Y-107483121D01*
X81672900Y-107662357D01*
X81672898Y-107662361D01*
X81593372Y-107832905D01*
X81547199Y-107885344D01*
X81480990Y-107904500D01*
X80852588Y-107904500D01*
X80785549Y-107884815D01*
X80781465Y-107882075D01*
X80773824Y-107876725D01*
X80627734Y-107774432D01*
X80569132Y-107747105D01*
X80516694Y-107700934D01*
X80497542Y-107633740D01*
X80517758Y-107566859D01*
X80569134Y-107522341D01*
X80627484Y-107495132D01*
X80813820Y-107364657D01*
X80974657Y-107203820D01*
X81105134Y-107017482D01*
X81201265Y-106811326D01*
X81201269Y-106811317D01*
X81253872Y-106615000D01*
X79890686Y-106615000D01*
X79902641Y-106603045D01*
X79960165Y-106490148D01*
X79979986Y-106365000D01*
X79960165Y-106239852D01*
X79902641Y-106126955D01*
X79890686Y-106115000D01*
X81253872Y-106115000D01*
X81253872Y-106114999D01*
X81201269Y-105918682D01*
X81201265Y-105918673D01*
X81105134Y-105712517D01*
X80974657Y-105526179D01*
X80813820Y-105365342D01*
X80627482Y-105234865D01*
X80569133Y-105207657D01*
X80516694Y-105161484D01*
X80497542Y-105094291D01*
X80517758Y-105027410D01*
X80569129Y-104982895D01*
X80627734Y-104955568D01*
X80814139Y-104825047D01*
X80975047Y-104664139D01*
X81105568Y-104477734D01*
X81201739Y-104271496D01*
X81260635Y-104051692D01*
X81280468Y-103825000D01*
X81260635Y-103598308D01*
X81201739Y-103378504D01*
X81105568Y-103172266D01*
X80975047Y-102985861D01*
X80975045Y-102985858D01*
X80814141Y-102824954D01*
X80627734Y-102694432D01*
X80627732Y-102694431D01*
X80421497Y-102598261D01*
X80421488Y-102598258D01*
X80201697Y-102539366D01*
X80201687Y-102539364D01*
X80031785Y-102524500D01*
X80031784Y-102524500D01*
X79118216Y-102524500D01*
X79118215Y-102524500D01*
X78948312Y-102539364D01*
X78948302Y-102539366D01*
X78728511Y-102598258D01*
X78728502Y-102598261D01*
X78522270Y-102694430D01*
X78522266Y-102694432D01*
X78353149Y-102812848D01*
X78294575Y-102834635D01*
X78242564Y-102839925D01*
X78242562Y-102839926D01*
X78209780Y-102850210D01*
X78202156Y-102852081D01*
X78194308Y-102853488D01*
X78168349Y-102858141D01*
X78168341Y-102858143D01*
X78111382Y-102880895D01*
X78106946Y-102882474D01*
X78048415Y-102900840D01*
X78048412Y-102900841D01*
X78048410Y-102900842D01*
X78048403Y-102900845D01*
X78018384Y-102917507D01*
X78011290Y-102920876D01*
X77979390Y-102933619D01*
X77979388Y-102933619D01*
X77979383Y-102933622D01*
X77979376Y-102933626D01*
X77979377Y-102933626D01*
X77928154Y-102967383D01*
X77924126Y-102969824D01*
X77870502Y-102999588D01*
X77870499Y-102999590D01*
X77844427Y-103021970D01*
X77838160Y-103026695D01*
X77809482Y-103045598D01*
X77809475Y-103045603D01*
X77766116Y-103088962D01*
X77762661Y-103092164D01*
X77716106Y-103132132D01*
X77716105Y-103132133D01*
X77695076Y-103159300D01*
X77689884Y-103165194D01*
X76432091Y-104422987D01*
X76430967Y-104424083D01*
X76366946Y-104484942D01*
X76331899Y-104535294D01*
X76329062Y-104539056D01*
X76290302Y-104586592D01*
X76290299Y-104586597D01*
X76274392Y-104617047D01*
X76270324Y-104623761D01*
X76250702Y-104651954D01*
X76226509Y-104708330D01*
X76224488Y-104712584D01*
X76196091Y-104766951D01*
X76196090Y-104766952D01*
X76186640Y-104799975D01*
X76184007Y-104807371D01*
X76170459Y-104838943D01*
X76158113Y-104899019D01*
X76156990Y-104903595D01*
X76140113Y-104962577D01*
X76140113Y-104962579D01*
X76137503Y-104996841D01*
X76136414Y-105004608D01*
X76131786Y-105027135D01*
X76129500Y-105038258D01*
X76129500Y-105099597D01*
X76129321Y-105104306D01*
X76124662Y-105165474D01*
X76126707Y-105181527D01*
X76129003Y-105199560D01*
X76129500Y-105207388D01*
X76129500Y-106794624D01*
X76109815Y-106861663D01*
X76057011Y-106907418D01*
X75987853Y-106917362D01*
X75924297Y-106888337D01*
X75899899Y-106856014D01*
X75898605Y-106856813D01*
X75894814Y-106850666D01*
X75802712Y-106701344D01*
X75678656Y-106577288D01*
X75529334Y-106485186D01*
X75529331Y-106485185D01*
X75362798Y-106430001D01*
X75362791Y-106430000D01*
X75361075Y-106429825D01*
X75360084Y-106429420D01*
X75356172Y-106428583D01*
X75356321Y-106427885D01*
X75296384Y-106403429D01*
X75279591Y-106387236D01*
X75252867Y-106356106D01*
X75225694Y-106335072D01*
X75219807Y-106329887D01*
X74556973Y-105667053D01*
X74555915Y-105665967D01*
X74495061Y-105601949D01*
X74495060Y-105601948D01*
X74495059Y-105601947D01*
X74446430Y-105568100D01*
X74444709Y-105566902D01*
X74440946Y-105564064D01*
X74393413Y-105525305D01*
X74393406Y-105525300D01*
X74362959Y-105509397D01*
X74356251Y-105505334D01*
X74328049Y-105485705D01*
X74328046Y-105485703D01*
X74328045Y-105485703D01*
X74328041Y-105485701D01*
X74271680Y-105461514D01*
X74267424Y-105459493D01*
X74213057Y-105431094D01*
X74213050Y-105431091D01*
X74213049Y-105431091D01*
X74207008Y-105429362D01*
X74180030Y-105421642D01*
X74172630Y-105419008D01*
X74141057Y-105405459D01*
X74141058Y-105405459D01*
X74080966Y-105393109D01*
X74076391Y-105391986D01*
X74017420Y-105375113D01*
X74017425Y-105375113D01*
X73983158Y-105372503D01*
X73975380Y-105371412D01*
X73941742Y-105364500D01*
X73941741Y-105364500D01*
X73880402Y-105364500D01*
X73875695Y-105364321D01*
X73870121Y-105363896D01*
X73814524Y-105359662D01*
X73794589Y-105362201D01*
X73780440Y-105364003D01*
X73772611Y-105364500D01*
X73232588Y-105364500D01*
X73165549Y-105344815D01*
X73161465Y-105342075D01*
X73141622Y-105328181D01*
X73007734Y-105234432D01*
X72949724Y-105207381D01*
X72897285Y-105161210D01*
X72878133Y-105094017D01*
X72898348Y-105027135D01*
X72949725Y-104982618D01*
X73007734Y-104955568D01*
X73194139Y-104825047D01*
X73355047Y-104664139D01*
X73485568Y-104477734D01*
X73581739Y-104271496D01*
X73640635Y-104051692D01*
X73660468Y-103825000D01*
X73640635Y-103598308D01*
X73581739Y-103378504D01*
X73485568Y-103172266D01*
X73355047Y-102985861D01*
X73355045Y-102985858D01*
X73194141Y-102824954D01*
X73007734Y-102694432D01*
X73007732Y-102694431D01*
X72801497Y-102598261D01*
X72801488Y-102598258D01*
X72581697Y-102539366D01*
X72581687Y-102539364D01*
X72411785Y-102524500D01*
X72411784Y-102524500D01*
X71498216Y-102524500D01*
X71498215Y-102524500D01*
X71328312Y-102539364D01*
X71328302Y-102539366D01*
X71108511Y-102598258D01*
X71108502Y-102598261D01*
X70902267Y-102694431D01*
X70902265Y-102694432D01*
X70715858Y-102824954D01*
X70554954Y-102985858D01*
X70424432Y-103172265D01*
X70424431Y-103172267D01*
X70328261Y-103378502D01*
X70328258Y-103378511D01*
X70269366Y-103598302D01*
X70269364Y-103598313D01*
X70249532Y-103824998D01*
X70249532Y-103825001D01*
X70269364Y-104051686D01*
X70269366Y-104051697D01*
X70328258Y-104271488D01*
X70328261Y-104271497D01*
X70424431Y-104477732D01*
X70424432Y-104477734D01*
X70554954Y-104664141D01*
X70715858Y-104825045D01*
X70715861Y-104825047D01*
X70902266Y-104955568D01*
X70960275Y-104982618D01*
X71012714Y-105028791D01*
X71031866Y-105095984D01*
X71011650Y-105162865D01*
X70960275Y-105207382D01*
X70902267Y-105234431D01*
X70902265Y-105234432D01*
X70816895Y-105294209D01*
X70768378Y-105328181D01*
X70748535Y-105342075D01*
X70682329Y-105364402D01*
X70677412Y-105364500D01*
X66555783Y-105364500D01*
X66488744Y-105344815D01*
X66468102Y-105328181D01*
X65009611Y-103869691D01*
X65008514Y-103868566D01*
X64947661Y-103804549D01*
X64947660Y-103804548D01*
X64947659Y-103804547D01*
X64919804Y-103785159D01*
X64897309Y-103769502D01*
X64893546Y-103766664D01*
X64846013Y-103727905D01*
X64846006Y-103727900D01*
X64815559Y-103711997D01*
X64808851Y-103707934D01*
X64780649Y-103688305D01*
X64780646Y-103688303D01*
X64780645Y-103688303D01*
X64780641Y-103688301D01*
X64724280Y-103664114D01*
X64720024Y-103662093D01*
X64665657Y-103633694D01*
X64665650Y-103633691D01*
X64665649Y-103633691D01*
X64659608Y-103631962D01*
X64632630Y-103624242D01*
X64625230Y-103621608D01*
X64593657Y-103608059D01*
X64593658Y-103608059D01*
X64533566Y-103595709D01*
X64528991Y-103594586D01*
X64470020Y-103577713D01*
X64470025Y-103577713D01*
X64435758Y-103575103D01*
X64427980Y-103574012D01*
X64394342Y-103567100D01*
X64394341Y-103567100D01*
X64333002Y-103567100D01*
X64328295Y-103566921D01*
X64322721Y-103566496D01*
X64267124Y-103562262D01*
X64247189Y-103564801D01*
X64233040Y-103566603D01*
X64225211Y-103567100D01*
X61909827Y-103567100D01*
X61842788Y-103547415D01*
X61825849Y-103534334D01*
X61657585Y-103379436D01*
X61657582Y-103379433D01*
X61449406Y-103243426D01*
X61221681Y-103143536D01*
X60980624Y-103082492D01*
X60980613Y-103082490D01*
X60794877Y-103067100D01*
X60794867Y-103067100D01*
X59150490Y-103067100D01*
X59083451Y-103047415D01*
X59062809Y-103030781D01*
X56857125Y-100825097D01*
X56823640Y-100763774D01*
X56820806Y-100737359D01*
X56821354Y-99536591D01*
X56830469Y-79544936D01*
X56830679Y-79539891D01*
X56835643Y-79480000D01*
X56832520Y-79442321D01*
X56832333Y-79435497D01*
X56833392Y-79397697D01*
X56822264Y-79317208D01*
X56821893Y-79313839D01*
X56815221Y-79232857D01*
X56815219Y-79232851D01*
X56815109Y-79232194D01*
X56815108Y-79232179D01*
X56805825Y-79195524D01*
X56804515Y-79188804D01*
X56799341Y-79151369D01*
X56775123Y-79073827D01*
X56774193Y-79070535D01*
X56773982Y-79069701D01*
X56754286Y-78991769D01*
X56754149Y-78991370D01*
X56754063Y-78991119D01*
X56738880Y-78956505D01*
X56736475Y-78950077D01*
X56725213Y-78914015D01*
X56725212Y-78914013D01*
X56725210Y-78914006D01*
X56688551Y-78841491D01*
X56687112Y-78838439D01*
X56654500Y-78763997D01*
X56654176Y-78763401D01*
X56654173Y-78763393D01*
X56633497Y-78731746D01*
X56630073Y-78725811D01*
X56614392Y-78694793D01*
X56613022Y-78692082D01*
X56564929Y-78626591D01*
X56562999Y-78623804D01*
X56518588Y-78555759D01*
X56518163Y-78555214D01*
X56517928Y-78554959D01*
X56492554Y-78527394D01*
X56488207Y-78522113D01*
X56465836Y-78491649D01*
X56407621Y-78434969D01*
X56405267Y-78432548D01*
X56350249Y-78372727D01*
X56350243Y-78372720D01*
X56350026Y-78372521D01*
X56349751Y-78372267D01*
X56319912Y-78349043D01*
X56314745Y-78344541D01*
X56287668Y-78318177D01*
X56256663Y-78296659D01*
X56220919Y-78271852D01*
X56218191Y-78269846D01*
X56171349Y-78233353D01*
X56154082Y-78219900D01*
X56153520Y-78219532D01*
X56152816Y-78219151D01*
X56120264Y-78201534D01*
X56114428Y-78197944D01*
X56083378Y-78176395D01*
X56009910Y-78141686D01*
X56006861Y-78140141D01*
X55935435Y-78101445D01*
X55935013Y-78101261D01*
X55934809Y-78101171D01*
X55899062Y-78088899D01*
X55892707Y-78086316D01*
X55858539Y-78070174D01*
X55858536Y-78070173D01*
X55780363Y-78048031D01*
X55777121Y-78047016D01*
X55740902Y-78034564D01*
X55700271Y-78020594D01*
X55699980Y-78020521D01*
X55699633Y-78020432D01*
X55662328Y-78014207D01*
X55655634Y-78012705D01*
X55619285Y-78002410D01*
X55619281Y-78002409D01*
X55619277Y-78002408D01*
X55619272Y-78002407D01*
X55619265Y-78002406D01*
X55538546Y-77993437D01*
X55535161Y-77992966D01*
X55455009Y-77979555D01*
X55454851Y-77979542D01*
X55454353Y-77979500D01*
X55454335Y-77979500D01*
X55416546Y-77979500D01*
X55409695Y-77979121D01*
X55372128Y-77974947D01*
X55290989Y-77979387D01*
X55287573Y-77979480D01*
X55208728Y-77979445D01*
X55206349Y-77979444D01*
X55206348Y-77979444D01*
X55206333Y-77979444D01*
X55205668Y-77979499D01*
X55168393Y-77985719D01*
X55161575Y-77986472D01*
X55123831Y-77988538D01*
X55123819Y-77988540D01*
X55044532Y-78006273D01*
X55041177Y-78006927D01*
X54961020Y-78020266D01*
X54960590Y-78020376D01*
X54960411Y-78020420D01*
X54924641Y-78032699D01*
X54918040Y-78034564D01*
X54881155Y-78042814D01*
X54805852Y-78073361D01*
X54802651Y-78074558D01*
X54725793Y-78100905D01*
X54725392Y-78101082D01*
X54725202Y-78101164D01*
X54691958Y-78119156D01*
X54685754Y-78122082D01*
X54650729Y-78136291D01*
X54650726Y-78136292D01*
X54581492Y-78178809D01*
X54578532Y-78180516D01*
X54507038Y-78219165D01*
X54506651Y-78219420D01*
X54506510Y-78219511D01*
X54476669Y-78242736D01*
X54471032Y-78246643D01*
X54438821Y-78266425D01*
X54438818Y-78266428D01*
X54377530Y-78319756D01*
X54374892Y-78321927D01*
X54310749Y-78371806D01*
X54310554Y-78371986D01*
X54310269Y-78372246D01*
X54284659Y-78400066D01*
X54279741Y-78404848D01*
X54251230Y-78429658D01*
X54251228Y-78429660D01*
X54199548Y-78492356D01*
X54197303Y-78494932D01*
X54142241Y-78554692D01*
X54141842Y-78555205D01*
X54121162Y-78586856D01*
X54117100Y-78592380D01*
X54093063Y-78621543D01*
X54052411Y-78691883D01*
X54050620Y-78694793D01*
X54006142Y-78762805D01*
X54005883Y-78763287D01*
X54005829Y-78763385D01*
X53990644Y-78798003D01*
X53987546Y-78804121D01*
X53968639Y-78836838D01*
X53968635Y-78836847D01*
X53940119Y-78912908D01*
X53938832Y-78916074D01*
X53906152Y-78990485D01*
X53905987Y-78990970D01*
X53905939Y-78991107D01*
X53896657Y-79027760D01*
X53894608Y-79034306D01*
X53881345Y-79069686D01*
X53881341Y-79069701D01*
X53865735Y-79149410D01*
X53864986Y-79152744D01*
X53845001Y-79231513D01*
X53844935Y-79231916D01*
X53844892Y-79232169D01*
X53839045Y-79302732D01*
X53837153Y-79325575D01*
X53836430Y-79334295D01*
X53836262Y-79336021D01*
X53821822Y-79465993D01*
X53816607Y-79652298D01*
X53828791Y-79740441D01*
X53829376Y-79748969D01*
X53819543Y-101312656D01*
X53819067Y-101320301D01*
X53815643Y-101347774D01*
X53815643Y-101347779D01*
X52756000Y-101347779D01*
X52756000Y-75908237D01*
X52775685Y-75841198D01*
X52828489Y-75795443D01*
X52880236Y-75784237D01*
X64188038Y-75805811D01*
X64255035Y-75825623D01*
X64300689Y-75878514D01*
X64310501Y-75947691D01*
X64281355Y-76011191D01*
X64275478Y-76017491D01*
X59576836Y-80716135D01*
X59574987Y-80717909D01*
X59507262Y-80780256D01*
X59450728Y-80852887D01*
X59449115Y-80854874D01*
X59418978Y-80890459D01*
X59389634Y-80925106D01*
X59389632Y-80925108D01*
X59389632Y-80925109D01*
X59375644Y-80948582D01*
X59371308Y-80954927D01*
X59354527Y-80976488D01*
X59354520Y-80976498D01*
X59310713Y-81057447D01*
X59309448Y-81059675D01*
X59262343Y-81138726D01*
X59262342Y-81138727D01*
X59252409Y-81164183D01*
X59249177Y-81171157D01*
X59236172Y-81195188D01*
X59206279Y-81282260D01*
X59205398Y-81284664D01*
X59171952Y-81370381D01*
X59171950Y-81370388D01*
X59166344Y-81397122D01*
X59164303Y-81404534D01*
X59155430Y-81430381D01*
X59155428Y-81430388D01*
X59140279Y-81521169D01*
X59139805Y-81523686D01*
X59120919Y-81613763D01*
X59120918Y-81613763D01*
X59119789Y-81641072D01*
X59118996Y-81648720D01*
X59114500Y-81675664D01*
X59114500Y-81767683D01*
X59114447Y-81770246D01*
X59110642Y-81862219D01*
X59110642Y-81862220D01*
X59114023Y-81889342D01*
X59114500Y-81897018D01*
X59114500Y-81924335D01*
X59129644Y-82015093D01*
X59130013Y-82017628D01*
X59136316Y-82068188D01*
X59141401Y-82108981D01*
X59141402Y-82108983D01*
X59149198Y-82135171D01*
X59150932Y-82142665D01*
X59155429Y-82169616D01*
X59185309Y-82256652D01*
X59186091Y-82259093D01*
X59212353Y-82347305D01*
X59212357Y-82347315D01*
X59224355Y-82371858D01*
X59227298Y-82378962D01*
X59236170Y-82404807D01*
X59236174Y-82404815D01*
X59249534Y-82429501D01*
X59280001Y-82485799D01*
X59281136Y-82488006D01*
X59307076Y-82541067D01*
X59321569Y-82570713D01*
X59337446Y-82592950D01*
X59341518Y-82599473D01*
X59354524Y-82623507D01*
X59354531Y-82623517D01*
X59411060Y-82696145D01*
X59412572Y-82698171D01*
X59466068Y-82773096D01*
X59485391Y-82792419D01*
X59490476Y-82798177D01*
X59507261Y-82819743D01*
X59507265Y-82819747D01*
X59574987Y-82882090D01*
X59576812Y-82883840D01*
X59641904Y-82948932D01*
X59664150Y-82964815D01*
X59670116Y-82969661D01*
X59693330Y-82991032D01*
X59729318Y-83050920D01*
X59727216Y-83120758D01*
X59687690Y-83178373D01*
X59677173Y-83186062D01*
X59671990Y-83189449D01*
X59671989Y-83189450D01*
X59671988Y-83189450D01*
X59500117Y-83347669D01*
X59494829Y-83352537D01*
X59481381Y-83369815D01*
X59346929Y-83542558D01*
X59232321Y-83754334D01*
X59232318Y-83754343D01*
X59154134Y-83982083D01*
X59153731Y-83984500D01*
X59118973Y-84192799D01*
X59114500Y-84219602D01*
X59114500Y-84460397D01*
X59154134Y-84697916D01*
X59232318Y-84925656D01*
X59232321Y-84925665D01*
X59346929Y-85137441D01*
X59346933Y-85137447D01*
X59457832Y-85279930D01*
X59483475Y-85344924D01*
X59469908Y-85413464D01*
X59421440Y-85463788D01*
X59403313Y-85472273D01*
X59372675Y-85483700D01*
X59372664Y-85483706D01*
X59257455Y-85569952D01*
X59257452Y-85569955D01*
X59171206Y-85685164D01*
X59171202Y-85685171D01*
X59120908Y-85820017D01*
X59114849Y-85876377D01*
X59114501Y-85879623D01*
X59114500Y-85879635D01*
X59114500Y-87880370D01*
X59114501Y-87880376D01*
X59120908Y-87939983D01*
X59171202Y-88074828D01*
X59171206Y-88074835D01*
X59257452Y-88190044D01*
X59257455Y-88190047D01*
X59372664Y-88276293D01*
X59372671Y-88276297D01*
X59507517Y-88326591D01*
X59507516Y-88326591D01*
X59514444Y-88327335D01*
X59567127Y-88333000D01*
X61662872Y-88332999D01*
X61722483Y-88326591D01*
X61857331Y-88276296D01*
X61972546Y-88190046D01*
X61997279Y-88157006D01*
X62047300Y-88090189D01*
X62103234Y-88048318D01*
X62146566Y-88040500D01*
X62742770Y-88040500D01*
X62809809Y-88060185D01*
X62830451Y-88076819D01*
X62836344Y-88082712D01*
X62985666Y-88174814D01*
X63152203Y-88229999D01*
X63254991Y-88240500D01*
X63880008Y-88240499D01*
X63880016Y-88240498D01*
X63880019Y-88240498D01*
X63936302Y-88234748D01*
X63982797Y-88229999D01*
X64149334Y-88174814D01*
X64298656Y-88082712D01*
X64392322Y-87989045D01*
X64453641Y-87955563D01*
X64523333Y-87960547D01*
X64567676Y-87989044D01*
X64661344Y-88082712D01*
X64810666Y-88174814D01*
X64977203Y-88229999D01*
X65079991Y-88240500D01*
X65705008Y-88240499D01*
X65705016Y-88240498D01*
X65705019Y-88240498D01*
X65761302Y-88234748D01*
X65807797Y-88229999D01*
X65974334Y-88174814D01*
X66123656Y-88082712D01*
X66129548Y-88076819D01*
X66190872Y-88043334D01*
X66217230Y-88040500D01*
X66694217Y-88040500D01*
X66761256Y-88060185D01*
X66781898Y-88076819D01*
X67083181Y-88378101D01*
X67116666Y-88439424D01*
X67119500Y-88465782D01*
X67119500Y-90336506D01*
X67119480Y-90338076D01*
X67117243Y-90426362D01*
X67117243Y-90426370D01*
X67128064Y-90486739D01*
X67128718Y-90491404D01*
X67134925Y-90552430D01*
X67134927Y-90552444D01*
X67145208Y-90585213D01*
X67147079Y-90592837D01*
X67153142Y-90626652D01*
X67153142Y-90626655D01*
X67175894Y-90683612D01*
X67177474Y-90688051D01*
X67195841Y-90746588D01*
X67195844Y-90746595D01*
X67212509Y-90776619D01*
X67215879Y-90783714D01*
X67228622Y-90815614D01*
X67228627Y-90815624D01*
X67262377Y-90866833D01*
X67264818Y-90870863D01*
X67294588Y-90924498D01*
X67294589Y-90924499D01*
X67294591Y-90924502D01*
X67316968Y-90950567D01*
X67321693Y-90956835D01*
X67334263Y-90975906D01*
X67340598Y-90985519D01*
X67383978Y-91028899D01*
X67387169Y-91032343D01*
X67427131Y-91078892D01*
X67427130Y-91078892D01*
X67454299Y-91099923D01*
X67460186Y-91105107D01*
X68466501Y-92111421D01*
X69392987Y-93037907D01*
X69394052Y-93038998D01*
X69451501Y-93099434D01*
X69454940Y-93103052D01*
X69454947Y-93103058D01*
X69483532Y-93122953D01*
X69505303Y-93138106D01*
X69509044Y-93140926D01*
X69556593Y-93179698D01*
X69587045Y-93195604D01*
X69593758Y-93199672D01*
X69621951Y-93219295D01*
X69678329Y-93243489D01*
X69682578Y-93245507D01*
X69736951Y-93273909D01*
X69764489Y-93281788D01*
X69769974Y-93283358D01*
X69777368Y-93285990D01*
X69808942Y-93299540D01*
X69808945Y-93299540D01*
X69808946Y-93299541D01*
X69869022Y-93311887D01*
X69873600Y-93313010D01*
X69875704Y-93313612D01*
X69932582Y-93329887D01*
X69966839Y-93332495D01*
X69974614Y-93333586D01*
X70008255Y-93340500D01*
X70008259Y-93340500D01*
X70069598Y-93340500D01*
X70074304Y-93340678D01*
X70101595Y-93342757D01*
X70135475Y-93345337D01*
X70135475Y-93345336D01*
X70135476Y-93345337D01*
X70169559Y-93340996D01*
X70177389Y-93340500D01*
X74156507Y-93340500D01*
X74158069Y-93340519D01*
X74195283Y-93341462D01*
X74246358Y-93342757D01*
X74246358Y-93342756D01*
X74246363Y-93342757D01*
X74306753Y-93331932D01*
X74311412Y-93331280D01*
X74378695Y-93324438D01*
X74378821Y-93325685D01*
X74441786Y-93330914D01*
X74497237Y-93373423D01*
X74520902Y-93439163D01*
X74505270Y-93507261D01*
X74484806Y-93534273D01*
X74221899Y-93797181D01*
X74160576Y-93830666D01*
X74134218Y-93833500D01*
X66739452Y-93833500D01*
X66737889Y-93833480D01*
X66649636Y-93831244D01*
X66649635Y-93831244D01*
X66649626Y-93831244D01*
X66589263Y-93842064D01*
X66584597Y-93842718D01*
X66523564Y-93848925D01*
X66490780Y-93859210D01*
X66483153Y-93861082D01*
X66449349Y-93867141D01*
X66392381Y-93889895D01*
X66387945Y-93891474D01*
X66329414Y-93909840D01*
X66329410Y-93909842D01*
X66299378Y-93926510D01*
X66292284Y-93929879D01*
X66260382Y-93942623D01*
X66260377Y-93942625D01*
X66209156Y-93976381D01*
X66205128Y-93978822D01*
X66151501Y-94008588D01*
X66125434Y-94030965D01*
X66119165Y-94035692D01*
X66090484Y-94054595D01*
X66090478Y-94054600D01*
X66047110Y-94097967D01*
X66043656Y-94101168D01*
X65997104Y-94141134D01*
X65976075Y-94168300D01*
X65970884Y-94174193D01*
X65502089Y-94642989D01*
X65500965Y-94644085D01*
X65436946Y-94704942D01*
X65401899Y-94755294D01*
X65399062Y-94759056D01*
X65360302Y-94806592D01*
X65360299Y-94806597D01*
X65344392Y-94837047D01*
X65340324Y-94843761D01*
X65320702Y-94871954D01*
X65296509Y-94928330D01*
X65294488Y-94932584D01*
X65266091Y-94986951D01*
X65266090Y-94986952D01*
X65256640Y-95019975D01*
X65254007Y-95027371D01*
X65240459Y-95058943D01*
X65228113Y-95119019D01*
X65226990Y-95123595D01*
X65210113Y-95182577D01*
X65210113Y-95182579D01*
X65207503Y-95216841D01*
X65206414Y-95224608D01*
X65200980Y-95251052D01*
X65199500Y-95258258D01*
X65199500Y-95319597D01*
X65199321Y-95324306D01*
X65194662Y-95385474D01*
X65196707Y-95401527D01*
X65199003Y-95419560D01*
X65199500Y-95427388D01*
X65199500Y-97102688D01*
X65179815Y-97169727D01*
X65127011Y-97215482D01*
X65057853Y-97225426D01*
X65010405Y-97208228D01*
X64956838Y-97175188D01*
X64956835Y-97175186D01*
X64956834Y-97175186D01*
X64790297Y-97120001D01*
X64790295Y-97120000D01*
X64687510Y-97109500D01*
X64062498Y-97109500D01*
X64062480Y-97109501D01*
X63959703Y-97120000D01*
X63959700Y-97120001D01*
X63793168Y-97175185D01*
X63793163Y-97175187D01*
X63643842Y-97267289D01*
X63637951Y-97273181D01*
X63576628Y-97306666D01*
X63550270Y-97309500D01*
X62209499Y-97309500D01*
X62142460Y-97289815D01*
X62096705Y-97237011D01*
X62085499Y-97185500D01*
X62085499Y-97089629D01*
X62085498Y-97089623D01*
X62085497Y-97089616D01*
X62079091Y-97030017D01*
X62028796Y-96895169D01*
X62028795Y-96895168D01*
X62028793Y-96895164D01*
X61942547Y-96779955D01*
X61942544Y-96779952D01*
X61827335Y-96693706D01*
X61827328Y-96693702D01*
X61796687Y-96682274D01*
X61740753Y-96640403D01*
X61716336Y-96574938D01*
X61731188Y-96506665D01*
X61742161Y-96489937D01*
X61853072Y-96347439D01*
X61967679Y-96135664D01*
X62045866Y-95907913D01*
X62085500Y-95670399D01*
X62085500Y-95429601D01*
X62045866Y-95192087D01*
X62042601Y-95182577D01*
X61975443Y-94986952D01*
X61967679Y-94964336D01*
X61853072Y-94752561D01*
X61705171Y-94562537D01*
X61528010Y-94399449D01*
X61528007Y-94399446D01*
X61503614Y-94383510D01*
X61458257Y-94330364D01*
X61448833Y-94261132D01*
X61478335Y-94197796D01*
X61503616Y-94175891D01*
X61527701Y-94160155D01*
X61527702Y-94160154D01*
X61704797Y-93997126D01*
X61704806Y-93997116D01*
X61852649Y-93807168D01*
X61852655Y-93807159D01*
X61967215Y-93595468D01*
X61967221Y-93595454D01*
X62045380Y-93367791D01*
X62063367Y-93260000D01*
X61079852Y-93260000D01*
X61128559Y-93122953D01*
X61138877Y-92972114D01*
X61108116Y-92824085D01*
X61074910Y-92760000D01*
X62063366Y-92760000D01*
X62063366Y-92759999D01*
X62045380Y-92652208D01*
X61967221Y-92424545D01*
X61967215Y-92424531D01*
X61852655Y-92212840D01*
X61852649Y-92212831D01*
X61704806Y-92022883D01*
X61704797Y-92022873D01*
X61527710Y-91859851D01*
X61527699Y-91859843D01*
X61326184Y-91728186D01*
X61105739Y-91631491D01*
X61105740Y-91631491D01*
X60872391Y-91572399D01*
X60835000Y-91569300D01*
X60835000Y-92518316D01*
X60806181Y-92500791D01*
X60660596Y-92460000D01*
X60547378Y-92460000D01*
X60435217Y-92475416D01*
X60335000Y-92518946D01*
X60335000Y-91569300D01*
X60334999Y-91569300D01*
X60297608Y-91572399D01*
X60064259Y-91631491D01*
X59843815Y-91728186D01*
X59642300Y-91859843D01*
X59642289Y-91859851D01*
X59465202Y-92022873D01*
X59465193Y-92022883D01*
X59317350Y-92212831D01*
X59317344Y-92212840D01*
X59202784Y-92424531D01*
X59202778Y-92424545D01*
X59124619Y-92652208D01*
X59106633Y-92759999D01*
X59106634Y-92760000D01*
X60090148Y-92760000D01*
X60041441Y-92897047D01*
X60031123Y-93047886D01*
X60061884Y-93195915D01*
X60095090Y-93260000D01*
X59106633Y-93260000D01*
X59124619Y-93367791D01*
X59202778Y-93595454D01*
X59202784Y-93595468D01*
X59317344Y-93807159D01*
X59317350Y-93807168D01*
X59465193Y-93997116D01*
X59465202Y-93997126D01*
X59642297Y-94160154D01*
X59642296Y-94160154D01*
X59666385Y-94175892D01*
X59711742Y-94229038D01*
X59721166Y-94298269D01*
X59691664Y-94361605D01*
X59666389Y-94383507D01*
X59641994Y-94399446D01*
X59641988Y-94399450D01*
X59464832Y-94562534D01*
X59464829Y-94562537D01*
X59421305Y-94618456D01*
X59316929Y-94752558D01*
X59202321Y-94964334D01*
X59202318Y-94964343D01*
X59124134Y-95192083D01*
X59092426Y-95382098D01*
X59084500Y-95429601D01*
X59084500Y-95670399D01*
X59087825Y-95690324D01*
X59124134Y-95907916D01*
X59202318Y-96135656D01*
X59202321Y-96135665D01*
X59316929Y-96347441D01*
X59316933Y-96347447D01*
X59427832Y-96489930D01*
X59453475Y-96554924D01*
X59439908Y-96623464D01*
X59391440Y-96673788D01*
X59373313Y-96682273D01*
X59342675Y-96693700D01*
X59342664Y-96693706D01*
X59227455Y-96779952D01*
X59227452Y-96779955D01*
X59141206Y-96895164D01*
X59141202Y-96895171D01*
X59090908Y-97030017D01*
X59084501Y-97089616D01*
X59084501Y-97089623D01*
X59084500Y-97089635D01*
X59084500Y-99090370D01*
X59084501Y-99090376D01*
X59090908Y-99149983D01*
X59141202Y-99284828D01*
X59141206Y-99284835D01*
X59227452Y-99400044D01*
X59227455Y-99400047D01*
X59342664Y-99486293D01*
X59342671Y-99486297D01*
X59477517Y-99536591D01*
X59477516Y-99536591D01*
X59484444Y-99537335D01*
X59537127Y-99543000D01*
X61632872Y-99542999D01*
X61692483Y-99536591D01*
X61827331Y-99486296D01*
X61942546Y-99400046D01*
X61972383Y-99360188D01*
X62028318Y-99318318D01*
X62071650Y-99310500D01*
X63550270Y-99310500D01*
X63617309Y-99330185D01*
X63637951Y-99346819D01*
X63643844Y-99352712D01*
X63793166Y-99444814D01*
X63959703Y-99499999D01*
X64062491Y-99510500D01*
X64687508Y-99510499D01*
X64687516Y-99510498D01*
X64687519Y-99510498D01*
X64743802Y-99504748D01*
X64790297Y-99499999D01*
X64956834Y-99444814D01*
X65106156Y-99352712D01*
X65199819Y-99259048D01*
X65261142Y-99225564D01*
X65330834Y-99230548D01*
X65375181Y-99259049D01*
X65468844Y-99352712D01*
X65618166Y-99444814D01*
X65784703Y-99499999D01*
X65887491Y-99510500D01*
X66512508Y-99510499D01*
X66512516Y-99510498D01*
X66512519Y-99510498D01*
X66568802Y-99504748D01*
X66615297Y-99499999D01*
X66781834Y-99444814D01*
X66931156Y-99352712D01*
X67055212Y-99228656D01*
X67147314Y-99079334D01*
X67202499Y-98912797D01*
X67213000Y-98810009D01*
X67212999Y-97809992D01*
X67202499Y-97707203D01*
X67201811Y-97700468D01*
X67202160Y-97700432D01*
X67200500Y-97684741D01*
X67200500Y-95958500D01*
X67220185Y-95891461D01*
X67272989Y-95845706D01*
X67324500Y-95834500D01*
X74586507Y-95834500D01*
X74588069Y-95834519D01*
X74625283Y-95835462D01*
X74676358Y-95836757D01*
X74676358Y-95836756D01*
X74676363Y-95836757D01*
X74736753Y-95825932D01*
X74741412Y-95825280D01*
X74783607Y-95820988D01*
X74802438Y-95819074D01*
X74835227Y-95808786D01*
X74842840Y-95806918D01*
X74876653Y-95800858D01*
X74933621Y-95778101D01*
X74938053Y-95776524D01*
X74996588Y-95758159D01*
X75026627Y-95741484D01*
X75033708Y-95738122D01*
X75065617Y-95725377D01*
X75116854Y-95691608D01*
X75120851Y-95689187D01*
X75174502Y-95659409D01*
X75200568Y-95637030D01*
X75206843Y-95632300D01*
X75235519Y-95613402D01*
X75278917Y-95570002D01*
X75282336Y-95566834D01*
X75328895Y-95526866D01*
X75349931Y-95499688D01*
X75355101Y-95493818D01*
X78448001Y-92400918D01*
X78449014Y-92399931D01*
X78513053Y-92339059D01*
X78548112Y-92288686D01*
X78550925Y-92284957D01*
X78589698Y-92237407D01*
X78605607Y-92206948D01*
X78609667Y-92200248D01*
X78629295Y-92172049D01*
X78653492Y-92115660D01*
X78655498Y-92111435D01*
X78683909Y-92057049D01*
X78693360Y-92024015D01*
X78695991Y-92016628D01*
X78709540Y-91985058D01*
X78721893Y-91924940D01*
X78723006Y-91920412D01*
X78739887Y-91861418D01*
X78742495Y-91827155D01*
X78743587Y-91819376D01*
X78750500Y-91785739D01*
X78750500Y-91724401D01*
X78750679Y-91719692D01*
X78755337Y-91658525D01*
X78750997Y-91624441D01*
X78750500Y-91616602D01*
X78750500Y-85781742D01*
X78770185Y-85714703D01*
X78822989Y-85668948D01*
X78892147Y-85659004D01*
X78917830Y-85665559D01*
X78967517Y-85684091D01*
X79027127Y-85690500D01*
X81522872Y-85690499D01*
X81582483Y-85684091D01*
X81582482Y-85684091D01*
X81590196Y-85683262D01*
X81590503Y-85686118D01*
X81646735Y-85689124D01*
X81703413Y-85729981D01*
X81729005Y-85794996D01*
X81729500Y-85806067D01*
X81729500Y-87692545D01*
X81709815Y-87759584D01*
X81686032Y-87786835D01*
X81594776Y-87864776D01*
X81431161Y-88056343D01*
X81431160Y-88056346D01*
X81299533Y-88271140D01*
X81203126Y-88503889D01*
X81144317Y-88748848D01*
X81124551Y-88999999D01*
X81144317Y-89251151D01*
X81203126Y-89496110D01*
X81299533Y-89728859D01*
X81431160Y-89943653D01*
X81431161Y-89943656D01*
X81431164Y-89943659D01*
X81594776Y-90135224D01*
X81743066Y-90261875D01*
X81786343Y-90298838D01*
X81786346Y-90298839D01*
X82001140Y-90430466D01*
X82148259Y-90491404D01*
X82233889Y-90526873D01*
X82478852Y-90585683D01*
X82730000Y-90605449D01*
X82981148Y-90585683D01*
X83226111Y-90526873D01*
X83458859Y-90430466D01*
X83673659Y-90298836D01*
X83865224Y-90135224D01*
X84028836Y-89943659D01*
X84160466Y-89728859D01*
X84256873Y-89496111D01*
X84315683Y-89251148D01*
X84335449Y-89000000D01*
X84315683Y-88748852D01*
X84256873Y-88503889D01*
X84204770Y-88378101D01*
X84160466Y-88271140D01*
X84028839Y-88056346D01*
X84028838Y-88056343D01*
X83942763Y-87955563D01*
X83865224Y-87864776D01*
X83805376Y-87813660D01*
X83773968Y-87786835D01*
X83735775Y-87728327D01*
X83730500Y-87692545D01*
X83730500Y-86109500D01*
X83750185Y-86042461D01*
X83802989Y-85996706D01*
X83854500Y-85985500D01*
X85013202Y-85985500D01*
X85053204Y-85994368D01*
X85053810Y-85992542D01*
X85060665Y-85994813D01*
X85060666Y-85994814D01*
X85227203Y-86049999D01*
X85329991Y-86060500D01*
X86730008Y-86060499D01*
X86832797Y-86049999D01*
X86999334Y-85994814D01*
X86999334Y-85994813D01*
X87006190Y-85992542D01*
X87006795Y-85994368D01*
X87046798Y-85985500D01*
X87871507Y-85985500D01*
X87873069Y-85985519D01*
X87910283Y-85986462D01*
X87961358Y-85987757D01*
X87961358Y-85987756D01*
X87961363Y-85987757D01*
X88021753Y-85976932D01*
X88026412Y-85976280D01*
X88068607Y-85971988D01*
X88087438Y-85970074D01*
X88120227Y-85959786D01*
X88127840Y-85957918D01*
X88161653Y-85951858D01*
X88218621Y-85929101D01*
X88223053Y-85927524D01*
X88281588Y-85909159D01*
X88311627Y-85892484D01*
X88318708Y-85889122D01*
X88350617Y-85876377D01*
X88401854Y-85842608D01*
X88405851Y-85840187D01*
X88459502Y-85810409D01*
X88485568Y-85788030D01*
X88491843Y-85783300D01*
X88494207Y-85781742D01*
X88520519Y-85764402D01*
X88563892Y-85721027D01*
X88567350Y-85717823D01*
X88570984Y-85714703D01*
X88613895Y-85677866D01*
X88634928Y-85650691D01*
X88640098Y-85644821D01*
X89228034Y-85056885D01*
X89289355Y-85023402D01*
X89304900Y-85021041D01*
X89366692Y-85015635D01*
X89586496Y-84956739D01*
X89792734Y-84860568D01*
X89979139Y-84730047D01*
X90140047Y-84569139D01*
X90270568Y-84382734D01*
X90366739Y-84176496D01*
X90425635Y-83956692D01*
X90445468Y-83730000D01*
X90425635Y-83503308D01*
X90368071Y-83288474D01*
X90366741Y-83283511D01*
X90366738Y-83283502D01*
X90359556Y-83268101D01*
X90270568Y-83077266D01*
X90140047Y-82890861D01*
X90140045Y-82890858D01*
X89979141Y-82729954D01*
X89792734Y-82599432D01*
X89792728Y-82599429D01*
X89765038Y-82586517D01*
X89734724Y-82572381D01*
X89682285Y-82526210D01*
X89663133Y-82459017D01*
X89683348Y-82392135D01*
X89734725Y-82347618D01*
X89735375Y-82347315D01*
X89792734Y-82320568D01*
X89979139Y-82190047D01*
X90140047Y-82029139D01*
X90270568Y-81842734D01*
X90366739Y-81636496D01*
X90425635Y-81416692D01*
X90445468Y-81190000D01*
X90445345Y-81188599D01*
X90435243Y-81073124D01*
X90425635Y-80963308D01*
X90366739Y-80743504D01*
X90270568Y-80537266D01*
X90140047Y-80350861D01*
X90140045Y-80350858D01*
X89979141Y-80189954D01*
X89792734Y-80059432D01*
X89792728Y-80059429D01*
X89734725Y-80032382D01*
X89682285Y-79986210D01*
X89663133Y-79919017D01*
X89683348Y-79852135D01*
X89734725Y-79807618D01*
X89792734Y-79780568D01*
X89979139Y-79650047D01*
X90140047Y-79489139D01*
X90270568Y-79302734D01*
X90366739Y-79096496D01*
X90425635Y-78876692D01*
X90445468Y-78650000D01*
X90442592Y-78617132D01*
X90438962Y-78575636D01*
X90425635Y-78423308D01*
X90366739Y-78203504D01*
X90270568Y-77997266D01*
X90140047Y-77810861D01*
X90140045Y-77810858D01*
X89979141Y-77649954D01*
X89792734Y-77519432D01*
X89792732Y-77519431D01*
X89781275Y-77514088D01*
X89734132Y-77492105D01*
X89681694Y-77445934D01*
X89662542Y-77378740D01*
X89682758Y-77311859D01*
X89734134Y-77267341D01*
X89792484Y-77240132D01*
X89978820Y-77109657D01*
X90139657Y-76948820D01*
X90270134Y-76762482D01*
X90366265Y-76556326D01*
X90366269Y-76556317D01*
X90418872Y-76360000D01*
X89455686Y-76360000D01*
X89467641Y-76348045D01*
X89525165Y-76235148D01*
X89544986Y-76110000D01*
X89525165Y-75984852D01*
X89467641Y-75871955D01*
X89455686Y-75860000D01*
X90418872Y-75860000D01*
X90418872Y-75859999D01*
X90366269Y-75663682D01*
X90366265Y-75663673D01*
X90270134Y-75457517D01*
X90139657Y-75271179D01*
X89978820Y-75110342D01*
X89792482Y-74979865D01*
X89586328Y-74883734D01*
X89390000Y-74831127D01*
X89390000Y-75794314D01*
X89378045Y-75782359D01*
X89265148Y-75724835D01*
X89171481Y-75710000D01*
X89108519Y-75710000D01*
X89014852Y-75724835D01*
X88901955Y-75782359D01*
X88890000Y-75794314D01*
X88890000Y-74831127D01*
X88693671Y-74883734D01*
X88487517Y-74979865D01*
X88301179Y-75110342D01*
X88140342Y-75271179D01*
X88009865Y-75457517D01*
X87913734Y-75663673D01*
X87913730Y-75663682D01*
X87861127Y-75859999D01*
X87861128Y-75860000D01*
X88824314Y-75860000D01*
X88812359Y-75871955D01*
X88754835Y-75984852D01*
X88735014Y-76110000D01*
X88754835Y-76235148D01*
X88812359Y-76348045D01*
X88824314Y-76360000D01*
X87861128Y-76360000D01*
X87913730Y-76556317D01*
X87913734Y-76556326D01*
X88009865Y-76762482D01*
X88140342Y-76948820D01*
X88301179Y-77109657D01*
X88487518Y-77240134D01*
X88487520Y-77240135D01*
X88545865Y-77267342D01*
X88598305Y-77313514D01*
X88617457Y-77380707D01*
X88597242Y-77447589D01*
X88545867Y-77492105D01*
X88490288Y-77518023D01*
X88487264Y-77519433D01*
X88300858Y-77649954D01*
X88139954Y-77810858D01*
X88009432Y-77997265D01*
X88009431Y-77997267D01*
X87913261Y-78203502D01*
X87913258Y-78203511D01*
X87854366Y-78423302D01*
X87854364Y-78423313D01*
X87834532Y-78649998D01*
X87834532Y-78650001D01*
X87854364Y-78876686D01*
X87854366Y-78876697D01*
X87913258Y-79096488D01*
X87913261Y-79096497D01*
X88009431Y-79302732D01*
X88009432Y-79302734D01*
X88139954Y-79489141D01*
X88300858Y-79650045D01*
X88300861Y-79650047D01*
X88487266Y-79780568D01*
X88545275Y-79807618D01*
X88597714Y-79853791D01*
X88616866Y-79920984D01*
X88596650Y-79987865D01*
X88545275Y-80032382D01*
X88487267Y-80059431D01*
X88487265Y-80059432D01*
X88300858Y-80189954D01*
X88139954Y-80350858D01*
X88009432Y-80537265D01*
X88009431Y-80537267D01*
X87913261Y-80743502D01*
X87913258Y-80743511D01*
X87854366Y-80963302D01*
X87854364Y-80963313D01*
X87834532Y-81189998D01*
X87834532Y-81190001D01*
X87854364Y-81416686D01*
X87854366Y-81416697D01*
X87913258Y-81636488D01*
X87913261Y-81636497D01*
X88009431Y-81842732D01*
X88009432Y-81842734D01*
X88139954Y-82029141D01*
X88300858Y-82190045D01*
X88300861Y-82190047D01*
X88487266Y-82320568D01*
X88544625Y-82347315D01*
X88545275Y-82347618D01*
X88597714Y-82393791D01*
X88616866Y-82460984D01*
X88596650Y-82527865D01*
X88545275Y-82572381D01*
X88528272Y-82580310D01*
X88487267Y-82599431D01*
X88487265Y-82599432D01*
X88300858Y-82729954D01*
X88139954Y-82890858D01*
X88009432Y-83077265D01*
X88009431Y-83077267D01*
X87913261Y-83283502D01*
X87913258Y-83283511D01*
X87854365Y-83503307D01*
X87848958Y-83565095D01*
X87823504Y-83630163D01*
X87813112Y-83641966D01*
X87506897Y-83948182D01*
X87445577Y-83981666D01*
X87419218Y-83984500D01*
X87046798Y-83984500D01*
X87006795Y-83975631D01*
X87006190Y-83977458D01*
X86968036Y-83964815D01*
X86832797Y-83920001D01*
X86832795Y-83920000D01*
X86730010Y-83909500D01*
X85329998Y-83909500D01*
X85329981Y-83909501D01*
X85227203Y-83920000D01*
X85227200Y-83920001D01*
X85053810Y-83977458D01*
X85053204Y-83975631D01*
X85013202Y-83984500D01*
X84471840Y-83984500D01*
X84404801Y-83964815D01*
X84359046Y-83912011D01*
X84354134Y-83899504D01*
X84317694Y-83789536D01*
X84304814Y-83750666D01*
X84212712Y-83601344D01*
X84119049Y-83507681D01*
X84085564Y-83446358D01*
X84090548Y-83376666D01*
X84119049Y-83332319D01*
X84164004Y-83287364D01*
X84212712Y-83238656D01*
X84304814Y-83089334D01*
X84359999Y-82922797D01*
X84370500Y-82820009D01*
X84370499Y-82420617D01*
X84382115Y-82368217D01*
X84393618Y-82343547D01*
X84439787Y-82291110D01*
X84506980Y-82271956D01*
X84573862Y-82292170D01*
X84619198Y-82345333D01*
X84630000Y-82395945D01*
X84630000Y-82409967D01*
X84630001Y-82409987D01*
X84640494Y-82512697D01*
X84695641Y-82679119D01*
X84695643Y-82679124D01*
X84787684Y-82828345D01*
X84911654Y-82952315D01*
X85060875Y-83044356D01*
X85060880Y-83044358D01*
X85227302Y-83099505D01*
X85227309Y-83099506D01*
X85330019Y-83109999D01*
X85779999Y-83109999D01*
X85780000Y-83109998D01*
X85780000Y-82285000D01*
X86280000Y-82285000D01*
X86280000Y-83109999D01*
X86729972Y-83109999D01*
X86729986Y-83109998D01*
X86832697Y-83099505D01*
X86999119Y-83044358D01*
X86999124Y-83044356D01*
X87148345Y-82952315D01*
X87272315Y-82828345D01*
X87364356Y-82679124D01*
X87364358Y-82679119D01*
X87419505Y-82512697D01*
X87419506Y-82512690D01*
X87429999Y-82409986D01*
X87430000Y-82409973D01*
X87430000Y-82285000D01*
X86280000Y-82285000D01*
X85780000Y-82285000D01*
X85780000Y-81784999D01*
X86279999Y-81784999D01*
X86280000Y-81785000D01*
X87429999Y-81785000D01*
X87429999Y-81660028D01*
X87429998Y-81660013D01*
X87419505Y-81557302D01*
X87364358Y-81390880D01*
X87364356Y-81390875D01*
X87272315Y-81241654D01*
X87148345Y-81117684D01*
X86999124Y-81025643D01*
X86999119Y-81025641D01*
X86832697Y-80970494D01*
X86832690Y-80970493D01*
X86729986Y-80960000D01*
X86280000Y-80960000D01*
X86279999Y-81784999D01*
X85780000Y-81784999D01*
X85780000Y-80960000D01*
X85330028Y-80960000D01*
X85330012Y-80960001D01*
X85227302Y-80970494D01*
X85060880Y-81025641D01*
X85060875Y-81025643D01*
X84911654Y-81117684D01*
X84787684Y-81241654D01*
X84695643Y-81390875D01*
X84695642Y-81390878D01*
X84658896Y-81501770D01*
X84619123Y-81559214D01*
X84554607Y-81586037D01*
X84485831Y-81573722D01*
X84434631Y-81526178D01*
X84421415Y-81494857D01*
X84409578Y-81450679D01*
X84409576Y-81450675D01*
X84409575Y-81450670D01*
X84317102Y-81252362D01*
X84317100Y-81252359D01*
X84317099Y-81252357D01*
X84191599Y-81073124D01*
X84128775Y-81010300D01*
X84036877Y-80918402D01*
X83857639Y-80792898D01*
X83857640Y-80792898D01*
X83857638Y-80792897D01*
X83751709Y-80743502D01*
X83659330Y-80700425D01*
X83659326Y-80700424D01*
X83659322Y-80700422D01*
X83447977Y-80643793D01*
X83230002Y-80624723D01*
X83229998Y-80624723D01*
X83084682Y-80637436D01*
X83012023Y-80643793D01*
X83012020Y-80643793D01*
X82800677Y-80700422D01*
X82800668Y-80700426D01*
X82602363Y-80792897D01*
X82560603Y-80822137D01*
X82494396Y-80844463D01*
X82492632Y-80844520D01*
X82487026Y-80844662D01*
X82469566Y-80846886D01*
X82452940Y-80849003D01*
X82445111Y-80849500D01*
X81552588Y-80849500D01*
X81485549Y-80829815D01*
X81481465Y-80827075D01*
X81432653Y-80792897D01*
X81327734Y-80719432D01*
X81269132Y-80692105D01*
X81216694Y-80645934D01*
X81197542Y-80578740D01*
X81217758Y-80511859D01*
X81269134Y-80467341D01*
X81327484Y-80440132D01*
X81513820Y-80309657D01*
X81674657Y-80148820D01*
X81805134Y-79962482D01*
X81901265Y-79756326D01*
X81901269Y-79756317D01*
X81953872Y-79560000D01*
X80590686Y-79560000D01*
X80602641Y-79548045D01*
X80660165Y-79435148D01*
X80679986Y-79310000D01*
X80660165Y-79184852D01*
X80602641Y-79071955D01*
X80590686Y-79060000D01*
X81953872Y-79060000D01*
X81953872Y-79059999D01*
X81901269Y-78863682D01*
X81901265Y-78863673D01*
X81805134Y-78657517D01*
X81674657Y-78471179D01*
X81513820Y-78310342D01*
X81327482Y-78179865D01*
X81269133Y-78152657D01*
X81216694Y-78106484D01*
X81197542Y-78039291D01*
X81217758Y-77972410D01*
X81269129Y-77927895D01*
X81327734Y-77900568D01*
X81514139Y-77770047D01*
X81675047Y-77609139D01*
X81805568Y-77422734D01*
X81901739Y-77216496D01*
X81960635Y-76996692D01*
X81980468Y-76770000D01*
X81960635Y-76543308D01*
X81901739Y-76323504D01*
X81805568Y-76117266D01*
X81675047Y-75930861D01*
X81675045Y-75930858D01*
X81514141Y-75769954D01*
X81327734Y-75639432D01*
X81327732Y-75639431D01*
X81121497Y-75543261D01*
X81121488Y-75543258D01*
X80901697Y-75484366D01*
X80901687Y-75484364D01*
X80731785Y-75469500D01*
X80731784Y-75469500D01*
X79818216Y-75469500D01*
X79818215Y-75469500D01*
X79648312Y-75484364D01*
X79648302Y-75484366D01*
X79428511Y-75543258D01*
X79428502Y-75543261D01*
X79222267Y-75639431D01*
X79222265Y-75639432D01*
X79068535Y-75747075D01*
X79002329Y-75769402D01*
X78997412Y-75769500D01*
X78513453Y-75769500D01*
X78511891Y-75769480D01*
X78423637Y-75767244D01*
X78423626Y-75767245D01*
X78363271Y-75778062D01*
X78358607Y-75778716D01*
X78297563Y-75784925D01*
X78297555Y-75784927D01*
X78264781Y-75795210D01*
X78257153Y-75797082D01*
X78223349Y-75803141D01*
X78166381Y-75825895D01*
X78161945Y-75827474D01*
X78103414Y-75845840D01*
X78103410Y-75845842D01*
X78073378Y-75862510D01*
X78066284Y-75865879D01*
X78034382Y-75878623D01*
X78034377Y-75878625D01*
X77983156Y-75912381D01*
X77979128Y-75914822D01*
X77925501Y-75944588D01*
X77899434Y-75966965D01*
X77893165Y-75971692D01*
X77864484Y-75990595D01*
X77864478Y-75990600D01*
X77821110Y-76033967D01*
X77817656Y-76037168D01*
X77771104Y-76077134D01*
X77750075Y-76104300D01*
X77744884Y-76110193D01*
X77052090Y-76802988D01*
X77050966Y-76804084D01*
X76986946Y-76864942D01*
X76951899Y-76915294D01*
X76949062Y-76919056D01*
X76910302Y-76966592D01*
X76910299Y-76966597D01*
X76894392Y-76997047D01*
X76890324Y-77003761D01*
X76870702Y-77031954D01*
X76846509Y-77088330D01*
X76844488Y-77092584D01*
X76816091Y-77146951D01*
X76816090Y-77146952D01*
X76806640Y-77179975D01*
X76804007Y-77187371D01*
X76790459Y-77218943D01*
X76778113Y-77279019D01*
X76776990Y-77283595D01*
X76760113Y-77342577D01*
X76760113Y-77342579D01*
X76757503Y-77376841D01*
X76756414Y-77384608D01*
X76750980Y-77411052D01*
X76749500Y-77418258D01*
X76749500Y-77479597D01*
X76749321Y-77484306D01*
X76744662Y-77545474D01*
X76746707Y-77561527D01*
X76749003Y-77579560D01*
X76749500Y-77587388D01*
X76749500Y-91218218D01*
X76729815Y-91285257D01*
X76713185Y-91305894D01*
X76648022Y-91371058D01*
X76631536Y-91387544D01*
X76570212Y-91421028D01*
X76500521Y-91416044D01*
X76444587Y-91374172D01*
X76420171Y-91308707D01*
X76424639Y-91265753D01*
X76429886Y-91247418D01*
X76432494Y-91213157D01*
X76433585Y-91205389D01*
X76440500Y-91171743D01*
X76440500Y-91110398D01*
X76440679Y-91105688D01*
X76441118Y-91099923D01*
X76445337Y-91044524D01*
X76440997Y-91010442D01*
X76440500Y-91002603D01*
X76440500Y-82903475D01*
X76440520Y-82901904D01*
X76441255Y-82872925D01*
X76442757Y-82813637D01*
X76431933Y-82753249D01*
X76431280Y-82748587D01*
X76425947Y-82696145D01*
X76425074Y-82687562D01*
X76414784Y-82654768D01*
X76412917Y-82647155D01*
X76411545Y-82639501D01*
X76406858Y-82613347D01*
X76384100Y-82556374D01*
X76382521Y-82551938D01*
X76374968Y-82527865D01*
X76364159Y-82493412D01*
X76364158Y-82493410D01*
X76364157Y-82493407D01*
X76347488Y-82463378D01*
X76344117Y-82456278D01*
X76331378Y-82424386D01*
X76331377Y-82424383D01*
X76297620Y-82373163D01*
X76295180Y-82369134D01*
X76280980Y-82343551D01*
X76265409Y-82315498D01*
X76265407Y-82315495D01*
X76243033Y-82289434D01*
X76238302Y-82283159D01*
X76219402Y-82254481D01*
X76176012Y-82211091D01*
X76172822Y-82207648D01*
X76132867Y-82161106D01*
X76132863Y-82161102D01*
X76105698Y-82140074D01*
X76099811Y-82134890D01*
X75117010Y-81152090D01*
X75115914Y-81150966D01*
X75055061Y-81086949D01*
X75055060Y-81086948D01*
X75055059Y-81086947D01*
X75012675Y-81057447D01*
X75004709Y-81051902D01*
X75000946Y-81049064D01*
X74953413Y-81010305D01*
X74953406Y-81010300D01*
X74922959Y-80994397D01*
X74916251Y-80990334D01*
X74888049Y-80970705D01*
X74888046Y-80970703D01*
X74888045Y-80970703D01*
X74888041Y-80970701D01*
X74831680Y-80946514D01*
X74827424Y-80944493D01*
X74773057Y-80916094D01*
X74773050Y-80916091D01*
X74773049Y-80916091D01*
X74767008Y-80914362D01*
X74740030Y-80906642D01*
X74732630Y-80904008D01*
X74701057Y-80890459D01*
X74701058Y-80890459D01*
X74640966Y-80878109D01*
X74636391Y-80876986D01*
X74577420Y-80860113D01*
X74577425Y-80860113D01*
X74543158Y-80857503D01*
X74535380Y-80856412D01*
X74501742Y-80849500D01*
X74501741Y-80849500D01*
X74440402Y-80849500D01*
X74435695Y-80849321D01*
X74430121Y-80848896D01*
X74374524Y-80844662D01*
X74354589Y-80847201D01*
X74340440Y-80849003D01*
X74332611Y-80849500D01*
X73932588Y-80849500D01*
X73865549Y-80829815D01*
X73861465Y-80827075D01*
X73812653Y-80792897D01*
X73707734Y-80719432D01*
X73649724Y-80692381D01*
X73597285Y-80646210D01*
X73578133Y-80579017D01*
X73598348Y-80512135D01*
X73649725Y-80467618D01*
X73650319Y-80467341D01*
X73707734Y-80440568D01*
X73894139Y-80310047D01*
X74055047Y-80149139D01*
X74185568Y-79962734D01*
X74281739Y-79756496D01*
X74340635Y-79536692D01*
X74360468Y-79310000D01*
X74358990Y-79293111D01*
X74353639Y-79231940D01*
X74340635Y-79083308D01*
X74281739Y-78863504D01*
X74185568Y-78657266D01*
X74055047Y-78470861D01*
X74055045Y-78470858D01*
X73894141Y-78309954D01*
X73707734Y-78179432D01*
X73707728Y-78179429D01*
X73649725Y-78152382D01*
X73597285Y-78106210D01*
X73578133Y-78039017D01*
X73598348Y-77972135D01*
X73649725Y-77927618D01*
X73707734Y-77900568D01*
X73894139Y-77770047D01*
X74055047Y-77609139D01*
X74185568Y-77422734D01*
X74281739Y-77216496D01*
X74340635Y-76996692D01*
X74360468Y-76770000D01*
X74340635Y-76543308D01*
X74281739Y-76323504D01*
X74185568Y-76117266D01*
X74055047Y-75930861D01*
X74055045Y-75930858D01*
X73894141Y-75769954D01*
X73707734Y-75639432D01*
X73707732Y-75639431D01*
X73501497Y-75543261D01*
X73501488Y-75543258D01*
X73281697Y-75484366D01*
X73281687Y-75484364D01*
X73111785Y-75469500D01*
X73111784Y-75469500D01*
X72198216Y-75469500D01*
X72198215Y-75469500D01*
X72028312Y-75484364D01*
X72028302Y-75484366D01*
X71808511Y-75543258D01*
X71808502Y-75543261D01*
X71602267Y-75639431D01*
X71602265Y-75639432D01*
X71415858Y-75769954D01*
X71254954Y-75930858D01*
X71124432Y-76117265D01*
X71124431Y-76117267D01*
X71028261Y-76323502D01*
X71028258Y-76323511D01*
X70969366Y-76543302D01*
X70969364Y-76543313D01*
X70949532Y-76769998D01*
X70949532Y-76770001D01*
X70969364Y-76996686D01*
X70969366Y-76996697D01*
X71028258Y-77216488D01*
X71028261Y-77216497D01*
X71124431Y-77422732D01*
X71124432Y-77422734D01*
X71254954Y-77609141D01*
X71415858Y-77770045D01*
X71444621Y-77790185D01*
X71602266Y-77900568D01*
X71660275Y-77927618D01*
X71712714Y-77973791D01*
X71731866Y-78040984D01*
X71711650Y-78107865D01*
X71660275Y-78152382D01*
X71602267Y-78179431D01*
X71602265Y-78179432D01*
X71544471Y-78219900D01*
X71470276Y-78271852D01*
X71448535Y-78287075D01*
X71382329Y-78309402D01*
X71377412Y-78309500D01*
X70498493Y-78309500D01*
X70496930Y-78309480D01*
X70408637Y-78307243D01*
X70408628Y-78307243D01*
X70355636Y-78316741D01*
X70348254Y-78318064D01*
X70343595Y-78318718D01*
X70282564Y-78324925D01*
X70282562Y-78324926D01*
X70249780Y-78335210D01*
X70242156Y-78337081D01*
X70234308Y-78338488D01*
X70208349Y-78343141D01*
X70208341Y-78343143D01*
X70151382Y-78365895D01*
X70146946Y-78367474D01*
X70088415Y-78385840D01*
X70088412Y-78385841D01*
X70088410Y-78385842D01*
X70088403Y-78385845D01*
X70058384Y-78402507D01*
X70051290Y-78405876D01*
X70019390Y-78418619D01*
X70019388Y-78418619D01*
X70019383Y-78418622D01*
X70019376Y-78418626D01*
X70019377Y-78418626D01*
X69968154Y-78452383D01*
X69964126Y-78454824D01*
X69910502Y-78484588D01*
X69910499Y-78484590D01*
X69884427Y-78506970D01*
X69878160Y-78511695D01*
X69849482Y-78530598D01*
X69849475Y-78530603D01*
X69806116Y-78573962D01*
X69802661Y-78577164D01*
X69756106Y-78617132D01*
X69756105Y-78617133D01*
X69735076Y-78644300D01*
X69729884Y-78650194D01*
X69151898Y-79228181D01*
X69090575Y-79261666D01*
X69064217Y-79264500D01*
X65912018Y-79264500D01*
X65904342Y-79264023D01*
X65877220Y-79260642D01*
X65877219Y-79260642D01*
X65790376Y-79264234D01*
X65785244Y-79264447D01*
X65782685Y-79264500D01*
X65752933Y-79264500D01*
X65744151Y-79265227D01*
X65723274Y-79266957D01*
X65720719Y-79267115D01*
X65628763Y-79270919D01*
X65628750Y-79270920D01*
X65602015Y-79276526D01*
X65594406Y-79277635D01*
X65566236Y-79279969D01*
X65497800Y-79265889D01*
X65447840Y-79217044D01*
X65432219Y-79148943D01*
X65455896Y-79083207D01*
X65468308Y-79068718D01*
X72112426Y-72424599D01*
X72118163Y-72419534D01*
X72139744Y-72402738D01*
X72202138Y-72334958D01*
X72203841Y-72333184D01*
X72224901Y-72312126D01*
X72236595Y-72298317D01*
X72244132Y-72289419D01*
X72245830Y-72287496D01*
X72308164Y-72219785D01*
X72323117Y-72196894D01*
X72327697Y-72190754D01*
X72345366Y-72169894D01*
X72392516Y-72090763D01*
X72393795Y-72088715D01*
X72444173Y-72011607D01*
X72455148Y-71986584D01*
X72458668Y-71979747D01*
X72472655Y-71956274D01*
X72506121Y-71870506D01*
X72507077Y-71868197D01*
X72544063Y-71783881D01*
X72550774Y-71757374D01*
X72553112Y-71750077D01*
X72563049Y-71724614D01*
X72581938Y-71634523D01*
X72582507Y-71632067D01*
X72583084Y-71629791D01*
X72605108Y-71542821D01*
X72607364Y-71515583D01*
X72608471Y-71507980D01*
X72614080Y-71481237D01*
X72617883Y-71389264D01*
X72618040Y-71386749D01*
X72620500Y-71357067D01*
X72620500Y-71327306D01*
X72620553Y-71324744D01*
X72624357Y-71232779D01*
X72620976Y-71205656D01*
X72620500Y-71197981D01*
X72620500Y-64111438D01*
X72640185Y-64044399D01*
X72645234Y-64037126D01*
X72663796Y-64012331D01*
X72714091Y-63877483D01*
X72720500Y-63817873D01*
X72720499Y-62996175D01*
X72723140Y-62970722D01*
X72724079Y-62966243D01*
X72724079Y-62966241D01*
X72724080Y-62966237D01*
X72727883Y-62874264D01*
X72728040Y-62871749D01*
X72730500Y-62842067D01*
X72730500Y-62812306D01*
X72730553Y-62809744D01*
X72734357Y-62717779D01*
X72730975Y-62690653D01*
X72730500Y-62682981D01*
X72730500Y-61727935D01*
X72730499Y-61727924D01*
X72722290Y-61628856D01*
X72720710Y-61609798D01*
X72720499Y-61604683D01*
X72720499Y-59762129D01*
X72720498Y-59762123D01*
X72720497Y-59762116D01*
X72714091Y-59702517D01*
X72663796Y-59567669D01*
X72634707Y-59528811D01*
X72610290Y-59463347D01*
X72625142Y-59395074D01*
X72674547Y-59345668D01*
X72733974Y-59330500D01*
X75330130Y-59330500D01*
X75397169Y-59350185D01*
G37*
%TD.AperFunction*%
%TD*%
M02*
