M48
; DRILL file {KiCad 7.0.5} date Thu Nov 23 21:46:33 2023
; FORMAT={-:-/ absolute / inch / decimal}
; #@! TF.CreationDate,2023-11-23T21:46:33-03:00
; #@! TF.GenerationSoftware,Kicad,Pcbnew,7.0.5
; #@! TF.FileFunction,Plated,1,2,PTH
FMAT,2
INCH
; #@! TA.AperFunction,Plated,PTH,ViaDrill
T1C0.0157
; #@! TA.AperFunction,Plated,PTH,ViaDrill
T2C0.0315
; #@! TA.AperFunction,Plated,PTH,ComponentDrill
T3C0.0315
; #@! TA.AperFunction,Plated,PTH,ViaDrill
T4C0.0394
; #@! TA.AperFunction,Plated,PTH,ComponentDrill
T5C0.0394
; #@! TA.AperFunction,Plated,PTH,ComponentDrill
T6C0.0433
; #@! TA.AperFunction,Plated,PTH,ComponentDrill
T7C0.0520
%
G90
G05
T1
X3.9535Y-2.7476
X3.9906Y-3.2051
X4.1571Y-2.4602
T2
X3.2583Y-4.2634
X3.2768Y-3.2236
X3.3957Y-2.6449
X3.5287Y-4.3894
X3.6169Y-2.8547
T3
X2.8329Y-4.0876
X2.8329Y-4.1876
X2.8329Y-4.2876
X2.8329Y-4.3876
X2.8604Y-3.0224
X2.8604Y-3.1224
X2.8604Y-3.2224
X2.8604Y-3.3224
X3.1329Y-4.0876
X3.1329Y-4.1876
X3.1329Y-4.2876
X3.1329Y-4.3876
X3.1604Y-3.0224
X3.1604Y-3.1224
X3.1604Y-3.2224
X3.1604Y-3.3224
X3.5094Y-2.9965
X3.5094Y-3.0965
X3.5094Y-3.1965
X3.5094Y-3.2965
X3.5146Y-2.5437
X3.5146Y-2.6437
X3.5146Y-2.7437
X3.5146Y-2.8437
X3.8094Y-2.9965
X3.8094Y-3.0965
X3.8094Y-3.1965
X3.8094Y-3.2965
X3.8146Y-2.5437
X3.8146Y-2.6437
X3.8146Y-2.7437
X3.8146Y-2.8437
T4
X2.1783Y-3.1291
X3.0965Y-2.7504
T5
X2.3506Y-2.5625
X2.3506Y-2.6625
X2.3506Y-2.7625
X2.3506Y-5.0625
X2.3506Y-5.1625
X2.4506Y-2.5625
X2.4506Y-2.6625
X2.4506Y-2.7625
X2.4506Y-5.0625
X2.4506Y-5.1625
X4.0435Y-2.5625
X4.0435Y-2.6625
X4.0435Y-5.0625
X4.0435Y-5.1625
X4.1435Y-2.5625
X4.1435Y-2.6625
X4.1435Y-5.0625
X4.1435Y-5.1625
T6
X2.3852Y-3.6618
X2.3852Y-3.7618
X2.3852Y-3.8618
X2.3864Y-3.2205
X2.3864Y-3.3205
X2.3864Y-3.4205
X2.3911Y-4.1168
X2.3911Y-4.2168
X2.3911Y-4.3168
X2.3921Y-4.5469
X2.3921Y-4.6469
X2.3921Y-4.7469
X2.7921Y-4.5793
X2.8571Y-3.5039
X3.1921Y-4.5793
X3.2571Y-3.5039
X3.6622Y-4.6148
X3.7622Y-4.6148
X3.8622Y-4.6148
T7
X2.8043Y-2.4327
X3.0012Y-2.4327
X3.5116Y-5.1299
X3.7085Y-5.1299
T0
M30
