%TF.GenerationSoftware,KiCad,Pcbnew,7.0.5*%
%TF.CreationDate,2023-11-23T21:46:28-03:00*%
%TF.ProjectId,Inversor,496e7665-7273-46f7-922e-6b696361645f,rev?*%
%TF.SameCoordinates,Original*%
%TF.FileFunction,Copper,L1,Top*%
%TF.FilePolarity,Positive*%
%FSLAX46Y46*%
G04 Gerber Fmt 4.6, Leading zero omitted, Abs format (unit mm)*
G04 Created by KiCad (PCBNEW 7.0.5) date 2023-11-23 21:46:28*
%MOMM*%
%LPD*%
G01*
G04 APERTURE LIST*
G04 Aperture macros list*
%AMRoundRect*
0 Rectangle with rounded corners*
0 $1 Rounding radius*
0 $2 $3 $4 $5 $6 $7 $8 $9 X,Y pos of 4 corners*
0 Add a 4 corners polygon primitive as box body*
4,1,4,$2,$3,$4,$5,$6,$7,$8,$9,$2,$3,0*
0 Add four circle primitives for the rounded corners*
1,1,$1+$1,$2,$3*
1,1,$1+$1,$4,$5*
1,1,$1+$1,$6,$7*
1,1,$1+$1,$8,$9*
0 Add four rect primitives between the rounded corners*
20,1,$1+$1,$2,$3,$4,$5,0*
20,1,$1+$1,$4,$5,$6,$7,0*
20,1,$1+$1,$6,$7,$8,$9,0*
20,1,$1+$1,$8,$9,$2,$3,0*%
G04 Aperture macros list end*
%TA.AperFunction,SMDPad,CuDef*%
%ADD10RoundRect,0.150000X0.825000X0.150000X-0.825000X0.150000X-0.825000X-0.150000X0.825000X-0.150000X0*%
%TD*%
%TA.AperFunction,SMDPad,CuDef*%
%ADD11RoundRect,0.250000X0.262500X0.450000X-0.262500X0.450000X-0.262500X-0.450000X0.262500X-0.450000X0*%
%TD*%
%TA.AperFunction,SMDPad,CuDef*%
%ADD12RoundRect,0.250000X-0.450000X0.262500X-0.450000X-0.262500X0.450000X-0.262500X0.450000X0.262500X0*%
%TD*%
%TA.AperFunction,ComponentPad*%
%ADD13R,2.000000X1.905000*%
%TD*%
%TA.AperFunction,ComponentPad*%
%ADD14O,2.000000X1.905000*%
%TD*%
%TA.AperFunction,ComponentPad*%
%ADD15O,1.980000X3.960000*%
%TD*%
%TA.AperFunction,ComponentPad*%
%ADD16R,1.980000X3.960000*%
%TD*%
%TA.AperFunction,ComponentPad*%
%ADD17R,2.200000X2.200000*%
%TD*%
%TA.AperFunction,ComponentPad*%
%ADD18O,2.200000X2.200000*%
%TD*%
%TA.AperFunction,ComponentPad*%
%ADD19O,1.700000X1.700000*%
%TD*%
%TA.AperFunction,ComponentPad*%
%ADD20R,1.700000X1.700000*%
%TD*%
%TA.AperFunction,ComponentPad*%
%ADD21R,1.600000X1.600000*%
%TD*%
%TA.AperFunction,ComponentPad*%
%ADD22O,1.600000X1.600000*%
%TD*%
%TA.AperFunction,ComponentPad*%
%ADD23R,2.400000X1.600000*%
%TD*%
%TA.AperFunction,ComponentPad*%
%ADD24O,2.400000X1.600000*%
%TD*%
%TA.AperFunction,ComponentPad*%
%ADD25R,1.905000X2.000000*%
%TD*%
%TA.AperFunction,ComponentPad*%
%ADD26O,1.905000X2.000000*%
%TD*%
%TA.AperFunction,SMDPad,CuDef*%
%ADD27RoundRect,0.250000X-0.650000X0.325000X-0.650000X-0.325000X0.650000X-0.325000X0.650000X0.325000X0*%
%TD*%
%TA.AperFunction,SMDPad,CuDef*%
%ADD28RoundRect,0.250000X-0.262500X-0.450000X0.262500X-0.450000X0.262500X0.450000X-0.262500X0.450000X0*%
%TD*%
%TA.AperFunction,ViaPad*%
%ADD29C,1.500000*%
%TD*%
%TA.AperFunction,ViaPad*%
%ADD30C,0.800000*%
%TD*%
%TA.AperFunction,ViaPad*%
%ADD31C,2.000000*%
%TD*%
%TA.AperFunction,Conductor*%
%ADD32C,1.000000*%
%TD*%
%TA.AperFunction,Conductor*%
%ADD33C,0.500000*%
%TD*%
%TA.AperFunction,Conductor*%
%ADD34C,1.500000*%
%TD*%
%TA.AperFunction,Conductor*%
%ADD35C,2.000000*%
%TD*%
G04 APERTURE END LIST*
D10*
%TO.P,U4,8,VCC*%
%TO.N,+5V*%
X68775000Y-73415000D03*
%TO.P,U4,7,VIOUT*%
%TO.N,Net-(U4-VIOUT)*%
X68775000Y-72145000D03*
%TO.P,U4,6,FILTER*%
%TO.N,Net-(U4-FILTER)*%
X68775000Y-70875000D03*
%TO.P,U4,5,GND*%
%TO.N,GNDS*%
X68775000Y-69605000D03*
%TO.P,U4,4,IP-*%
%TO.N,Load-*%
X73725000Y-69605000D03*
%TO.P,U4,3,IP-*%
X73725000Y-70875000D03*
%TO.P,U4,2,IP+*%
%TO.N,Net-(J1-Pin_2)*%
X73725000Y-72145000D03*
%TO.P,U4,1,IP+*%
X73725000Y-73415000D03*
%TD*%
D11*
%TO.P,R8,1*%
%TO.N,GNDS*%
X64062500Y-73120000D03*
%TO.P,R8,2*%
%TO.N,iout*%
X62237500Y-73120000D03*
%TD*%
D12*
%TO.P,R7,1*%
%TO.N,Net-(U4-VIOUT)*%
X66230000Y-72917500D03*
%TO.P,R7,2*%
%TO.N,iout*%
X66230000Y-74742500D03*
%TD*%
D13*
%TO.P,Q2,1,G*%
%TO.N,Net-(Q2-G)*%
X60585000Y-98090000D03*
D14*
%TO.P,Q2,2,D*%
%TO.N,Load+*%
X60585000Y-95550000D03*
%TO.P,Q2,3,S*%
%TO.N,GND*%
X60585000Y-93010000D03*
%TD*%
D15*
%TO.P,J1,2,Pin_2*%
%TO.N,Net-(J1-Pin_2)*%
X76230000Y-61790000D03*
D16*
%TO.P,J1,1,Pin_1*%
%TO.N,Load+*%
X71230000Y-61790000D03*
%TD*%
D17*
%TO.P,D2,1,K*%
%TO.N,Net-(D2-K)*%
X72570000Y-89000000D03*
D18*
%TO.P,D2,2,A*%
%TO.N,+15V*%
X82730000Y-89000000D03*
%TD*%
D19*
%TO.P,J7,6,Pin_6*%
%TO.N,iout*%
X62245000Y-70166250D03*
%TO.P,J7,5,Pin_5*%
%TO.N,unconnected-(J7-Pin_5-Pad5)*%
X59705000Y-70166250D03*
%TO.P,J7,4,Pin_4*%
%TO.N,GNDS*%
X62245000Y-67626250D03*
%TO.P,J7,3,Pin_3*%
%TO.N,unconnected-(J7-Pin_3-Pad3)*%
X59705000Y-67626250D03*
%TO.P,J7,2,Pin_2*%
%TO.N,+5V*%
X62245000Y-65086250D03*
D20*
%TO.P,J7,1,Pin_1*%
%TO.N,unconnected-(J7-Pin_1-Pad1)*%
X59705000Y-65086250D03*
%TD*%
D21*
%TO.P,U6,1,NC*%
%TO.N,unconnected-(U6-NC-Pad1)*%
X96760000Y-83730000D03*
D22*
%TO.P,U6,2*%
%TO.N,Net-(R5-Pad2)*%
X96760000Y-81190000D03*
%TO.P,U6,3*%
%TO.N,GNDS*%
X96760000Y-78650000D03*
%TO.P,U6,4,NC*%
%TO.N,unconnected-(U6-NC-Pad4)*%
X96760000Y-76110000D03*
%TO.P,U6,5*%
%TO.N,GND*%
X89140000Y-76110000D03*
%TO.P,U6,6*%
%TO.N,in2*%
X89140000Y-78650000D03*
%TO.P,U6,7*%
%TO.N,unconnected-(U6-Pad7)*%
X89140000Y-81190000D03*
%TO.P,U6,8*%
%TO.N,+15V*%
X89140000Y-83730000D03*
%TD*%
D21*
%TO.P,U5,1,NC*%
%TO.N,unconnected-(U5-NC-Pad1)*%
X96890000Y-72230000D03*
D22*
%TO.P,U5,2*%
%TO.N,Net-(R13-Pad2)*%
X96890000Y-69690000D03*
%TO.P,U5,3*%
%TO.N,GNDS*%
X96890000Y-67150000D03*
%TO.P,U5,4,NC*%
%TO.N,unconnected-(U5-NC-Pad4)*%
X96890000Y-64610000D03*
%TO.P,U5,5*%
%TO.N,GND*%
X89270000Y-64610000D03*
%TO.P,U5,6*%
%TO.N,in1*%
X89270000Y-67150000D03*
%TO.P,U5,7*%
%TO.N,unconnected-(U5-Pad7)*%
X89270000Y-69690000D03*
%TO.P,U5,8*%
%TO.N,+15V*%
X89270000Y-72230000D03*
%TD*%
D19*
%TO.P,J4,4,Pin_4*%
%TO.N,unconnected-(J4-Pin_4-Pad4)*%
X105245000Y-67626250D03*
%TO.P,J4,3,Pin_3*%
%TO.N,pwm1*%
X102705000Y-67626250D03*
%TO.P,J4,2,Pin_2*%
%TO.N,GNDS*%
X105245000Y-65086250D03*
D20*
%TO.P,J4,1,Pin_1*%
%TO.N,pwm2*%
X102705000Y-65086250D03*
%TD*%
D13*
%TO.P,Q1,1,G*%
%TO.N,Net-(Q1-G)*%
X60615000Y-86880000D03*
D14*
%TO.P,Q1,2,D*%
%TO.N,+24V*%
X60615000Y-84340000D03*
%TO.P,Q1,3,S*%
%TO.N,Load+*%
X60615000Y-81800000D03*
%TD*%
D23*
%TO.P,U1,1,VCC*%
%TO.N,+15V*%
X80275000Y-84390000D03*
D24*
%TO.P,U1,2,IN*%
%TO.N,in1*%
X80275000Y-81850000D03*
%TO.P,U1,3,COM*%
%TO.N,GND*%
X80275000Y-79310000D03*
%TO.P,U1,4,LO*%
%TO.N,Net-(U1-LO)*%
X80275000Y-76770000D03*
%TO.P,U1,5,NC*%
%TO.N,unconnected-(U1-NC-Pad5)*%
X72655000Y-76770000D03*
%TO.P,U1,6,VS*%
%TO.N,Load+*%
X72655000Y-79310000D03*
%TO.P,U1,7,HO*%
%TO.N,Net-(U1-HO)*%
X72655000Y-81850000D03*
%TO.P,U1,8,VB*%
%TO.N,Net-(D2-K)*%
X72655000Y-84390000D03*
%TD*%
D13*
%TO.P,Q3,1,G*%
%TO.N,Net-(Q3-G)*%
X60732800Y-109647600D03*
D14*
%TO.P,Q3,2,D*%
%TO.N,+24V*%
X60732800Y-107107600D03*
%TO.P,Q3,3,S*%
%TO.N,Load-*%
X60732800Y-104567600D03*
%TD*%
D19*
%TO.P,J6,4,Pin_4*%
%TO.N,unconnected-(J6-Pin_4-Pad4)*%
X62245000Y-131126250D03*
%TO.P,J6,3,Pin_3*%
%TO.N,unconnected-(J6-Pin_3-Pad3)*%
X59705000Y-131126250D03*
%TO.P,J6,2,Pin_2*%
%TO.N,unconnected-(J6-Pin_2-Pad2)*%
X62245000Y-128586250D03*
D20*
%TO.P,J6,1,Pin_1*%
%TO.N,unconnected-(J6-Pin_1-Pad1)*%
X59705000Y-128586250D03*
%TD*%
D25*
%TO.P,U2,1,VI*%
%TO.N,+24V*%
X93020000Y-117215000D03*
D26*
%TO.P,U2,2,GND*%
%TO.N,GND*%
X95560000Y-117215000D03*
%TO.P,U2,3,VO*%
%TO.N,+15V*%
X98100000Y-117215000D03*
%TD*%
D19*
%TO.P,J5,4,Pin_4*%
%TO.N,unconnected-(J5-Pin_4-Pad4)*%
X105245000Y-131126250D03*
%TO.P,J5,3,Pin_3*%
%TO.N,unconnected-(J5-Pin_3-Pad3)*%
X102705000Y-131126250D03*
%TO.P,J5,2,Pin_2*%
%TO.N,unconnected-(J5-Pin_2-Pad2)*%
X105245000Y-128586250D03*
D20*
%TO.P,J5,1,Pin_1*%
%TO.N,unconnected-(J5-Pin_1-Pad1)*%
X102705000Y-128586250D03*
%TD*%
D17*
%TO.P,D1,1,K*%
%TO.N,Net-(D1-K)*%
X70920000Y-116315000D03*
D18*
%TO.P,D1,2,A*%
%TO.N,+15V*%
X81080000Y-116315000D03*
%TD*%
D16*
%TO.P,J3,1,Pin_1*%
%TO.N,GND*%
X94195000Y-130300000D03*
D15*
%TO.P,J3,2,Pin_2*%
%TO.N,+24V*%
X89195000Y-130300000D03*
%TD*%
D13*
%TO.P,Q4,1,G*%
%TO.N,Net-(Q4-G)*%
X60760000Y-120570000D03*
D14*
%TO.P,Q4,2,D*%
%TO.N,Load-*%
X60760000Y-118030000D03*
%TO.P,Q4,3,S*%
%TO.N,GND*%
X60760000Y-115490000D03*
%TD*%
D23*
%TO.P,U3,1,VCC*%
%TO.N,+15V*%
X79575000Y-111445000D03*
D24*
%TO.P,U3,2,IN*%
%TO.N,in2*%
X79575000Y-108905000D03*
%TO.P,U3,3,COM*%
%TO.N,GND*%
X79575000Y-106365000D03*
%TO.P,U3,4,LO*%
%TO.N,Net-(U3-LO)*%
X79575000Y-103825000D03*
%TO.P,U3,5,NC*%
%TO.N,unconnected-(U3-NC-Pad5)*%
X71955000Y-103825000D03*
%TO.P,U3,6,VS*%
%TO.N,Load-*%
X71955000Y-106365000D03*
%TO.P,U3,7,HO*%
%TO.N,Net-(U3-HO)*%
X71955000Y-108905000D03*
%TO.P,U3,8,VB*%
%TO.N,Net-(D1-K)*%
X71955000Y-111445000D03*
%TD*%
D27*
%TO.P,C7,2*%
%TO.N,Net-(U4-FILTER)*%
X66250000Y-70475000D03*
%TO.P,C7,1*%
%TO.N,GNDS*%
X66250000Y-67525000D03*
%TD*%
D11*
%TO.P,R13,2*%
%TO.N,Net-(R13-Pad2)*%
X102017500Y-71480000D03*
%TO.P,R13,1*%
%TO.N,pwm1*%
X103842500Y-71480000D03*
%TD*%
D28*
%TO.P,R5,2*%
%TO.N,Net-(R5-Pad2)*%
X103692500Y-74390000D03*
%TO.P,R5,1*%
%TO.N,pwm2*%
X101867500Y-74390000D03*
%TD*%
D29*
%TO.N,+15V*%
X89630000Y-111490000D03*
%TO.N,in2*%
X82760000Y-108290000D03*
%TO.N,in1*%
X83230000Y-81880000D03*
X86250000Y-67180000D03*
%TO.N,+15V*%
X91870000Y-72510000D03*
D30*
%TO.N,GNDS*%
X105590000Y-62490000D03*
%TO.N,Net-(R13-Pad2)*%
X100420000Y-69790000D03*
%TO.N,Net-(R5-Pad2)*%
X101360000Y-81410000D03*
D31*
%TO.N,Net-(J1-Pin_2)*%
X78650000Y-69860000D03*
%TO.N,Load-*%
X55330000Y-79480000D03*
%TD*%
D32*
%TO.N,in2*%
X82760000Y-108290000D02*
X82860000Y-108270000D01*
X85850000Y-105250000D02*
X82860000Y-108240000D01*
X85850000Y-80450000D02*
X85850000Y-105250000D01*
X82860000Y-108240000D02*
X82760000Y-108290000D01*
X87650000Y-78650000D02*
X85850000Y-80450000D01*
X89140000Y-78650000D02*
X87650000Y-78650000D01*
%TO.N,in1*%
X83880000Y-81230000D02*
X83230000Y-81880000D01*
X86250000Y-67180000D02*
X83880000Y-69550000D01*
X83880000Y-69550000D02*
X83880000Y-81230000D01*
%TO.N,+15V*%
X91870000Y-72510000D02*
X91850000Y-83670000D01*
X91850000Y-72490000D02*
X91870000Y-72510000D01*
X91870000Y-72470000D02*
X91850000Y-72490000D01*
D33*
%TO.N,GNDS*%
X105590000Y-64741250D02*
X105245000Y-65086250D01*
X105590000Y-62490000D02*
X105590000Y-64741250D01*
%TO.N,pwm2*%
X99270000Y-66580000D02*
X100763750Y-65086250D01*
X100763750Y-65086250D02*
X102705000Y-65086250D01*
X101867500Y-74390000D02*
X100100000Y-74390000D01*
X100100000Y-74390000D02*
X99270000Y-73560000D01*
X99270000Y-73560000D02*
X99270000Y-66580000D01*
%TO.N,Net-(R5-Pad2)*%
X103692500Y-79107500D02*
X101390000Y-81410000D01*
X103692500Y-74390000D02*
X103692500Y-79107500D01*
%TO.N,pwm1*%
X103842500Y-70132500D02*
X102705000Y-68995000D01*
X103842500Y-71480000D02*
X103842500Y-70132500D01*
X102705000Y-68995000D02*
X102705000Y-67626250D01*
%TO.N,Net-(R13-Pad2)*%
X100420000Y-70920000D02*
X100980000Y-71480000D01*
X100980000Y-71480000D02*
X102017500Y-71480000D01*
X100420000Y-69790000D02*
X100420000Y-70920000D01*
%TO.N,pwm1*%
X102532500Y-67798750D02*
X102705000Y-67626250D01*
%TO.N,Net-(R5-Pad2)*%
X101360000Y-81440000D02*
X101390000Y-81410000D01*
X101360000Y-81410000D02*
X101360000Y-81440000D01*
X101390000Y-81410000D02*
X101360000Y-81410000D01*
D34*
%TO.N,Net-(J1-Pin_2)*%
X77190000Y-72730000D02*
X74010000Y-72730000D01*
X78650000Y-71270000D02*
X77190000Y-72730000D01*
X78650000Y-69860000D02*
X78650000Y-71270000D01*
%TO.N,Load-*%
X71560000Y-74270000D02*
X71560000Y-70840000D01*
X72130000Y-70270000D02*
X73820000Y-70270000D01*
X67770000Y-78060000D02*
X71560000Y-74270000D01*
X56750000Y-78060000D02*
X67770000Y-78060000D01*
X71560000Y-70840000D02*
X72130000Y-70270000D01*
X55330000Y-79480000D02*
X56750000Y-78060000D01*
D33*
%TO.N,+5V*%
X62245000Y-63505000D02*
X62245000Y-65086250D01*
X61460000Y-62720000D02*
X62245000Y-63505000D01*
X58260000Y-62720000D02*
X61460000Y-62720000D01*
X61600000Y-76080000D02*
X57690000Y-72170000D01*
X62190000Y-76080000D02*
X61600000Y-76080000D01*
X57690000Y-63290000D02*
X58260000Y-62720000D01*
X67130000Y-76100000D02*
X62210000Y-76100000D01*
X57690000Y-72170000D02*
X57690000Y-63290000D01*
X68775000Y-74455000D02*
X67130000Y-76100000D01*
X68775000Y-73415000D02*
X68775000Y-74455000D01*
X62210000Y-76100000D02*
X62190000Y-76080000D01*
%TO.N,iout*%
X62245000Y-74265000D02*
X62245000Y-70166250D01*
X66230000Y-74742500D02*
X62722500Y-74742500D01*
X62722500Y-74742500D02*
X62245000Y-74265000D01*
%TO.N,GNDS*%
X68575000Y-69605000D02*
X66745000Y-67775000D01*
X66745000Y-67775000D02*
X66035000Y-67775000D01*
X68775000Y-69605000D02*
X68575000Y-69605000D01*
%TO.N,Net-(U4-VIOUT)*%
X67002500Y-72145000D02*
X66230000Y-72917500D01*
X68775000Y-72145000D02*
X67002500Y-72145000D01*
%TO.N,GNDS*%
X64510000Y-67766250D02*
X64370000Y-67626250D01*
X64510000Y-72497500D02*
X64510000Y-67766250D01*
X64370000Y-67626250D02*
X65060000Y-67626250D01*
X65060000Y-67626250D02*
X65921250Y-67626250D01*
X62245000Y-67626250D02*
X65060000Y-67626250D01*
%TO.N,Net-(U4-FILTER)*%
X68775000Y-70875000D02*
X65650000Y-70875000D01*
D32*
%TO.N,+15V*%
X89140000Y-83730000D02*
X91790000Y-83730000D01*
X98100000Y-117215000D02*
X98100000Y-113530000D01*
X91790000Y-83730000D02*
X91850000Y-83670000D01*
X98100000Y-113530000D02*
X94000000Y-109430000D01*
X91850000Y-83670000D02*
X91850000Y-109430000D01*
X94000000Y-109430000D02*
X91850000Y-109430000D01*
X91850000Y-109430000D02*
X89835000Y-111445000D01*
D35*
%TO.N,Load+*%
X64948000Y-93202000D02*
X64948000Y-82998000D01*
X64490000Y-82540000D02*
X63750000Y-81800000D01*
X63750000Y-81800000D02*
X60615000Y-81800000D01*
X62600000Y-95550000D02*
X64948000Y-93202000D01*
X60585000Y-95550000D02*
X62600000Y-95550000D01*
X64948000Y-82998000D02*
X64490000Y-82540000D01*
%TO.N,+24V*%
X60732800Y-107107600D02*
X63417600Y-107107600D01*
X63424000Y-124236000D02*
X67440000Y-120220000D01*
X57408000Y-84340000D02*
X55296000Y-86452000D01*
X65970000Y-118750000D02*
X67440000Y-120220000D01*
X60615000Y-84340000D02*
X57408000Y-84340000D01*
X63417600Y-107107600D02*
X65970000Y-109660000D01*
X65970000Y-109660000D02*
X65970000Y-118750000D01*
X55296000Y-86452000D02*
X55296000Y-86960000D01*
X67440000Y-120220000D02*
X90015000Y-120220000D01*
X54620000Y-87636000D02*
X54620000Y-120320000D01*
X55296000Y-86960000D02*
X54620000Y-87636000D01*
X90015000Y-120220000D02*
X93020000Y-117215000D01*
X58598000Y-124298000D02*
X63424000Y-124298000D01*
X54620000Y-120320000D02*
X58598000Y-124298000D01*
X63424000Y-124298000D02*
X63424000Y-124236000D01*
%TO.N,GND*%
X60760000Y-115490000D02*
X57582000Y-112312000D01*
X57582000Y-112312000D02*
X57582000Y-94834000D01*
X57582000Y-94834000D02*
X59406000Y-93010000D01*
X59406000Y-93010000D02*
X60585000Y-93010000D01*
D32*
%TO.N,in1*%
X86280000Y-67150000D02*
X86250000Y-67180000D01*
%TD*%
%TA.AperFunction,NonConductor*%
G36*
X63144149Y-83320185D02*
G01*
X63164791Y-83336819D01*
X63411181Y-83583209D01*
X63444666Y-83644532D01*
X63447500Y-83670890D01*
X63447500Y-92529109D01*
X63427815Y-92596148D01*
X63411181Y-92616790D01*
X62032370Y-93995601D01*
X61971047Y-94029086D01*
X61901355Y-94024102D01*
X61845422Y-93982230D01*
X61821005Y-93916766D01*
X61835857Y-93848493D01*
X61842815Y-93837888D01*
X61842673Y-93837795D01*
X61845469Y-93833514D01*
X61845474Y-93833509D01*
X61963828Y-93614810D01*
X62044571Y-93379614D01*
X62085500Y-93134335D01*
X62085500Y-92885665D01*
X62044571Y-92640386D01*
X61963828Y-92405190D01*
X61845474Y-92186491D01*
X61692738Y-91990256D01*
X61509785Y-91821836D01*
X61509782Y-91821833D01*
X61301606Y-91685826D01*
X61073881Y-91585936D01*
X60832824Y-91524892D01*
X60832813Y-91524890D01*
X60647077Y-91509500D01*
X60647067Y-91509500D01*
X59503019Y-91509500D01*
X59495347Y-91509024D01*
X59468221Y-91505643D01*
X59468219Y-91505643D01*
X59416346Y-91507788D01*
X59376244Y-91509447D01*
X59373685Y-91509500D01*
X59343933Y-91509500D01*
X59335151Y-91510227D01*
X59314274Y-91511957D01*
X59311719Y-91512115D01*
X59219765Y-91515918D01*
X59219751Y-91515920D01*
X59193017Y-91521526D01*
X59185409Y-91522635D01*
X59158185Y-91524890D01*
X59158174Y-91524892D01*
X59068973Y-91547480D01*
X59066479Y-91548058D01*
X58976391Y-91566948D01*
X58976375Y-91566953D01*
X58950920Y-91576886D01*
X58943599Y-91579231D01*
X58917119Y-91585937D01*
X58917108Y-91585941D01*
X58832850Y-91622900D01*
X58830484Y-91623880D01*
X58744721Y-91657346D01*
X58721247Y-91671333D01*
X58714413Y-91674851D01*
X58689388Y-91685829D01*
X58689386Y-91685830D01*
X58612338Y-91736168D01*
X58610165Y-91737524D01*
X58531104Y-91784635D01*
X58510250Y-91802297D01*
X58504087Y-91806892D01*
X58481216Y-91821834D01*
X58413507Y-91884164D01*
X58411589Y-91885858D01*
X58388865Y-91905106D01*
X58367846Y-91926125D01*
X58365998Y-91927898D01*
X58298262Y-91990256D01*
X58298256Y-91990262D01*
X58281472Y-92011826D01*
X58276383Y-92017589D01*
X56589588Y-93704382D01*
X56583827Y-93709471D01*
X56562255Y-93726262D01*
X56499909Y-93793986D01*
X56498136Y-93795834D01*
X56477104Y-93816865D01*
X56477094Y-93816877D01*
X56457861Y-93839586D01*
X56456166Y-93841506D01*
X56393837Y-93909212D01*
X56393835Y-93909215D01*
X56378892Y-93932087D01*
X56374297Y-93938250D01*
X56356634Y-93959105D01*
X56356633Y-93959106D01*
X56351022Y-93968524D01*
X56299794Y-94016038D01*
X56231012Y-94028313D01*
X56166511Y-94001453D01*
X56126772Y-93943985D01*
X56120500Y-93905049D01*
X56120500Y-88308888D01*
X56140185Y-88241849D01*
X56156810Y-88221216D01*
X56288426Y-88089599D01*
X56294163Y-88084534D01*
X56315744Y-88067738D01*
X56378138Y-87999958D01*
X56379841Y-87998184D01*
X56400901Y-87977126D01*
X56420132Y-87954419D01*
X56421830Y-87952496D01*
X56484164Y-87884785D01*
X56499117Y-87861894D01*
X56503697Y-87855754D01*
X56521366Y-87834894D01*
X56568516Y-87755763D01*
X56569795Y-87753715D01*
X56620173Y-87676607D01*
X56631148Y-87651584D01*
X56634668Y-87644747D01*
X56648655Y-87621274D01*
X56682121Y-87535506D01*
X56683077Y-87533197D01*
X56720063Y-87448881D01*
X56726774Y-87422374D01*
X56729112Y-87415077D01*
X56739049Y-87389614D01*
X56757938Y-87299523D01*
X56758507Y-87297067D01*
X56758660Y-87296465D01*
X56781108Y-87207821D01*
X56783364Y-87180583D01*
X56784471Y-87172980D01*
X56790080Y-87146237D01*
X56790940Y-87125431D01*
X56813376Y-87059263D01*
X56827147Y-87042879D01*
X57993208Y-85876819D01*
X58054532Y-85843334D01*
X58080890Y-85840500D01*
X58990500Y-85840500D01*
X59057539Y-85860185D01*
X59103294Y-85912989D01*
X59114500Y-85964500D01*
X59114500Y-87880370D01*
X59114501Y-87880376D01*
X59120908Y-87939983D01*
X59171202Y-88074828D01*
X59171206Y-88074835D01*
X59257452Y-88190044D01*
X59257455Y-88190047D01*
X59372664Y-88276293D01*
X59372671Y-88276297D01*
X59507517Y-88326591D01*
X59507516Y-88326591D01*
X59514444Y-88327335D01*
X59567127Y-88333000D01*
X61662872Y-88332999D01*
X61722483Y-88326591D01*
X61857331Y-88276296D01*
X61972546Y-88190046D01*
X62058796Y-88074831D01*
X62109091Y-87939983D01*
X62115500Y-87880373D01*
X62115499Y-85879628D01*
X62109091Y-85820017D01*
X62098166Y-85790726D01*
X62058797Y-85685171D01*
X62058793Y-85685164D01*
X61972547Y-85569955D01*
X61972544Y-85569952D01*
X61857335Y-85483706D01*
X61857328Y-85483702D01*
X61836524Y-85475943D01*
X61780590Y-85434072D01*
X61756173Y-85368607D01*
X61771025Y-85300334D01*
X61781999Y-85283605D01*
X61875474Y-85163509D01*
X61993828Y-84944810D01*
X62074571Y-84709614D01*
X62115500Y-84464335D01*
X62115500Y-84215665D01*
X62074571Y-83970386D01*
X61993828Y-83735190D01*
X61875474Y-83516491D01*
X61863152Y-83500659D01*
X61837511Y-83435668D01*
X61851078Y-83367128D01*
X61899546Y-83316803D01*
X61961007Y-83300500D01*
X63077110Y-83300500D01*
X63144149Y-83320185D01*
G37*
%TD.AperFunction*%
%TA.AperFunction,NonConductor*%
G36*
X59287703Y-96322236D02*
G01*
X59315555Y-96356933D01*
X59324519Y-96373499D01*
X59324523Y-96373505D01*
X59324525Y-96373508D01*
X59324526Y-96373509D01*
X59417996Y-96493599D01*
X59443638Y-96558593D01*
X59430071Y-96627133D01*
X59381603Y-96677458D01*
X59363477Y-96685942D01*
X59342673Y-96693701D01*
X59342669Y-96693703D01*
X59280811Y-96740011D01*
X59215347Y-96764428D01*
X59147074Y-96749577D01*
X59097668Y-96700172D01*
X59082500Y-96640744D01*
X59082500Y-96415949D01*
X59102185Y-96348910D01*
X59154989Y-96303155D01*
X59224147Y-96293211D01*
X59287703Y-96322236D01*
G37*
%TD.AperFunction*%
%TA.AperFunction,NonConductor*%
G36*
X59287703Y-105023089D02*
G01*
X59323781Y-105076539D01*
X59350118Y-105153256D01*
X59350121Y-105153265D01*
X59464729Y-105365041D01*
X59480557Y-105385376D01*
X59612629Y-105555063D01*
X59789790Y-105718151D01*
X59794964Y-105721531D01*
X59840321Y-105774674D01*
X59849746Y-105843905D01*
X59820246Y-105907242D01*
X59811127Y-105916569D01*
X59625065Y-106087852D01*
X59625062Y-106087855D01*
X59472324Y-106284093D01*
X59353972Y-106502788D01*
X59353969Y-106502797D01*
X59323781Y-106590731D01*
X59283395Y-106647747D01*
X59218596Y-106673877D01*
X59149956Y-106660825D01*
X59099268Y-106612736D01*
X59082500Y-106550468D01*
X59082500Y-105116802D01*
X59102185Y-105049763D01*
X59154989Y-105004008D01*
X59224147Y-104994064D01*
X59287703Y-105023089D01*
G37*
%TD.AperFunction*%
%TA.AperFunction,NonConductor*%
G36*
X59287703Y-107571018D02*
G01*
X59323781Y-107624468D01*
X59353969Y-107712402D01*
X59353972Y-107712411D01*
X59472324Y-107931106D01*
X59565796Y-108051199D01*
X59591438Y-108116193D01*
X59577871Y-108184733D01*
X59529403Y-108235058D01*
X59511277Y-108243542D01*
X59490473Y-108251301D01*
X59490464Y-108251306D01*
X59375255Y-108337552D01*
X59305766Y-108430377D01*
X59249832Y-108472247D01*
X59180140Y-108477231D01*
X59118818Y-108443745D01*
X59085333Y-108382421D01*
X59082500Y-108356065D01*
X59082500Y-107664731D01*
X59102185Y-107597692D01*
X59154989Y-107551937D01*
X59224147Y-107541993D01*
X59287703Y-107571018D01*
G37*
%TD.AperFunction*%
%TA.AperFunction,NonConductor*%
G36*
X62811749Y-108627785D02*
G01*
X62832391Y-108644418D01*
X64433182Y-110245210D01*
X64466666Y-110306531D01*
X64469500Y-110332889D01*
X64469499Y-118652980D01*
X64469023Y-118660653D01*
X64465643Y-118687782D01*
X64469446Y-118779752D01*
X64469499Y-118782312D01*
X64469499Y-118812059D01*
X64469500Y-118812066D01*
X64471956Y-118841723D01*
X64472115Y-118844279D01*
X64475918Y-118936233D01*
X64481526Y-118962983D01*
X64482635Y-118970590D01*
X64484891Y-118997818D01*
X64484891Y-118997822D01*
X64507485Y-119087044D01*
X64508063Y-119089539D01*
X64526949Y-119179608D01*
X64526951Y-119179616D01*
X64536882Y-119205067D01*
X64539227Y-119212387D01*
X64545937Y-119238881D01*
X64555180Y-119259954D01*
X64582907Y-119323167D01*
X64583887Y-119325534D01*
X64617344Y-119411275D01*
X64631332Y-119434750D01*
X64634852Y-119441588D01*
X64645824Y-119466604D01*
X64674187Y-119510016D01*
X64696181Y-119543682D01*
X64697496Y-119545787D01*
X64744634Y-119624894D01*
X64762296Y-119645747D01*
X64766887Y-119651904D01*
X64781836Y-119674785D01*
X64781837Y-119674786D01*
X64844162Y-119742489D01*
X64845858Y-119744410D01*
X64865103Y-119767132D01*
X64875618Y-119777646D01*
X64886156Y-119788184D01*
X64887908Y-119790010D01*
X64950252Y-119857734D01*
X64950257Y-119857739D01*
X64971822Y-119874524D01*
X64977587Y-119879615D01*
X65230291Y-120132319D01*
X65263776Y-120193642D01*
X65258792Y-120263334D01*
X65230291Y-120307681D01*
X62776791Y-122761181D01*
X62715468Y-122794666D01*
X62689110Y-122797500D01*
X59270889Y-122797500D01*
X59203850Y-122777815D01*
X59183208Y-122761181D01*
X56156819Y-119734791D01*
X56123334Y-119673468D01*
X56120500Y-119647110D01*
X56120500Y-116454820D01*
X56120500Y-113240946D01*
X56140184Y-113173911D01*
X56192988Y-113128156D01*
X56262146Y-113118212D01*
X56325702Y-113147237D01*
X56351019Y-113177472D01*
X56356633Y-113186893D01*
X56356634Y-113186894D01*
X56374296Y-113207747D01*
X56378887Y-113213904D01*
X56393836Y-113236785D01*
X56393837Y-113236786D01*
X56456162Y-113304489D01*
X56457858Y-113306410D01*
X56477103Y-113329132D01*
X56487618Y-113339646D01*
X56498156Y-113350184D01*
X56499908Y-113352010D01*
X56562252Y-113419734D01*
X56562257Y-113419739D01*
X56583822Y-113436524D01*
X56589587Y-113441615D01*
X59742865Y-116594894D01*
X59742871Y-116594899D01*
X59742874Y-116594902D01*
X59837914Y-116675396D01*
X59876348Y-116733744D01*
X59877136Y-116803609D01*
X59840026Y-116862809D01*
X59825601Y-116873822D01*
X59816992Y-116879447D01*
X59764767Y-116927524D01*
X59639829Y-117042537D01*
X59596305Y-117098456D01*
X59491929Y-117232558D01*
X59377321Y-117444334D01*
X59377318Y-117444343D01*
X59299134Y-117672083D01*
X59259500Y-117909602D01*
X59259500Y-118150397D01*
X59299134Y-118387916D01*
X59377318Y-118615656D01*
X59377321Y-118615665D01*
X59491929Y-118827441D01*
X59491933Y-118827447D01*
X59602832Y-118969930D01*
X59628475Y-119034924D01*
X59614908Y-119103464D01*
X59566440Y-119153788D01*
X59548313Y-119162273D01*
X59517675Y-119173700D01*
X59517664Y-119173706D01*
X59402455Y-119259952D01*
X59402452Y-119259955D01*
X59316206Y-119375164D01*
X59316202Y-119375171D01*
X59265908Y-119510017D01*
X59259501Y-119569616D01*
X59259501Y-119569623D01*
X59259500Y-119569635D01*
X59259500Y-121570370D01*
X59259501Y-121570376D01*
X59265908Y-121629983D01*
X59316202Y-121764828D01*
X59316206Y-121764835D01*
X59402452Y-121880044D01*
X59402455Y-121880047D01*
X59517664Y-121966293D01*
X59517671Y-121966297D01*
X59652517Y-122016591D01*
X59652516Y-122016591D01*
X59659444Y-122017335D01*
X59712127Y-122023000D01*
X61807872Y-122022999D01*
X61867483Y-122016591D01*
X62002331Y-121966296D01*
X62117546Y-121880046D01*
X62203796Y-121764831D01*
X62254091Y-121629983D01*
X62260500Y-121570373D01*
X62260499Y-119569628D01*
X62254091Y-119510017D01*
X62226018Y-119434750D01*
X62203797Y-119375171D01*
X62203793Y-119375164D01*
X62117547Y-119259955D01*
X62117544Y-119259952D01*
X62002335Y-119173706D01*
X62002328Y-119173702D01*
X61971687Y-119162274D01*
X61915753Y-119120403D01*
X61891336Y-119054938D01*
X61906188Y-118986665D01*
X61917161Y-118969937D01*
X62028072Y-118827439D01*
X62142679Y-118615664D01*
X62220866Y-118387913D01*
X62260500Y-118150399D01*
X62260500Y-117909601D01*
X62220866Y-117672087D01*
X62215800Y-117657331D01*
X62169507Y-117522483D01*
X62142679Y-117444336D01*
X62028072Y-117232561D01*
X61880171Y-117042537D01*
X61755237Y-116927527D01*
X61703005Y-116879444D01*
X61694750Y-116874051D01*
X61649395Y-116820903D01*
X61639974Y-116751671D01*
X61669478Y-116688337D01*
X61690514Y-116669334D01*
X61733096Y-116638932D01*
X61908932Y-116463096D01*
X62053429Y-116260716D01*
X62162644Y-116037314D01*
X62206692Y-115889359D01*
X62207450Y-115886989D01*
X62220866Y-115847913D01*
X62222572Y-115837681D01*
X62224305Y-115830195D01*
X62233597Y-115798987D01*
X62233599Y-115798981D01*
X62244129Y-115714500D01*
X62246924Y-115692078D01*
X62247293Y-115689541D01*
X62260499Y-115610402D01*
X62260500Y-115610399D01*
X62260500Y-115587018D01*
X62260977Y-115579342D01*
X62264357Y-115552220D01*
X62264357Y-115552219D01*
X62260553Y-115460246D01*
X62260500Y-115457683D01*
X62260500Y-115369599D01*
X62259378Y-115362882D01*
X62256217Y-115343937D01*
X62255427Y-115336308D01*
X62254081Y-115303763D01*
X62231964Y-115198288D01*
X62231497Y-115195801D01*
X62220867Y-115132093D01*
X62220865Y-115132084D01*
X62214969Y-115114910D01*
X62212926Y-115107491D01*
X62203049Y-115060383D01*
X62168822Y-114972669D01*
X62146944Y-114916600D01*
X62146072Y-114914219D01*
X62145295Y-114911957D01*
X62142679Y-114904336D01*
X62142653Y-114904289D01*
X62139424Y-114897329D01*
X62112656Y-114828727D01*
X62041643Y-114709551D01*
X61985372Y-114615115D01*
X61985368Y-114615110D01*
X61985366Y-114615106D01*
X61864902Y-114472874D01*
X61864899Y-114472871D01*
X61864894Y-114472865D01*
X59118819Y-111726790D01*
X59085334Y-111665467D01*
X59082500Y-111639109D01*
X59082500Y-110939134D01*
X59102185Y-110872095D01*
X59154989Y-110826340D01*
X59224147Y-110816396D01*
X59287703Y-110845421D01*
X59305766Y-110864823D01*
X59375252Y-110957644D01*
X59375255Y-110957647D01*
X59490464Y-111043893D01*
X59490471Y-111043897D01*
X59625317Y-111094191D01*
X59625316Y-111094191D01*
X59632244Y-111094935D01*
X59684927Y-111100600D01*
X61780672Y-111100599D01*
X61840283Y-111094191D01*
X61975131Y-111043896D01*
X62090346Y-110957646D01*
X62176596Y-110842431D01*
X62226891Y-110707583D01*
X62233300Y-110647973D01*
X62233299Y-108732099D01*
X62252984Y-108665061D01*
X62305787Y-108619306D01*
X62357299Y-108608100D01*
X62744710Y-108608100D01*
X62811749Y-108627785D01*
G37*
%TD.AperFunction*%
%TA.AperFunction,NonConductor*%
G36*
X75397169Y-59350185D02*
G01*
X75442924Y-59402989D01*
X75452868Y-59472147D01*
X75423843Y-59535703D01*
X75406292Y-59552353D01*
X75217058Y-59699639D01*
X75217055Y-59699642D01*
X75049752Y-59881382D01*
X74914650Y-60088172D01*
X74815428Y-60314376D01*
X74754789Y-60553834D01*
X74739500Y-60738343D01*
X74739500Y-62841656D01*
X74754789Y-63026165D01*
X74754789Y-63026168D01*
X74754790Y-63026169D01*
X74815428Y-63265623D01*
X74914652Y-63491831D01*
X75049755Y-63698621D01*
X75217052Y-63880355D01*
X75217055Y-63880357D01*
X75217058Y-63880360D01*
X75411971Y-64032067D01*
X75411977Y-64032071D01*
X75411980Y-64032073D01*
X75629221Y-64149638D01*
X75669632Y-64163511D01*
X75862846Y-64229842D01*
X75862848Y-64229842D01*
X75862850Y-64229843D01*
X76106494Y-64270500D01*
X76106495Y-64270500D01*
X76353505Y-64270500D01*
X76353506Y-64270500D01*
X76597150Y-64229843D01*
X76830779Y-64149638D01*
X77048020Y-64032073D01*
X77073380Y-64012335D01*
X77202014Y-63912215D01*
X77242948Y-63880355D01*
X77410245Y-63698621D01*
X77545348Y-63491831D01*
X77644572Y-63265623D01*
X77705210Y-63026169D01*
X77720500Y-62841645D01*
X77720500Y-60738355D01*
X77705210Y-60553831D01*
X77644572Y-60314377D01*
X77545348Y-60088169D01*
X77410245Y-59881379D01*
X77242948Y-59699645D01*
X77242943Y-59699641D01*
X77242941Y-59699639D01*
X77053708Y-59552353D01*
X77012895Y-59495643D01*
X77009220Y-59425870D01*
X77043852Y-59365187D01*
X77105793Y-59332860D01*
X77129870Y-59330500D01*
X93011790Y-59330500D01*
X93078829Y-59350185D01*
X93124584Y-59402989D01*
X93135771Y-59456681D01*
X92923909Y-71498272D01*
X92903048Y-71564955D01*
X92849447Y-71609774D01*
X92780125Y-71618499D01*
X92717089Y-71588361D01*
X92712247Y-71583772D01*
X92676881Y-71548406D01*
X92676877Y-71548402D01*
X92522282Y-71440153D01*
X92497638Y-71422897D01*
X92360133Y-71358778D01*
X92299330Y-71330425D01*
X92299326Y-71330424D01*
X92299322Y-71330422D01*
X92087977Y-71273793D01*
X91870002Y-71254723D01*
X91869998Y-71254723D01*
X91724682Y-71267436D01*
X91652023Y-71273793D01*
X91652020Y-71273793D01*
X91440677Y-71330422D01*
X91440668Y-71330426D01*
X91242361Y-71422898D01*
X91242357Y-71422900D01*
X91063121Y-71548402D01*
X90908402Y-71703121D01*
X90782900Y-71882357D01*
X90782897Y-71882363D01*
X90761967Y-71927247D01*
X90715794Y-71979685D01*
X90648600Y-71998836D01*
X90581719Y-71978619D01*
X90536386Y-71925453D01*
X90529813Y-71906939D01*
X90496739Y-71783504D01*
X90400568Y-71577266D01*
X90270047Y-71390861D01*
X90270045Y-71390858D01*
X90109141Y-71229954D01*
X89922734Y-71099432D01*
X89922728Y-71099429D01*
X89895038Y-71086517D01*
X89864724Y-71072381D01*
X89812285Y-71026210D01*
X89793133Y-70959017D01*
X89813348Y-70892135D01*
X89864725Y-70847618D01*
X89922734Y-70820568D01*
X90109139Y-70690047D01*
X90270047Y-70529139D01*
X90400568Y-70342734D01*
X90496739Y-70136496D01*
X90555635Y-69916692D01*
X90575468Y-69690000D01*
X90555635Y-69463308D01*
X90496739Y-69243504D01*
X90400568Y-69037266D01*
X90270047Y-68850861D01*
X90270045Y-68850858D01*
X90109141Y-68689954D01*
X89922734Y-68559432D01*
X89922728Y-68559429D01*
X89895038Y-68546517D01*
X89864724Y-68532381D01*
X89812285Y-68486210D01*
X89793133Y-68419017D01*
X89813348Y-68352135D01*
X89864725Y-68307618D01*
X89922734Y-68280568D01*
X90109139Y-68150047D01*
X90270047Y-67989139D01*
X90400568Y-67802734D01*
X90496739Y-67596496D01*
X90555635Y-67376692D01*
X90575468Y-67150000D01*
X90555635Y-66923308D01*
X90509377Y-66750670D01*
X90496741Y-66703511D01*
X90496738Y-66703502D01*
X90442764Y-66587755D01*
X90400568Y-66497266D01*
X90270047Y-66310861D01*
X90270045Y-66310858D01*
X90109141Y-66149954D01*
X89922734Y-66019432D01*
X89922728Y-66019429D01*
X89881976Y-66000426D01*
X89864724Y-65992381D01*
X89812285Y-65946210D01*
X89793133Y-65879017D01*
X89813348Y-65812135D01*
X89864725Y-65767618D01*
X89922734Y-65740568D01*
X90109139Y-65610047D01*
X90270047Y-65449139D01*
X90400568Y-65262734D01*
X90496739Y-65056496D01*
X90555635Y-64836692D01*
X90575468Y-64610000D01*
X90555635Y-64383308D01*
X90496739Y-64163504D01*
X90400568Y-63957266D01*
X90270047Y-63770861D01*
X90270045Y-63770858D01*
X90109141Y-63609954D01*
X89922734Y-63479432D01*
X89922732Y-63479431D01*
X89716497Y-63383261D01*
X89716488Y-63383258D01*
X89496697Y-63324366D01*
X89496693Y-63324365D01*
X89496692Y-63324365D01*
X89496691Y-63324364D01*
X89496686Y-63324364D01*
X89270002Y-63304532D01*
X89269998Y-63304532D01*
X89043313Y-63324364D01*
X89043302Y-63324366D01*
X88823511Y-63383258D01*
X88823502Y-63383261D01*
X88617267Y-63479431D01*
X88617265Y-63479432D01*
X88430858Y-63609954D01*
X88269954Y-63770858D01*
X88139432Y-63957265D01*
X88139431Y-63957267D01*
X88043261Y-64163502D01*
X88043258Y-64163511D01*
X87984366Y-64383302D01*
X87984364Y-64383313D01*
X87964532Y-64609998D01*
X87964532Y-64610001D01*
X87984364Y-64836686D01*
X87984366Y-64836697D01*
X88043258Y-65056488D01*
X88043261Y-65056497D01*
X88139431Y-65262732D01*
X88139432Y-65262734D01*
X88269954Y-65449141D01*
X88430858Y-65610045D01*
X88430861Y-65610047D01*
X88617266Y-65740568D01*
X88675275Y-65767618D01*
X88727714Y-65813791D01*
X88746866Y-65880984D01*
X88726650Y-65947865D01*
X88675275Y-65992382D01*
X88617267Y-66019431D01*
X88617265Y-66019432D01*
X88430858Y-66149954D01*
X88269954Y-66310858D01*
X88139432Y-66497265D01*
X88139431Y-66497267D01*
X88043261Y-66703502D01*
X88043258Y-66703511D01*
X87984366Y-66923302D01*
X87984364Y-66923313D01*
X87964532Y-67149998D01*
X87964532Y-67150001D01*
X87984364Y-67376686D01*
X87984366Y-67376697D01*
X88043258Y-67596488D01*
X88043261Y-67596497D01*
X88139431Y-67802732D01*
X88139432Y-67802734D01*
X88269954Y-67989141D01*
X88430858Y-68150045D01*
X88430861Y-68150047D01*
X88617266Y-68280568D01*
X88675275Y-68307618D01*
X88727714Y-68353791D01*
X88746866Y-68420984D01*
X88726650Y-68487865D01*
X88675275Y-68532382D01*
X88617267Y-68559431D01*
X88617265Y-68559432D01*
X88430858Y-68689954D01*
X88269954Y-68850858D01*
X88139432Y-69037265D01*
X88139431Y-69037267D01*
X88043261Y-69243502D01*
X88043258Y-69243511D01*
X87984366Y-69463302D01*
X87984364Y-69463313D01*
X87964532Y-69689998D01*
X87964532Y-69690001D01*
X87984364Y-69916686D01*
X87984366Y-69916697D01*
X88043258Y-70136488D01*
X88043261Y-70136497D01*
X88139431Y-70342732D01*
X88139432Y-70342734D01*
X88269954Y-70529141D01*
X88430858Y-70690045D01*
X88430861Y-70690047D01*
X88617266Y-70820568D01*
X88675275Y-70847618D01*
X88727714Y-70893791D01*
X88746866Y-70960984D01*
X88726650Y-71027865D01*
X88675275Y-71072381D01*
X88658272Y-71080310D01*
X88617267Y-71099431D01*
X88617265Y-71099432D01*
X88430858Y-71229954D01*
X88269954Y-71390858D01*
X88139432Y-71577265D01*
X88139431Y-71577267D01*
X88043261Y-71783502D01*
X88043258Y-71783511D01*
X87984366Y-72003302D01*
X87984364Y-72003313D01*
X87964532Y-72229998D01*
X87964532Y-72230001D01*
X87984364Y-72456686D01*
X87984366Y-72456697D01*
X88043258Y-72676488D01*
X88043261Y-72676497D01*
X88139431Y-72882732D01*
X88139432Y-72882734D01*
X88269954Y-73069141D01*
X88430858Y-73230045D01*
X88430861Y-73230047D01*
X88617266Y-73360568D01*
X88823504Y-73456739D01*
X89043308Y-73515635D01*
X89205230Y-73529801D01*
X89269998Y-73535468D01*
X89270000Y-73535468D01*
X89270002Y-73535468D01*
X89326796Y-73530499D01*
X89496692Y-73515635D01*
X89716496Y-73456739D01*
X89922734Y-73360568D01*
X90109139Y-73230047D01*
X90270047Y-73069139D01*
X90400568Y-72882734D01*
X90431037Y-72817392D01*
X90477209Y-72764953D01*
X90544402Y-72745801D01*
X90611284Y-72766017D01*
X90656618Y-72819182D01*
X90663194Y-72837703D01*
X90690423Y-72939325D01*
X90690424Y-72939327D01*
X90690425Y-72939330D01*
X90720862Y-73004602D01*
X90782898Y-73137639D01*
X90782900Y-73137643D01*
X90845659Y-73227272D01*
X90867986Y-73293478D01*
X90868084Y-73298617D01*
X90854954Y-80625849D01*
X90851466Y-82572454D01*
X90851406Y-82605722D01*
X90831601Y-82672726D01*
X90778715Y-82718386D01*
X90727406Y-82729500D01*
X90017588Y-82729500D01*
X89950549Y-82709815D01*
X89946465Y-82707075D01*
X89920852Y-82689141D01*
X89792734Y-82599432D01*
X89734724Y-82572381D01*
X89682285Y-82526210D01*
X89663133Y-82459017D01*
X89683348Y-82392135D01*
X89734725Y-82347618D01*
X89792734Y-82320568D01*
X89979139Y-82190047D01*
X90140047Y-82029139D01*
X90270568Y-81842734D01*
X90366739Y-81636496D01*
X90425635Y-81416692D01*
X90445468Y-81190000D01*
X90425635Y-80963308D01*
X90366739Y-80743504D01*
X90270568Y-80537266D01*
X90140047Y-80350861D01*
X90140045Y-80350858D01*
X89979141Y-80189954D01*
X89792734Y-80059432D01*
X89792728Y-80059429D01*
X89734725Y-80032382D01*
X89682285Y-79986210D01*
X89663133Y-79919017D01*
X89683348Y-79852135D01*
X89734725Y-79807618D01*
X89792734Y-79780568D01*
X89979139Y-79650047D01*
X90140047Y-79489139D01*
X90270568Y-79302734D01*
X90366739Y-79096496D01*
X90425635Y-78876692D01*
X90445468Y-78650000D01*
X90425635Y-78423308D01*
X90366739Y-78203504D01*
X90270568Y-77997266D01*
X90140047Y-77810861D01*
X90140045Y-77810858D01*
X89979141Y-77649954D01*
X89792734Y-77519432D01*
X89792728Y-77519429D01*
X89734725Y-77492382D01*
X89682285Y-77446210D01*
X89663133Y-77379017D01*
X89683348Y-77312135D01*
X89734725Y-77267618D01*
X89792734Y-77240568D01*
X89979139Y-77110047D01*
X90140047Y-76949139D01*
X90270568Y-76762734D01*
X90366739Y-76556496D01*
X90425635Y-76336692D01*
X90445468Y-76110000D01*
X90425635Y-75883308D01*
X90366739Y-75663504D01*
X90270568Y-75457266D01*
X90140047Y-75270861D01*
X90140045Y-75270858D01*
X89979141Y-75109954D01*
X89792734Y-74979432D01*
X89792732Y-74979431D01*
X89586497Y-74883261D01*
X89586488Y-74883258D01*
X89366697Y-74824366D01*
X89366693Y-74824365D01*
X89366692Y-74824365D01*
X89366691Y-74824364D01*
X89366686Y-74824364D01*
X89140002Y-74804532D01*
X89139998Y-74804532D01*
X88913313Y-74824364D01*
X88913302Y-74824366D01*
X88693511Y-74883258D01*
X88693502Y-74883261D01*
X88487267Y-74979431D01*
X88487265Y-74979432D01*
X88300858Y-75109954D01*
X88139954Y-75270858D01*
X88009432Y-75457265D01*
X88009431Y-75457267D01*
X87913261Y-75663502D01*
X87913258Y-75663511D01*
X87854366Y-75883302D01*
X87854364Y-75883313D01*
X87834532Y-76109998D01*
X87834532Y-76110001D01*
X87854364Y-76336686D01*
X87854366Y-76336697D01*
X87913258Y-76556488D01*
X87913261Y-76556497D01*
X88009431Y-76762732D01*
X88009432Y-76762734D01*
X88139954Y-76949141D01*
X88300858Y-77110045D01*
X88300861Y-77110047D01*
X88487266Y-77240568D01*
X88545275Y-77267618D01*
X88597714Y-77313791D01*
X88616866Y-77380984D01*
X88596650Y-77447865D01*
X88545275Y-77492382D01*
X88487267Y-77519431D01*
X88487265Y-77519432D01*
X88333535Y-77627075D01*
X88267329Y-77649402D01*
X88262412Y-77649500D01*
X87663452Y-77649500D01*
X87661889Y-77649480D01*
X87573636Y-77647244D01*
X87573635Y-77647244D01*
X87573626Y-77647244D01*
X87513263Y-77658064D01*
X87508597Y-77658718D01*
X87447564Y-77664925D01*
X87414780Y-77675210D01*
X87407153Y-77677082D01*
X87373349Y-77683141D01*
X87316381Y-77705895D01*
X87311945Y-77707474D01*
X87253414Y-77725840D01*
X87253410Y-77725842D01*
X87223378Y-77742510D01*
X87216284Y-77745879D01*
X87184382Y-77758623D01*
X87184377Y-77758625D01*
X87133156Y-77792381D01*
X87129128Y-77794822D01*
X87075501Y-77824588D01*
X87049434Y-77846965D01*
X87043165Y-77851692D01*
X87014484Y-77870595D01*
X87014478Y-77870600D01*
X86971109Y-77913968D01*
X86967655Y-77917169D01*
X86921102Y-77957136D01*
X86900076Y-77984298D01*
X86894885Y-77990192D01*
X85152090Y-79732988D01*
X85150966Y-79734084D01*
X85089933Y-79792102D01*
X85027782Y-79824024D01*
X84958239Y-79817276D01*
X84903383Y-79774002D01*
X84880632Y-79707941D01*
X84880500Y-79702229D01*
X84880500Y-70015781D01*
X84900185Y-69948742D01*
X84916814Y-69928105D01*
X86393036Y-68451882D01*
X86454357Y-68418399D01*
X86462874Y-68417106D01*
X86467969Y-68416207D01*
X86467977Y-68416207D01*
X86679330Y-68359575D01*
X86877639Y-68267102D01*
X87056877Y-68141598D01*
X87211598Y-67986877D01*
X87337102Y-67807639D01*
X87429575Y-67609330D01*
X87486207Y-67397977D01*
X87505277Y-67180000D01*
X87502652Y-67150001D01*
X87492763Y-67036962D01*
X87486207Y-66962023D01*
X87429575Y-66750670D01*
X87337102Y-66552362D01*
X87337100Y-66552359D01*
X87337099Y-66552357D01*
X87211599Y-66373124D01*
X87149333Y-66310858D01*
X87056877Y-66218402D01*
X86877639Y-66092898D01*
X86877640Y-66092898D01*
X86877638Y-66092897D01*
X86743590Y-66030390D01*
X86679330Y-66000425D01*
X86679326Y-66000424D01*
X86679322Y-66000422D01*
X86467977Y-65943793D01*
X86250002Y-65924723D01*
X86249998Y-65924723D01*
X86104681Y-65937436D01*
X86032023Y-65943793D01*
X86032020Y-65943793D01*
X85820677Y-66000422D01*
X85820668Y-66000426D01*
X85622361Y-66092898D01*
X85622357Y-66092900D01*
X85443121Y-66218402D01*
X85288402Y-66373121D01*
X85162900Y-66552357D01*
X85162898Y-66552361D01*
X85070426Y-66750668D01*
X85070423Y-66750674D01*
X85013793Y-66962019D01*
X85012854Y-66967351D01*
X85011235Y-66967065D01*
X84988503Y-67025165D01*
X84978115Y-67036962D01*
X83182090Y-68832988D01*
X83180966Y-68834084D01*
X83116946Y-68894942D01*
X83081899Y-68945294D01*
X83079062Y-68949056D01*
X83040302Y-68996592D01*
X83040299Y-68996597D01*
X83024392Y-69027047D01*
X83020324Y-69033761D01*
X83000702Y-69061954D01*
X82976509Y-69118330D01*
X82974488Y-69122584D01*
X82946091Y-69176951D01*
X82946090Y-69176952D01*
X82936640Y-69209975D01*
X82934007Y-69217371D01*
X82920459Y-69248943D01*
X82908113Y-69309019D01*
X82906990Y-69313595D01*
X82890113Y-69372577D01*
X82890113Y-69372579D01*
X82887503Y-69406841D01*
X82886414Y-69414608D01*
X82880980Y-69441052D01*
X82879500Y-69448258D01*
X82879500Y-69509597D01*
X82879321Y-69514306D01*
X82874662Y-69575474D01*
X82876707Y-69591527D01*
X82879003Y-69609560D01*
X82879500Y-69617388D01*
X82879500Y-80584907D01*
X82859815Y-80651946D01*
X82807011Y-80697701D01*
X82802895Y-80699387D01*
X82602361Y-80792898D01*
X82602357Y-80792900D01*
X82423121Y-80918402D01*
X82268402Y-81073121D01*
X82142900Y-81252357D01*
X82142900Y-81252358D01*
X82099460Y-81345514D01*
X82053287Y-81397953D01*
X81986093Y-81417104D01*
X81919212Y-81396888D01*
X81874697Y-81345513D01*
X81805568Y-81197266D01*
X81675047Y-81010861D01*
X81675045Y-81010858D01*
X81514141Y-80849954D01*
X81327734Y-80719432D01*
X81327728Y-80719429D01*
X81300038Y-80706517D01*
X81269724Y-80692381D01*
X81217285Y-80646210D01*
X81198133Y-80579017D01*
X81218348Y-80512135D01*
X81269725Y-80467618D01*
X81275657Y-80464852D01*
X81327734Y-80440568D01*
X81514139Y-80310047D01*
X81675047Y-80149139D01*
X81805568Y-79962734D01*
X81901739Y-79756496D01*
X81960635Y-79536692D01*
X81980468Y-79310000D01*
X81980186Y-79306782D01*
X81970235Y-79193041D01*
X81960635Y-79083308D01*
X81901739Y-78863504D01*
X81805568Y-78657266D01*
X81675047Y-78470861D01*
X81675045Y-78470858D01*
X81514141Y-78309954D01*
X81327734Y-78179432D01*
X81327728Y-78179429D01*
X81269725Y-78152382D01*
X81217285Y-78106210D01*
X81198133Y-78039017D01*
X81218348Y-77972135D01*
X81269725Y-77927618D01*
X81327734Y-77900568D01*
X81514139Y-77770047D01*
X81675047Y-77609139D01*
X81805568Y-77422734D01*
X81901739Y-77216496D01*
X81960635Y-76996692D01*
X81980468Y-76770000D01*
X81960635Y-76543308D01*
X81901739Y-76323504D01*
X81805568Y-76117266D01*
X81675047Y-75930861D01*
X81675045Y-75930858D01*
X81514141Y-75769954D01*
X81327734Y-75639432D01*
X81327732Y-75639431D01*
X81121497Y-75543261D01*
X81121488Y-75543258D01*
X80901697Y-75484366D01*
X80901687Y-75484364D01*
X80731785Y-75469500D01*
X80731784Y-75469500D01*
X79818216Y-75469500D01*
X79818215Y-75469500D01*
X79648312Y-75484364D01*
X79648302Y-75484366D01*
X79428511Y-75543258D01*
X79428502Y-75543261D01*
X79222267Y-75639431D01*
X79222265Y-75639432D01*
X79035858Y-75769954D01*
X78874954Y-75930858D01*
X78744432Y-76117265D01*
X78744431Y-76117267D01*
X78648261Y-76323502D01*
X78648258Y-76323511D01*
X78589366Y-76543302D01*
X78589364Y-76543313D01*
X78569532Y-76769998D01*
X78569532Y-76770001D01*
X78589364Y-76996686D01*
X78589366Y-76996697D01*
X78648258Y-77216488D01*
X78648261Y-77216497D01*
X78744431Y-77422732D01*
X78744432Y-77422734D01*
X78874954Y-77609141D01*
X79035858Y-77770045D01*
X79035861Y-77770047D01*
X79222266Y-77900568D01*
X79257867Y-77917169D01*
X79280275Y-77927618D01*
X79332714Y-77973791D01*
X79351866Y-78040984D01*
X79331650Y-78107865D01*
X79280275Y-78152382D01*
X79222267Y-78179431D01*
X79222265Y-78179432D01*
X79035858Y-78309954D01*
X78874954Y-78470858D01*
X78744432Y-78657265D01*
X78744431Y-78657267D01*
X78648261Y-78863502D01*
X78648258Y-78863511D01*
X78589366Y-79083302D01*
X78589364Y-79083313D01*
X78569532Y-79309998D01*
X78569532Y-79310001D01*
X78589364Y-79536686D01*
X78589366Y-79536697D01*
X78648258Y-79756488D01*
X78648261Y-79756497D01*
X78744431Y-79962732D01*
X78744432Y-79962734D01*
X78874954Y-80149141D01*
X79035858Y-80310045D01*
X79042779Y-80314891D01*
X79222266Y-80440568D01*
X79274343Y-80464852D01*
X79280275Y-80467618D01*
X79332714Y-80513791D01*
X79351866Y-80580984D01*
X79331650Y-80647865D01*
X79280275Y-80692381D01*
X79268868Y-80697701D01*
X79222267Y-80719431D01*
X79222265Y-80719432D01*
X79035858Y-80849954D01*
X78874954Y-81010858D01*
X78744432Y-81197265D01*
X78744431Y-81197267D01*
X78648261Y-81403502D01*
X78648258Y-81403511D01*
X78589366Y-81623302D01*
X78589364Y-81623313D01*
X78569532Y-81849998D01*
X78569532Y-81850001D01*
X78589364Y-82076686D01*
X78589366Y-82076697D01*
X78648258Y-82296488D01*
X78648261Y-82296497D01*
X78744431Y-82502732D01*
X78744432Y-82502734D01*
X78874954Y-82689141D01*
X79035858Y-82850045D01*
X79060462Y-82867273D01*
X79104087Y-82921849D01*
X79111281Y-82991348D01*
X79079758Y-83053703D01*
X79019529Y-83089117D01*
X79002593Y-83092138D01*
X78967516Y-83095908D01*
X78832671Y-83146202D01*
X78832664Y-83146206D01*
X78717455Y-83232452D01*
X78717452Y-83232455D01*
X78631206Y-83347664D01*
X78631202Y-83347671D01*
X78580908Y-83482517D01*
X78577256Y-83516491D01*
X78574501Y-83542123D01*
X78574500Y-83542135D01*
X78574500Y-85237870D01*
X78574501Y-85237876D01*
X78580908Y-85297483D01*
X78631202Y-85432328D01*
X78631206Y-85432335D01*
X78717452Y-85547544D01*
X78717455Y-85547547D01*
X78832664Y-85633793D01*
X78832671Y-85633797D01*
X78967517Y-85684091D01*
X78967516Y-85684091D01*
X78974444Y-85684835D01*
X79027127Y-85690500D01*
X81522872Y-85690499D01*
X81582483Y-85684091D01*
X81717331Y-85633796D01*
X81832546Y-85547546D01*
X81918796Y-85432331D01*
X81969091Y-85297483D01*
X81975500Y-85237873D01*
X81975499Y-83542128D01*
X81969091Y-83482517D01*
X81951617Y-83435668D01*
X81918797Y-83347671D01*
X81918793Y-83347664D01*
X81832547Y-83232455D01*
X81832544Y-83232452D01*
X81717335Y-83146206D01*
X81717328Y-83146202D01*
X81582482Y-83095908D01*
X81582483Y-83095908D01*
X81547404Y-83092137D01*
X81482853Y-83065399D01*
X81443005Y-83008006D01*
X81440512Y-82938181D01*
X81476165Y-82878092D01*
X81489539Y-82867272D01*
X81493121Y-82864763D01*
X81514139Y-82850047D01*
X81675047Y-82689139D01*
X81805568Y-82502734D01*
X81860708Y-82384484D01*
X81906879Y-82332048D01*
X81974073Y-82312896D01*
X82040954Y-82333112D01*
X82085471Y-82384487D01*
X82142897Y-82507638D01*
X82157060Y-82527865D01*
X82268402Y-82686877D01*
X82423123Y-82841598D01*
X82602361Y-82967102D01*
X82800670Y-83059575D01*
X82800676Y-83059576D01*
X82800677Y-83059577D01*
X82822405Y-83065399D01*
X83012023Y-83116207D01*
X83194926Y-83132208D01*
X83229998Y-83135277D01*
X83230000Y-83135277D01*
X83230002Y-83135277D01*
X83264062Y-83132297D01*
X83447977Y-83116207D01*
X83659330Y-83059575D01*
X83857639Y-82967102D01*
X84036877Y-82841598D01*
X84191598Y-82686877D01*
X84317102Y-82507639D01*
X84409575Y-82309330D01*
X84466207Y-82097977D01*
X84466207Y-82097969D01*
X84467146Y-82092649D01*
X84468771Y-82092935D01*
X84491470Y-82034864D01*
X84501876Y-82023042D01*
X84577946Y-81946972D01*
X84578997Y-81945948D01*
X84629615Y-81897833D01*
X84640070Y-81887895D01*
X84702222Y-81855976D01*
X84771765Y-81862725D01*
X84826619Y-81906001D01*
X84849369Y-81972063D01*
X84849500Y-81977771D01*
X84849500Y-104784217D01*
X84829815Y-104851256D01*
X84813181Y-104871898D01*
X82671758Y-107013320D01*
X82610435Y-107046805D01*
X82594887Y-107049167D01*
X82542026Y-107053792D01*
X82542017Y-107053794D01*
X82330677Y-107110422D01*
X82330668Y-107110426D01*
X82132361Y-107202898D01*
X82132357Y-107202900D01*
X81953121Y-107328402D01*
X81798402Y-107483121D01*
X81672900Y-107662357D01*
X81672898Y-107662361D01*
X81580426Y-107860668D01*
X81580422Y-107860677D01*
X81523793Y-108072020D01*
X81523793Y-108072024D01*
X81504723Y-108289997D01*
X81504723Y-108290002D01*
X81512809Y-108382421D01*
X81522753Y-108496094D01*
X81523793Y-108507975D01*
X81523793Y-108507979D01*
X81580422Y-108719322D01*
X81580424Y-108719326D01*
X81580425Y-108719330D01*
X81601373Y-108764253D01*
X81672897Y-108917638D01*
X81697998Y-108953486D01*
X81798402Y-109096877D01*
X81953123Y-109251598D01*
X82132361Y-109377102D01*
X82330670Y-109469575D01*
X82330676Y-109469576D01*
X82330677Y-109469577D01*
X82346300Y-109473763D01*
X82542023Y-109526207D01*
X82724926Y-109542208D01*
X82759998Y-109545277D01*
X82760000Y-109545277D01*
X82760002Y-109545277D01*
X82788254Y-109542805D01*
X82977977Y-109526207D01*
X83189330Y-109469575D01*
X83387639Y-109377102D01*
X83566877Y-109251598D01*
X83721598Y-109096877D01*
X83847102Y-108917639D01*
X83939575Y-108719330D01*
X83983677Y-108554736D01*
X84015768Y-108499151D01*
X86548001Y-105966918D01*
X86549014Y-105965931D01*
X86613053Y-105905059D01*
X86648112Y-105854686D01*
X86650925Y-105850957D01*
X86689698Y-105803407D01*
X86705607Y-105772948D01*
X86709667Y-105766248D01*
X86729295Y-105738049D01*
X86753492Y-105681660D01*
X86755498Y-105677435D01*
X86783909Y-105623049D01*
X86793360Y-105590015D01*
X86795991Y-105582628D01*
X86807820Y-105555065D01*
X86809540Y-105551058D01*
X86821893Y-105490940D01*
X86823006Y-105486412D01*
X86839887Y-105427418D01*
X86842495Y-105393155D01*
X86843587Y-105385376D01*
X86847767Y-105365041D01*
X86850500Y-105351741D01*
X86850500Y-105290401D01*
X86850679Y-105285692D01*
X86855337Y-105224525D01*
X86850997Y-105190441D01*
X86850500Y-105182602D01*
X86850500Y-80915783D01*
X86870185Y-80848744D01*
X86886819Y-80828102D01*
X88028102Y-79686819D01*
X88089425Y-79653334D01*
X88115783Y-79650500D01*
X88262412Y-79650500D01*
X88329451Y-79670185D01*
X88333523Y-79672917D01*
X88487266Y-79780568D01*
X88545275Y-79807618D01*
X88597714Y-79853791D01*
X88616866Y-79920984D01*
X88596650Y-79987865D01*
X88545275Y-80032382D01*
X88487267Y-80059431D01*
X88487265Y-80059432D01*
X88300858Y-80189954D01*
X88139954Y-80350858D01*
X88009432Y-80537265D01*
X88009431Y-80537267D01*
X87913261Y-80743502D01*
X87913258Y-80743511D01*
X87854366Y-80963302D01*
X87854364Y-80963313D01*
X87834532Y-81189998D01*
X87834532Y-81190001D01*
X87854364Y-81416686D01*
X87854366Y-81416697D01*
X87913258Y-81636488D01*
X87913261Y-81636497D01*
X88009431Y-81842732D01*
X88009432Y-81842734D01*
X88139954Y-82029141D01*
X88300858Y-82190045D01*
X88300861Y-82190047D01*
X88487266Y-82320568D01*
X88545275Y-82347618D01*
X88597714Y-82393791D01*
X88616866Y-82460984D01*
X88596650Y-82527865D01*
X88545275Y-82572381D01*
X88528272Y-82580310D01*
X88487267Y-82599431D01*
X88487265Y-82599432D01*
X88300858Y-82729954D01*
X88139954Y-82890858D01*
X88009432Y-83077265D01*
X88009431Y-83077267D01*
X87913261Y-83283502D01*
X87913258Y-83283511D01*
X87854366Y-83503302D01*
X87854364Y-83503313D01*
X87834532Y-83729998D01*
X87834532Y-83730001D01*
X87854364Y-83956686D01*
X87854366Y-83956697D01*
X87913258Y-84176488D01*
X87913261Y-84176497D01*
X88009431Y-84382732D01*
X88009432Y-84382734D01*
X88139954Y-84569141D01*
X88300858Y-84730045D01*
X88300861Y-84730047D01*
X88487266Y-84860568D01*
X88693504Y-84956739D01*
X88913308Y-85015635D01*
X89075230Y-85029801D01*
X89139998Y-85035468D01*
X89140000Y-85035468D01*
X89140002Y-85035468D01*
X89196796Y-85030499D01*
X89366692Y-85015635D01*
X89586496Y-84956739D01*
X89792734Y-84860568D01*
X89946465Y-84752924D01*
X90012671Y-84730598D01*
X90017588Y-84730500D01*
X90725500Y-84730500D01*
X90792539Y-84750185D01*
X90838294Y-84802989D01*
X90849500Y-84854500D01*
X90849500Y-108964217D01*
X90829815Y-109031256D01*
X90813181Y-109051898D01*
X89662303Y-110202775D01*
X89600980Y-110236260D01*
X89585429Y-110238622D01*
X89446572Y-110250770D01*
X89412023Y-110253793D01*
X89412020Y-110253793D01*
X89200677Y-110310422D01*
X89200670Y-110310424D01*
X89200670Y-110310425D01*
X89192079Y-110314431D01*
X89002361Y-110402898D01*
X89002357Y-110402900D01*
X88823121Y-110528402D01*
X88668402Y-110683121D01*
X88542900Y-110862357D01*
X88542898Y-110862361D01*
X88450426Y-111060668D01*
X88450422Y-111060677D01*
X88393793Y-111272020D01*
X88393793Y-111272024D01*
X88374723Y-111489997D01*
X88374723Y-111490002D01*
X88393793Y-111707975D01*
X88393793Y-111707979D01*
X88450422Y-111919322D01*
X88450424Y-111919326D01*
X88450425Y-111919330D01*
X88496661Y-112018484D01*
X88542897Y-112117638D01*
X88542898Y-112117639D01*
X88668402Y-112296877D01*
X88823123Y-112451598D01*
X89002361Y-112577102D01*
X89200670Y-112669575D01*
X89200676Y-112669576D01*
X89200677Y-112669577D01*
X89231364Y-112677799D01*
X89412023Y-112726207D01*
X89588131Y-112741614D01*
X89629998Y-112745277D01*
X89630000Y-112745277D01*
X89630002Y-112745277D01*
X89658254Y-112742805D01*
X89847977Y-112726207D01*
X90059330Y-112669575D01*
X90257639Y-112577102D01*
X90436877Y-112451598D01*
X90591598Y-112296877D01*
X90717102Y-112117639D01*
X90809575Y-111919330D01*
X90813414Y-111904999D01*
X90845507Y-111849412D01*
X92228101Y-110466819D01*
X92289425Y-110433334D01*
X92315783Y-110430500D01*
X93534217Y-110430500D01*
X93601256Y-110450185D01*
X93621898Y-110466819D01*
X97063181Y-113908102D01*
X97096666Y-113969425D01*
X97099500Y-113995783D01*
X97099500Y-116060605D01*
X97079815Y-116127644D01*
X97066730Y-116144588D01*
X96949446Y-116271993D01*
X96933806Y-116295931D01*
X96880658Y-116341287D01*
X96811427Y-116350708D01*
X96748092Y-116321205D01*
X96726191Y-116295929D01*
X96710552Y-116271992D01*
X96710551Y-116271990D01*
X96547463Y-116094829D01*
X96413358Y-115990451D01*
X96357441Y-115946929D01*
X96145665Y-115832321D01*
X96145656Y-115832318D01*
X95917916Y-115754134D01*
X95718800Y-115720908D01*
X95680399Y-115714500D01*
X95439601Y-115714500D01*
X95401200Y-115720908D01*
X95202083Y-115754134D01*
X94974343Y-115832318D01*
X94974334Y-115832321D01*
X94762559Y-115946929D01*
X94620069Y-116057833D01*
X94555075Y-116083475D01*
X94486535Y-116069908D01*
X94436210Y-116021440D01*
X94427725Y-116003311D01*
X94416298Y-115972673D01*
X94416293Y-115972664D01*
X94330047Y-115857455D01*
X94330044Y-115857452D01*
X94214835Y-115771206D01*
X94214828Y-115771202D01*
X94079982Y-115720908D01*
X94079983Y-115720908D01*
X94020383Y-115714501D01*
X94020381Y-115714500D01*
X94020373Y-115714500D01*
X94020365Y-115714500D01*
X93117020Y-115714500D01*
X93109350Y-115714024D01*
X93082221Y-115710643D01*
X93082219Y-115710643D01*
X93082218Y-115710642D01*
X92994640Y-115714264D01*
X92990232Y-115714447D01*
X92987673Y-115714500D01*
X92019629Y-115714500D01*
X92019623Y-115714501D01*
X91960016Y-115720908D01*
X91825171Y-115771202D01*
X91825164Y-115771206D01*
X91709955Y-115857452D01*
X91709952Y-115857455D01*
X91623706Y-115972664D01*
X91623702Y-115972671D01*
X91573408Y-116107517D01*
X91567001Y-116167116D01*
X91567000Y-116167135D01*
X91567000Y-116494609D01*
X91547315Y-116561648D01*
X91530681Y-116582290D01*
X89429791Y-118683181D01*
X89368468Y-118716666D01*
X89342110Y-118719500D01*
X68112890Y-118719500D01*
X68045851Y-118699815D01*
X68025209Y-118683181D01*
X67506819Y-118164791D01*
X67473334Y-118103468D01*
X67470500Y-118077110D01*
X67470500Y-117462870D01*
X69319500Y-117462870D01*
X69319501Y-117462876D01*
X69325908Y-117522483D01*
X69376202Y-117657328D01*
X69376206Y-117657335D01*
X69462452Y-117772544D01*
X69462455Y-117772547D01*
X69577664Y-117858793D01*
X69577671Y-117858797D01*
X69712517Y-117909091D01*
X69712516Y-117909091D01*
X69719444Y-117909835D01*
X69772127Y-117915500D01*
X72067872Y-117915499D01*
X72127483Y-117909091D01*
X72262331Y-117858796D01*
X72377546Y-117772546D01*
X72463796Y-117657331D01*
X72514091Y-117522483D01*
X72520500Y-117462873D01*
X72520499Y-116314999D01*
X79474551Y-116314999D01*
X79494317Y-116566151D01*
X79553126Y-116811110D01*
X79649533Y-117043859D01*
X79781160Y-117258653D01*
X79781161Y-117258656D01*
X79781164Y-117258659D01*
X79944776Y-117450224D01*
X80093066Y-117576875D01*
X80136343Y-117613838D01*
X80136346Y-117613839D01*
X80351140Y-117745466D01*
X80583888Y-117841873D01*
X80583889Y-117841873D01*
X80828852Y-117900683D01*
X81080000Y-117920449D01*
X81331148Y-117900683D01*
X81576111Y-117841873D01*
X81808859Y-117745466D01*
X82023659Y-117613836D01*
X82215224Y-117450224D01*
X82378836Y-117258659D01*
X82510466Y-117043859D01*
X82606873Y-116811111D01*
X82665683Y-116566148D01*
X82685449Y-116315000D01*
X82665683Y-116063852D01*
X82606873Y-115818889D01*
X82587121Y-115771204D01*
X82510466Y-115586140D01*
X82378839Y-115371346D01*
X82378838Y-115371343D01*
X82321119Y-115303763D01*
X82215224Y-115179776D01*
X82075433Y-115060383D01*
X82023656Y-115016161D01*
X82023653Y-115016160D01*
X81808859Y-114884533D01*
X81576110Y-114788126D01*
X81331151Y-114729317D01*
X81080000Y-114709551D01*
X80828848Y-114729317D01*
X80583889Y-114788126D01*
X80351140Y-114884533D01*
X80136346Y-115016160D01*
X80136343Y-115016161D01*
X79944776Y-115179776D01*
X79781161Y-115371343D01*
X79781160Y-115371346D01*
X79649533Y-115586140D01*
X79553126Y-115818889D01*
X79494317Y-116063848D01*
X79474551Y-116314999D01*
X72520499Y-116314999D01*
X72520499Y-115167128D01*
X72514091Y-115107517D01*
X72514081Y-115107491D01*
X72463797Y-114972671D01*
X72463793Y-114972664D01*
X72377547Y-114857455D01*
X72377544Y-114857452D01*
X72262335Y-114771206D01*
X72262328Y-114771202D01*
X72127482Y-114720908D01*
X72127483Y-114720908D01*
X72067883Y-114714501D01*
X72067881Y-114714500D01*
X72067873Y-114714500D01*
X72067864Y-114714500D01*
X69772129Y-114714500D01*
X69772123Y-114714501D01*
X69712516Y-114720908D01*
X69577671Y-114771202D01*
X69577664Y-114771206D01*
X69462455Y-114857452D01*
X69462452Y-114857455D01*
X69376206Y-114972664D01*
X69376202Y-114972671D01*
X69325908Y-115107517D01*
X69319501Y-115167116D01*
X69319501Y-115167123D01*
X69319500Y-115167135D01*
X69319500Y-117462870D01*
X67470500Y-117462870D01*
X67470500Y-111445001D01*
X70249532Y-111445001D01*
X70269364Y-111671686D01*
X70269366Y-111671697D01*
X70328258Y-111891488D01*
X70328261Y-111891497D01*
X70424431Y-112097732D01*
X70424432Y-112097734D01*
X70554954Y-112284141D01*
X70715858Y-112445045D01*
X70715861Y-112445047D01*
X70902266Y-112575568D01*
X71108504Y-112671739D01*
X71328308Y-112730635D01*
X71498214Y-112745499D01*
X71498215Y-112745500D01*
X71498216Y-112745500D01*
X72411785Y-112745500D01*
X72411785Y-112745499D01*
X72581692Y-112730635D01*
X72801496Y-112671739D01*
X73007734Y-112575568D01*
X73194139Y-112445047D01*
X73355047Y-112284139D01*
X73485568Y-112097734D01*
X73581739Y-111891496D01*
X73640635Y-111671692D01*
X73660468Y-111445000D01*
X73640635Y-111218308D01*
X73581739Y-110998504D01*
X73485568Y-110792266D01*
X73355047Y-110605861D01*
X73355045Y-110605858D01*
X73194141Y-110444954D01*
X73007734Y-110314432D01*
X73007728Y-110314429D01*
X72949882Y-110287455D01*
X72949724Y-110287381D01*
X72897285Y-110241210D01*
X72878133Y-110174017D01*
X72898348Y-110107135D01*
X72949725Y-110062618D01*
X73007734Y-110035568D01*
X73194139Y-109905047D01*
X73355047Y-109744139D01*
X73485568Y-109557734D01*
X73581739Y-109351496D01*
X73640635Y-109131692D01*
X73660468Y-108905001D01*
X77869532Y-108905001D01*
X77889364Y-109131686D01*
X77889366Y-109131697D01*
X77948258Y-109351488D01*
X77948261Y-109351497D01*
X78044431Y-109557732D01*
X78044432Y-109557734D01*
X78174954Y-109744141D01*
X78335858Y-109905045D01*
X78360462Y-109922273D01*
X78404087Y-109976849D01*
X78411281Y-110046348D01*
X78379758Y-110108703D01*
X78319529Y-110144117D01*
X78302593Y-110147138D01*
X78267516Y-110150908D01*
X78132671Y-110201202D01*
X78132664Y-110201206D01*
X78017455Y-110287452D01*
X78017452Y-110287455D01*
X77931206Y-110402664D01*
X77931202Y-110402671D01*
X77880908Y-110537517D01*
X77874501Y-110597116D01*
X77874501Y-110597123D01*
X77874500Y-110597135D01*
X77874500Y-112292870D01*
X77874501Y-112292876D01*
X77880908Y-112352483D01*
X77931202Y-112487328D01*
X77931206Y-112487335D01*
X78017452Y-112602544D01*
X78017455Y-112602547D01*
X78132664Y-112688793D01*
X78132671Y-112688797D01*
X78267517Y-112739091D01*
X78267516Y-112739091D01*
X78274444Y-112739835D01*
X78327127Y-112745500D01*
X80822872Y-112745499D01*
X80882483Y-112739091D01*
X81017331Y-112688796D01*
X81132546Y-112602546D01*
X81218796Y-112487331D01*
X81269091Y-112352483D01*
X81275500Y-112292873D01*
X81275499Y-110597128D01*
X81269091Y-110537517D01*
X81265691Y-110528402D01*
X81218797Y-110402671D01*
X81218793Y-110402664D01*
X81132547Y-110287455D01*
X81132544Y-110287452D01*
X81017335Y-110201206D01*
X81017328Y-110201202D01*
X80882482Y-110150908D01*
X80882483Y-110150908D01*
X80847404Y-110147137D01*
X80782853Y-110120399D01*
X80743005Y-110063006D01*
X80740512Y-109993181D01*
X80776165Y-109933092D01*
X80789539Y-109922272D01*
X80814140Y-109905046D01*
X80975045Y-109744141D01*
X80975047Y-109744139D01*
X81105568Y-109557734D01*
X81201739Y-109351496D01*
X81260635Y-109131692D01*
X81280468Y-108905000D01*
X81260635Y-108678308D01*
X81201739Y-108458504D01*
X81105568Y-108252266D01*
X80975047Y-108065861D01*
X80975045Y-108065858D01*
X80814141Y-107904954D01*
X80627734Y-107774432D01*
X80627728Y-107774429D01*
X80569725Y-107747382D01*
X80517285Y-107701210D01*
X80498133Y-107634017D01*
X80518348Y-107567135D01*
X80569725Y-107522618D01*
X80627734Y-107495568D01*
X80814139Y-107365047D01*
X80975047Y-107204139D01*
X81105568Y-107017734D01*
X81201739Y-106811496D01*
X81260635Y-106591692D01*
X81280468Y-106365000D01*
X81260635Y-106138308D01*
X81201739Y-105918504D01*
X81105568Y-105712266D01*
X80975047Y-105525861D01*
X80975045Y-105525858D01*
X80814141Y-105364954D01*
X80627734Y-105234432D01*
X80627728Y-105234429D01*
X80569725Y-105207382D01*
X80517285Y-105161210D01*
X80498133Y-105094017D01*
X80518348Y-105027135D01*
X80569725Y-104982618D01*
X80627734Y-104955568D01*
X80814139Y-104825047D01*
X80975047Y-104664139D01*
X81105568Y-104477734D01*
X81201739Y-104271496D01*
X81260635Y-104051692D01*
X81280468Y-103825000D01*
X81260635Y-103598308D01*
X81201739Y-103378504D01*
X81105568Y-103172266D01*
X80975047Y-102985861D01*
X80975045Y-102985858D01*
X80814141Y-102824954D01*
X80627734Y-102694432D01*
X80627732Y-102694431D01*
X80421497Y-102598261D01*
X80421488Y-102598258D01*
X80201697Y-102539366D01*
X80201687Y-102539364D01*
X80031785Y-102524500D01*
X80031784Y-102524500D01*
X79118216Y-102524500D01*
X79118215Y-102524500D01*
X78948312Y-102539364D01*
X78948302Y-102539366D01*
X78728511Y-102598258D01*
X78728502Y-102598261D01*
X78522267Y-102694431D01*
X78522265Y-102694432D01*
X78335858Y-102824954D01*
X78174954Y-102985858D01*
X78044432Y-103172265D01*
X78044431Y-103172267D01*
X77948261Y-103378502D01*
X77948258Y-103378511D01*
X77889366Y-103598302D01*
X77889364Y-103598313D01*
X77869532Y-103824998D01*
X77869532Y-103825001D01*
X77889364Y-104051686D01*
X77889366Y-104051697D01*
X77948258Y-104271488D01*
X77948261Y-104271497D01*
X78044431Y-104477732D01*
X78044432Y-104477734D01*
X78174954Y-104664141D01*
X78335858Y-104825045D01*
X78335861Y-104825047D01*
X78522266Y-104955568D01*
X78580275Y-104982618D01*
X78632714Y-105028791D01*
X78651866Y-105095984D01*
X78631650Y-105162865D01*
X78580275Y-105207382D01*
X78522267Y-105234431D01*
X78522265Y-105234432D01*
X78335858Y-105364954D01*
X78174954Y-105525858D01*
X78044432Y-105712265D01*
X78044431Y-105712267D01*
X77948261Y-105918502D01*
X77948258Y-105918511D01*
X77889366Y-106138302D01*
X77889364Y-106138313D01*
X77869532Y-106364998D01*
X77869532Y-106365001D01*
X77889364Y-106591686D01*
X77889366Y-106591697D01*
X77948258Y-106811488D01*
X77948261Y-106811497D01*
X78044431Y-107017732D01*
X78044432Y-107017734D01*
X78174954Y-107204141D01*
X78335858Y-107365045D01*
X78335861Y-107365047D01*
X78522266Y-107495568D01*
X78580275Y-107522618D01*
X78632714Y-107568791D01*
X78651866Y-107635984D01*
X78631650Y-107702865D01*
X78580275Y-107747382D01*
X78522267Y-107774431D01*
X78522265Y-107774432D01*
X78335858Y-107904954D01*
X78174954Y-108065858D01*
X78044432Y-108252265D01*
X78044431Y-108252267D01*
X77948261Y-108458502D01*
X77948258Y-108458511D01*
X77889366Y-108678302D01*
X77889364Y-108678313D01*
X77869532Y-108904998D01*
X77869532Y-108905001D01*
X73660468Y-108905001D01*
X73660468Y-108905000D01*
X73640635Y-108678308D01*
X73581739Y-108458504D01*
X73485568Y-108252266D01*
X73355047Y-108065861D01*
X73355045Y-108065858D01*
X73194141Y-107904954D01*
X73007734Y-107774432D01*
X73007728Y-107774429D01*
X72949725Y-107747382D01*
X72897285Y-107701210D01*
X72878133Y-107634017D01*
X72898348Y-107567135D01*
X72949725Y-107522618D01*
X73007734Y-107495568D01*
X73194139Y-107365047D01*
X73355047Y-107204139D01*
X73485568Y-107017734D01*
X73581739Y-106811496D01*
X73640635Y-106591692D01*
X73660468Y-106365000D01*
X73640635Y-106138308D01*
X73581739Y-105918504D01*
X73485568Y-105712266D01*
X73355047Y-105525861D01*
X73355045Y-105525858D01*
X73194141Y-105364954D01*
X73007734Y-105234432D01*
X73007728Y-105234429D01*
X72949725Y-105207382D01*
X72897285Y-105161210D01*
X72878133Y-105094017D01*
X72898348Y-105027135D01*
X72949725Y-104982618D01*
X73007734Y-104955568D01*
X73194139Y-104825047D01*
X73355047Y-104664139D01*
X73485568Y-104477734D01*
X73581739Y-104271496D01*
X73640635Y-104051692D01*
X73660468Y-103825000D01*
X73640635Y-103598308D01*
X73581739Y-103378504D01*
X73485568Y-103172266D01*
X73355047Y-102985861D01*
X73355045Y-102985858D01*
X73194141Y-102824954D01*
X73007734Y-102694432D01*
X73007732Y-102694431D01*
X72801497Y-102598261D01*
X72801488Y-102598258D01*
X72581697Y-102539366D01*
X72581687Y-102539364D01*
X72411785Y-102524500D01*
X72411784Y-102524500D01*
X71498216Y-102524500D01*
X71498215Y-102524500D01*
X71328312Y-102539364D01*
X71328302Y-102539366D01*
X71108511Y-102598258D01*
X71108502Y-102598261D01*
X70902267Y-102694431D01*
X70902265Y-102694432D01*
X70715858Y-102824954D01*
X70554954Y-102985858D01*
X70424432Y-103172265D01*
X70424431Y-103172267D01*
X70328261Y-103378502D01*
X70328258Y-103378511D01*
X70269366Y-103598302D01*
X70269364Y-103598313D01*
X70249532Y-103824998D01*
X70249532Y-103825001D01*
X70269364Y-104051686D01*
X70269366Y-104051697D01*
X70328258Y-104271488D01*
X70328261Y-104271497D01*
X70424431Y-104477732D01*
X70424432Y-104477734D01*
X70554954Y-104664141D01*
X70715858Y-104825045D01*
X70715861Y-104825047D01*
X70902266Y-104955568D01*
X70960275Y-104982618D01*
X71012714Y-105028791D01*
X71031866Y-105095984D01*
X71011650Y-105162865D01*
X70960275Y-105207382D01*
X70902267Y-105234431D01*
X70902265Y-105234432D01*
X70715858Y-105364954D01*
X70554954Y-105525858D01*
X70424432Y-105712265D01*
X70424431Y-105712267D01*
X70328261Y-105918502D01*
X70328258Y-105918511D01*
X70269366Y-106138302D01*
X70269364Y-106138313D01*
X70249532Y-106364998D01*
X70249532Y-106365001D01*
X70269364Y-106591686D01*
X70269366Y-106591697D01*
X70328258Y-106811488D01*
X70328261Y-106811497D01*
X70424431Y-107017732D01*
X70424432Y-107017734D01*
X70554954Y-107204141D01*
X70715858Y-107365045D01*
X70715861Y-107365047D01*
X70902266Y-107495568D01*
X70960275Y-107522618D01*
X71012714Y-107568791D01*
X71031866Y-107635984D01*
X71011650Y-107702865D01*
X70960275Y-107747382D01*
X70902267Y-107774431D01*
X70902265Y-107774432D01*
X70715858Y-107904954D01*
X70554954Y-108065858D01*
X70424432Y-108252265D01*
X70424431Y-108252267D01*
X70328261Y-108458502D01*
X70328258Y-108458511D01*
X70269366Y-108678302D01*
X70269364Y-108678313D01*
X70249532Y-108904998D01*
X70249532Y-108905001D01*
X70269364Y-109131686D01*
X70269366Y-109131697D01*
X70328258Y-109351488D01*
X70328261Y-109351497D01*
X70424431Y-109557732D01*
X70424432Y-109557734D01*
X70554954Y-109744141D01*
X70715858Y-109905045D01*
X70755914Y-109933092D01*
X70902266Y-110035568D01*
X70925384Y-110046348D01*
X70960275Y-110062618D01*
X71012714Y-110108791D01*
X71031866Y-110175984D01*
X71011650Y-110242865D01*
X70960275Y-110287381D01*
X70960118Y-110287455D01*
X70902267Y-110314431D01*
X70902265Y-110314432D01*
X70715858Y-110444954D01*
X70554954Y-110605858D01*
X70424432Y-110792265D01*
X70424431Y-110792267D01*
X70328261Y-110998502D01*
X70328258Y-110998511D01*
X70269366Y-111218302D01*
X70269364Y-111218313D01*
X70249532Y-111444998D01*
X70249532Y-111445001D01*
X67470500Y-111445001D01*
X67470500Y-109757018D01*
X67470977Y-109749342D01*
X67474357Y-109722220D01*
X67474357Y-109722219D01*
X67470553Y-109630246D01*
X67470500Y-109627683D01*
X67470500Y-109597934D01*
X67470500Y-109597933D01*
X67468042Y-109568278D01*
X67467884Y-109565731D01*
X67466250Y-109526207D01*
X67464081Y-109473763D01*
X67458473Y-109447016D01*
X67457364Y-109439406D01*
X67455109Y-109412187D01*
X67455107Y-109412175D01*
X67432516Y-109322964D01*
X67431938Y-109320467D01*
X67413050Y-109230386D01*
X67403112Y-109204920D01*
X67400774Y-109197623D01*
X67394063Y-109171119D01*
X67357088Y-109086825D01*
X67356121Y-109084492D01*
X67322656Y-108998727D01*
X67308665Y-108975248D01*
X67305150Y-108968418D01*
X67303307Y-108964217D01*
X67294173Y-108943393D01*
X67277347Y-108917639D01*
X67243828Y-108866333D01*
X67242484Y-108864181D01*
X67195366Y-108785106D01*
X67177702Y-108764250D01*
X67173106Y-108758086D01*
X67158166Y-108735218D01*
X67158165Y-108735217D01*
X67158164Y-108735215D01*
X67095825Y-108667497D01*
X67094129Y-108665576D01*
X67093693Y-108665061D01*
X67074902Y-108642874D01*
X67074894Y-108642866D01*
X67074889Y-108642860D01*
X67059813Y-108627785D01*
X67053841Y-108621813D01*
X67052090Y-108619988D01*
X66989747Y-108552265D01*
X66989746Y-108552264D01*
X66989744Y-108552262D01*
X66968174Y-108535473D01*
X66962412Y-108530384D01*
X64547215Y-106115187D01*
X64542124Y-106109422D01*
X64525339Y-106087857D01*
X64525334Y-106087852D01*
X64457610Y-106025508D01*
X64455784Y-106023756D01*
X64445246Y-106013218D01*
X64434732Y-106002703D01*
X64412010Y-105983458D01*
X64410089Y-105981762D01*
X64342386Y-105919437D01*
X64342385Y-105919436D01*
X64322000Y-105906117D01*
X64319504Y-105904487D01*
X64313347Y-105899896D01*
X64292494Y-105882234D01*
X64213387Y-105835096D01*
X64211282Y-105833781D01*
X64164791Y-105803408D01*
X64134204Y-105783424D01*
X64109188Y-105772452D01*
X64102350Y-105768932D01*
X64078875Y-105754944D01*
X63993134Y-105721487D01*
X63990767Y-105720507D01*
X63933325Y-105695311D01*
X63906481Y-105683537D01*
X63906479Y-105683536D01*
X63906478Y-105683536D01*
X63879987Y-105676827D01*
X63872667Y-105674482D01*
X63847216Y-105664551D01*
X63847208Y-105664549D01*
X63757139Y-105645663D01*
X63754644Y-105645085D01*
X63665420Y-105622491D01*
X63638190Y-105620235D01*
X63630583Y-105619126D01*
X63610586Y-105614934D01*
X63603837Y-105613519D01*
X63603835Y-105613518D01*
X63511879Y-105609715D01*
X63509323Y-105609557D01*
X63506335Y-105609309D01*
X63479667Y-105607100D01*
X63479664Y-105607100D01*
X63449915Y-105607100D01*
X63447355Y-105607047D01*
X63391503Y-105604737D01*
X63355380Y-105603243D01*
X63355379Y-105603243D01*
X63328252Y-105606624D01*
X63320581Y-105607100D01*
X62066115Y-105607100D01*
X61999076Y-105587415D01*
X61953321Y-105534611D01*
X61943377Y-105465453D01*
X61968261Y-105406938D01*
X61972139Y-105401955D01*
X62000872Y-105365039D01*
X62115479Y-105153264D01*
X62193666Y-104925513D01*
X62233300Y-104687999D01*
X62233300Y-104447201D01*
X62193666Y-104209687D01*
X62170362Y-104141806D01*
X62115481Y-103981943D01*
X62115478Y-103981934D01*
X62000870Y-103770158D01*
X61974679Y-103736508D01*
X61852971Y-103580137D01*
X61675810Y-103417049D01*
X61474222Y-103285345D01*
X61474219Y-103285343D01*
X61474218Y-103285343D01*
X61253705Y-103188617D01*
X61020272Y-103129504D01*
X60840410Y-103114600D01*
X60840400Y-103114600D01*
X60625200Y-103114600D01*
X60625189Y-103114600D01*
X60445327Y-103129504D01*
X60211894Y-103188617D01*
X59991381Y-103285343D01*
X59991377Y-103285345D01*
X59991378Y-103285345D01*
X59789790Y-103417049D01*
X59612629Y-103580137D01*
X59598491Y-103598302D01*
X59464729Y-103770158D01*
X59350121Y-103981934D01*
X59350118Y-103981943D01*
X59323781Y-104058660D01*
X59283395Y-104115675D01*
X59218596Y-104141806D01*
X59149956Y-104128754D01*
X59099268Y-104080666D01*
X59082500Y-104018397D01*
X59082500Y-99539255D01*
X59102185Y-99472216D01*
X59154989Y-99426461D01*
X59224147Y-99416517D01*
X59280809Y-99439987D01*
X59323861Y-99472216D01*
X59342668Y-99486295D01*
X59342671Y-99486297D01*
X59477517Y-99536591D01*
X59477516Y-99536591D01*
X59484444Y-99537335D01*
X59537127Y-99543000D01*
X61632872Y-99542999D01*
X61692483Y-99536591D01*
X61827331Y-99486296D01*
X61942546Y-99400046D01*
X62028796Y-99284831D01*
X62079091Y-99149983D01*
X62085500Y-99090373D01*
X62085499Y-97174499D01*
X62105184Y-97107461D01*
X62157987Y-97061706D01*
X62209499Y-97050500D01*
X62502981Y-97050500D01*
X62510652Y-97050975D01*
X62537779Y-97054357D01*
X62629755Y-97050552D01*
X62632315Y-97050500D01*
X62662066Y-97050500D01*
X62662067Y-97050500D01*
X62691726Y-97048041D01*
X62694257Y-97047884D01*
X62786237Y-97044081D01*
X62812982Y-97038472D01*
X62820582Y-97037364D01*
X62847821Y-97035108D01*
X62937101Y-97012498D01*
X62939492Y-97011945D01*
X63029614Y-96993049D01*
X63055077Y-96983112D01*
X63062374Y-96980774D01*
X63088881Y-96974063D01*
X63149310Y-96947556D01*
X63173164Y-96937093D01*
X63175532Y-96936112D01*
X63179145Y-96934701D01*
X63261274Y-96902656D01*
X63284761Y-96888659D01*
X63291581Y-96885149D01*
X63316607Y-96874173D01*
X63393665Y-96823827D01*
X63395791Y-96822500D01*
X63474894Y-96775366D01*
X63495754Y-96757697D01*
X63501894Y-96753117D01*
X63524785Y-96738164D01*
X63592530Y-96675798D01*
X63594373Y-96674171D01*
X63617126Y-96654902D01*
X63638196Y-96633830D01*
X63639970Y-96632127D01*
X63707738Y-96569744D01*
X63724530Y-96548167D01*
X63729604Y-96542422D01*
X65940426Y-94331599D01*
X65946163Y-94326534D01*
X65967744Y-94309738D01*
X66030138Y-94241958D01*
X66031841Y-94240184D01*
X66052901Y-94219126D01*
X66072132Y-94196419D01*
X66073830Y-94194496D01*
X66136164Y-94126785D01*
X66151117Y-94103894D01*
X66155697Y-94097754D01*
X66173366Y-94076894D01*
X66220516Y-93997763D01*
X66221795Y-93995715D01*
X66272173Y-93918607D01*
X66283148Y-93893584D01*
X66286668Y-93886747D01*
X66300655Y-93863274D01*
X66334121Y-93777506D01*
X66335077Y-93775197D01*
X66372063Y-93690881D01*
X66378774Y-93664374D01*
X66381112Y-93657077D01*
X66391049Y-93631614D01*
X66409938Y-93541523D01*
X66410507Y-93539067D01*
X66433106Y-93449827D01*
X66433108Y-93449821D01*
X66435364Y-93422583D01*
X66436471Y-93414980D01*
X66442080Y-93388237D01*
X66445883Y-93296264D01*
X66446040Y-93293749D01*
X66448500Y-93264067D01*
X66448499Y-93234307D01*
X66448552Y-93231744D01*
X66452357Y-93139779D01*
X66448975Y-93112649D01*
X66448499Y-93104998D01*
X66448499Y-90147870D01*
X70969500Y-90147870D01*
X70969501Y-90147876D01*
X70975908Y-90207483D01*
X71026202Y-90342328D01*
X71026206Y-90342335D01*
X71112452Y-90457544D01*
X71112455Y-90457547D01*
X71227664Y-90543793D01*
X71227671Y-90543797D01*
X71362517Y-90594091D01*
X71362516Y-90594091D01*
X71369444Y-90594835D01*
X71422127Y-90600500D01*
X73717872Y-90600499D01*
X73777483Y-90594091D01*
X73912331Y-90543796D01*
X74027546Y-90457546D01*
X74113796Y-90342331D01*
X74164091Y-90207483D01*
X74170500Y-90147873D01*
X74170499Y-88999999D01*
X81124551Y-88999999D01*
X81144317Y-89251151D01*
X81203126Y-89496110D01*
X81299533Y-89728859D01*
X81431160Y-89943653D01*
X81431161Y-89943656D01*
X81431164Y-89943659D01*
X81594776Y-90135224D01*
X81743066Y-90261875D01*
X81786343Y-90298838D01*
X81786346Y-90298839D01*
X82001140Y-90430466D01*
X82233888Y-90526872D01*
X82233889Y-90526873D01*
X82478852Y-90585683D01*
X82730000Y-90605449D01*
X82981148Y-90585683D01*
X83226111Y-90526873D01*
X83458859Y-90430466D01*
X83673659Y-90298836D01*
X83865224Y-90135224D01*
X84028836Y-89943659D01*
X84160466Y-89728859D01*
X84256873Y-89496111D01*
X84315683Y-89251148D01*
X84335449Y-89000000D01*
X84315683Y-88748852D01*
X84256873Y-88503889D01*
X84186089Y-88333000D01*
X84160466Y-88271140D01*
X84028839Y-88056346D01*
X84028838Y-88056343D01*
X83980726Y-88000011D01*
X83865224Y-87864776D01*
X83701968Y-87725342D01*
X83673656Y-87701161D01*
X83673653Y-87701160D01*
X83458859Y-87569533D01*
X83226110Y-87473126D01*
X82981151Y-87414317D01*
X82792786Y-87399492D01*
X82730000Y-87394551D01*
X82729999Y-87394551D01*
X82478848Y-87414317D01*
X82233889Y-87473126D01*
X82001140Y-87569533D01*
X81786346Y-87701160D01*
X81786343Y-87701161D01*
X81594776Y-87864776D01*
X81431161Y-88056343D01*
X81431160Y-88056346D01*
X81299533Y-88271140D01*
X81203126Y-88503889D01*
X81144317Y-88748848D01*
X81124551Y-88999999D01*
X74170499Y-88999999D01*
X74170499Y-87852128D01*
X74164091Y-87792517D01*
X74149996Y-87754727D01*
X74113797Y-87657671D01*
X74113793Y-87657664D01*
X74027547Y-87542455D01*
X74027544Y-87542452D01*
X73912335Y-87456206D01*
X73912328Y-87456202D01*
X73777482Y-87405908D01*
X73777483Y-87405908D01*
X73717883Y-87399501D01*
X73717881Y-87399500D01*
X73717873Y-87399500D01*
X73717864Y-87399500D01*
X71422129Y-87399500D01*
X71422123Y-87399501D01*
X71362516Y-87405908D01*
X71227671Y-87456202D01*
X71227664Y-87456206D01*
X71112455Y-87542452D01*
X71112452Y-87542455D01*
X71026206Y-87657664D01*
X71026202Y-87657671D01*
X70975908Y-87792517D01*
X70969501Y-87852116D01*
X70969501Y-87852123D01*
X70969500Y-87852135D01*
X70969500Y-90147870D01*
X66448499Y-90147870D01*
X66448499Y-83095014D01*
X66448976Y-83087336D01*
X66452357Y-83060221D01*
X66448551Y-82968243D01*
X66448499Y-82965682D01*
X66448499Y-82952901D01*
X66448500Y-82935933D01*
X66446042Y-82906278D01*
X66445884Y-82903731D01*
X66445604Y-82896951D01*
X66442081Y-82811763D01*
X66436473Y-82785016D01*
X66435364Y-82777406D01*
X66433109Y-82750187D01*
X66433107Y-82750175D01*
X66410516Y-82660964D01*
X66409938Y-82658467D01*
X66402608Y-82623509D01*
X66391050Y-82568386D01*
X66381112Y-82542920D01*
X66378774Y-82535623D01*
X66372063Y-82509119D01*
X66335088Y-82424825D01*
X66334121Y-82422492D01*
X66300656Y-82336727D01*
X66286665Y-82313248D01*
X66283150Y-82306418D01*
X66278798Y-82296497D01*
X66272173Y-82281393D01*
X66265477Y-82271144D01*
X66221828Y-82204333D01*
X66220484Y-82202181D01*
X66173366Y-82123106D01*
X66155702Y-82102250D01*
X66151106Y-82096086D01*
X66136166Y-82073218D01*
X66136165Y-82073217D01*
X66136164Y-82073215D01*
X66073825Y-82005497D01*
X66072129Y-82003576D01*
X66052902Y-81980874D01*
X66052894Y-81980866D01*
X66052889Y-81980860D01*
X66042377Y-81970349D01*
X66031841Y-81959813D01*
X66030090Y-81957988D01*
X65967747Y-81890265D01*
X65967746Y-81890264D01*
X65967744Y-81890262D01*
X65946174Y-81873473D01*
X65940412Y-81868384D01*
X64879615Y-80807587D01*
X64874524Y-80801822D01*
X64857739Y-80780257D01*
X64857734Y-80780252D01*
X64790010Y-80717908D01*
X64788184Y-80716156D01*
X64772453Y-80700425D01*
X64767132Y-80695103D01*
X64744410Y-80675858D01*
X64742489Y-80674162D01*
X64674786Y-80611837D01*
X64674785Y-80611836D01*
X64651904Y-80596887D01*
X64645747Y-80592296D01*
X64624894Y-80574634D01*
X64545787Y-80527496D01*
X64543682Y-80526181D01*
X64510423Y-80504453D01*
X64466604Y-80475824D01*
X64441588Y-80464852D01*
X64434750Y-80461332D01*
X64411275Y-80447344D01*
X64325534Y-80413887D01*
X64323167Y-80412907D01*
X64265725Y-80387711D01*
X64238881Y-80375937D01*
X64238879Y-80375936D01*
X64238878Y-80375936D01*
X64212387Y-80369227D01*
X64205067Y-80366882D01*
X64179616Y-80356951D01*
X64179608Y-80356949D01*
X64089539Y-80338063D01*
X64087044Y-80337485D01*
X63997820Y-80314891D01*
X63970590Y-80312635D01*
X63962983Y-80311526D01*
X63942986Y-80307334D01*
X63936237Y-80305919D01*
X63936235Y-80305918D01*
X63844279Y-80302115D01*
X63841723Y-80301957D01*
X63838735Y-80301709D01*
X63812067Y-80299500D01*
X63812064Y-80299500D01*
X63782315Y-80299500D01*
X63779755Y-80299447D01*
X63723903Y-80297137D01*
X63687780Y-80295643D01*
X63687779Y-80295643D01*
X63660652Y-80299024D01*
X63652981Y-80299500D01*
X60552922Y-80299500D01*
X60367186Y-80314890D01*
X60367175Y-80314892D01*
X60126118Y-80375936D01*
X59898393Y-80475826D01*
X59690217Y-80611833D01*
X59507261Y-80780257D01*
X59354524Y-80976493D01*
X59236172Y-81195188D01*
X59236169Y-81195197D01*
X59155429Y-81430383D01*
X59138630Y-81531058D01*
X59114500Y-81675665D01*
X59114500Y-81924335D01*
X59118284Y-81947012D01*
X59155429Y-82169616D01*
X59236169Y-82404802D01*
X59236172Y-82404811D01*
X59341496Y-82599432D01*
X59354526Y-82623509D01*
X59366847Y-82639340D01*
X59392489Y-82704332D01*
X59378922Y-82772872D01*
X59330454Y-82823197D01*
X59268993Y-82839500D01*
X57505018Y-82839500D01*
X57497342Y-82839023D01*
X57470220Y-82835642D01*
X57470219Y-82835642D01*
X57383376Y-82839234D01*
X57378244Y-82839447D01*
X57375685Y-82839500D01*
X57345933Y-82839500D01*
X57337151Y-82840227D01*
X57316274Y-82841957D01*
X57313719Y-82842115D01*
X57221763Y-82845919D01*
X57221750Y-82845920D01*
X57195016Y-82851526D01*
X57187408Y-82852635D01*
X57160185Y-82854890D01*
X57160175Y-82854892D01*
X57070960Y-82877484D01*
X57068465Y-82878062D01*
X56978395Y-82896948D01*
X56978379Y-82896953D01*
X56952935Y-82906881D01*
X56945616Y-82909226D01*
X56919122Y-82915935D01*
X56919118Y-82915936D01*
X56868406Y-82938181D01*
X56834834Y-82952906D01*
X56832481Y-82953881D01*
X56746727Y-82987343D01*
X56746717Y-82987348D01*
X56723244Y-83001335D01*
X56716409Y-83004853D01*
X56691397Y-83015824D01*
X56691389Y-83015829D01*
X56614345Y-83066162D01*
X56612173Y-83067518D01*
X56533104Y-83114635D01*
X56512250Y-83132297D01*
X56506087Y-83136892D01*
X56483215Y-83151835D01*
X56483212Y-83151837D01*
X56415506Y-83214166D01*
X56413586Y-83215861D01*
X56390877Y-83235094D01*
X56390865Y-83235104D01*
X56369834Y-83256136D01*
X56367986Y-83257909D01*
X56300262Y-83320255D01*
X56283471Y-83341827D01*
X56278382Y-83347588D01*
X54303588Y-85322382D01*
X54297827Y-85327471D01*
X54276255Y-85344262D01*
X54213909Y-85411986D01*
X54212136Y-85413834D01*
X54191104Y-85434865D01*
X54191094Y-85434877D01*
X54171861Y-85457586D01*
X54170166Y-85459506D01*
X54107837Y-85527212D01*
X54107835Y-85527215D01*
X54092892Y-85550087D01*
X54088297Y-85556250D01*
X54070635Y-85577104D01*
X54023518Y-85656173D01*
X54022162Y-85658345D01*
X53971829Y-85735389D01*
X53971824Y-85735397D01*
X53960853Y-85760409D01*
X53957335Y-85767244D01*
X53943348Y-85790717D01*
X53943343Y-85790727D01*
X53909881Y-85876481D01*
X53908901Y-85878848D01*
X53871936Y-85963118D01*
X53871935Y-85963122D01*
X53865226Y-85989616D01*
X53862881Y-85996935D01*
X53852953Y-86022379D01*
X53852948Y-86022395D01*
X53834062Y-86112465D01*
X53833484Y-86114960D01*
X53810892Y-86204175D01*
X53810890Y-86204185D01*
X53808635Y-86231408D01*
X53807526Y-86239016D01*
X53801920Y-86265750D01*
X53801919Y-86265763D01*
X53801058Y-86286572D01*
X53778618Y-86352740D01*
X53764845Y-86369126D01*
X53627588Y-86506384D01*
X53621824Y-86511474D01*
X53600256Y-86528261D01*
X53537909Y-86595987D01*
X53536136Y-86597835D01*
X53515094Y-86618877D01*
X53495861Y-86641586D01*
X53494166Y-86643506D01*
X53431837Y-86711212D01*
X53431835Y-86711215D01*
X53416892Y-86734087D01*
X53412297Y-86740250D01*
X53394635Y-86761104D01*
X53347518Y-86840173D01*
X53346162Y-86842345D01*
X53295829Y-86919389D01*
X53295824Y-86919397D01*
X53284853Y-86944409D01*
X53281335Y-86951244D01*
X53267348Y-86974717D01*
X53267343Y-86974727D01*
X53233881Y-87060481D01*
X53232901Y-87062848D01*
X53195936Y-87147118D01*
X53195935Y-87147122D01*
X53189226Y-87173616D01*
X53186881Y-87180935D01*
X53176953Y-87206379D01*
X53176948Y-87206395D01*
X53158062Y-87296465D01*
X53157484Y-87298960D01*
X53134892Y-87388175D01*
X53134890Y-87388185D01*
X53132635Y-87415408D01*
X53131526Y-87423016D01*
X53125920Y-87449750D01*
X53125919Y-87449763D01*
X53122115Y-87541719D01*
X53121957Y-87544274D01*
X53119500Y-87573934D01*
X53119500Y-87603683D01*
X53119447Y-87606246D01*
X53115642Y-87698219D01*
X53115642Y-87698220D01*
X53119023Y-87725342D01*
X53119500Y-87733018D01*
X53119500Y-120222981D01*
X53119024Y-120230656D01*
X53115643Y-120257779D01*
X53119447Y-120349752D01*
X53119500Y-120352315D01*
X53119500Y-120382064D01*
X53121957Y-120411723D01*
X53122115Y-120414279D01*
X53125918Y-120506233D01*
X53131526Y-120532983D01*
X53132635Y-120540590D01*
X53134891Y-120567818D01*
X53134891Y-120567822D01*
X53157485Y-120657044D01*
X53158063Y-120659539D01*
X53176949Y-120749608D01*
X53176951Y-120749616D01*
X53186882Y-120775067D01*
X53189227Y-120782387D01*
X53195936Y-120808878D01*
X53232907Y-120893167D01*
X53233887Y-120895534D01*
X53267344Y-120981275D01*
X53281332Y-121004750D01*
X53284852Y-121011588D01*
X53295824Y-121036604D01*
X53324453Y-121080423D01*
X53346181Y-121113682D01*
X53347496Y-121115787D01*
X53394634Y-121194894D01*
X53412296Y-121215747D01*
X53416887Y-121221904D01*
X53431836Y-121244785D01*
X53431837Y-121244786D01*
X53494162Y-121312489D01*
X53495858Y-121314410D01*
X53515103Y-121337132D01*
X53522103Y-121344131D01*
X53536156Y-121358184D01*
X53537908Y-121360010D01*
X53600252Y-121427734D01*
X53600257Y-121427739D01*
X53621822Y-121444524D01*
X53627587Y-121449615D01*
X57468392Y-125290419D01*
X57473476Y-125296177D01*
X57490258Y-125317739D01*
X57490265Y-125317747D01*
X57558000Y-125380101D01*
X57559825Y-125381852D01*
X57570359Y-125392386D01*
X57580868Y-125402896D01*
X57603578Y-125422131D01*
X57605499Y-125423827D01*
X57673215Y-125486164D01*
X57673216Y-125486165D01*
X57696089Y-125501108D01*
X57702252Y-125505704D01*
X57719394Y-125520222D01*
X57723106Y-125523366D01*
X57802181Y-125570484D01*
X57804333Y-125571828D01*
X57874173Y-125617456D01*
X57881393Y-125622173D01*
X57906418Y-125633150D01*
X57913248Y-125636665D01*
X57936727Y-125650656D01*
X58022492Y-125684121D01*
X58024827Y-125685088D01*
X58109119Y-125722063D01*
X58135623Y-125728774D01*
X58142920Y-125731112D01*
X58168386Y-125741050D01*
X58258477Y-125759940D01*
X58260964Y-125760516D01*
X58350171Y-125783106D01*
X58350179Y-125783108D01*
X58350182Y-125783108D01*
X58350187Y-125783109D01*
X58377406Y-125785364D01*
X58385016Y-125786473D01*
X58395505Y-125788672D01*
X58411763Y-125792081D01*
X58503738Y-125795884D01*
X58506278Y-125796042D01*
X58535933Y-125798500D01*
X58565685Y-125798500D01*
X58568244Y-125798552D01*
X58660221Y-125802357D01*
X58687347Y-125798975D01*
X58695019Y-125798500D01*
X63548330Y-125798500D01*
X63548335Y-125798500D01*
X63607233Y-125788670D01*
X63612309Y-125788038D01*
X63671821Y-125783108D01*
X63729722Y-125768445D01*
X63734708Y-125767400D01*
X63793614Y-125757571D01*
X63850096Y-125738179D01*
X63854984Y-125736723D01*
X63912881Y-125722063D01*
X63967560Y-125698077D01*
X63972323Y-125696218D01*
X64028810Y-125676828D01*
X64081327Y-125648405D01*
X64085920Y-125646159D01*
X64140607Y-125622173D01*
X64190593Y-125589515D01*
X64194983Y-125586898D01*
X64247509Y-125558474D01*
X64294649Y-125521782D01*
X64298795Y-125518822D01*
X64348785Y-125486164D01*
X64392720Y-125445717D01*
X64396613Y-125442419D01*
X64443744Y-125405738D01*
X64484206Y-125361783D01*
X64487783Y-125358206D01*
X64531738Y-125317744D01*
X64568419Y-125270613D01*
X64571722Y-125266715D01*
X64612164Y-125222785D01*
X64644822Y-125172795D01*
X64647782Y-125168649D01*
X64684474Y-125121509D01*
X64704132Y-125085183D01*
X64725500Y-125056526D01*
X68025208Y-121756819D01*
X68086531Y-121723334D01*
X68112889Y-121720500D01*
X89917981Y-121720500D01*
X89925652Y-121720975D01*
X89952779Y-121724357D01*
X90044755Y-121720552D01*
X90047315Y-121720500D01*
X90077066Y-121720500D01*
X90077067Y-121720500D01*
X90106726Y-121718041D01*
X90109257Y-121717884D01*
X90201237Y-121714081D01*
X90227982Y-121708472D01*
X90235582Y-121707364D01*
X90262821Y-121705108D01*
X90352101Y-121682498D01*
X90354492Y-121681945D01*
X90444614Y-121663049D01*
X90470077Y-121653112D01*
X90477374Y-121650774D01*
X90503881Y-121644063D01*
X90564310Y-121617556D01*
X90588164Y-121607093D01*
X90590532Y-121606112D01*
X90594145Y-121604701D01*
X90676274Y-121572656D01*
X90699761Y-121558659D01*
X90706581Y-121555149D01*
X90731607Y-121544173D01*
X90808665Y-121493827D01*
X90810791Y-121492500D01*
X90889894Y-121445366D01*
X90910754Y-121427697D01*
X90916894Y-121423117D01*
X90939785Y-121408164D01*
X91007530Y-121345798D01*
X91009373Y-121344171D01*
X91032126Y-121324902D01*
X91053196Y-121303830D01*
X91054970Y-121302127D01*
X91122738Y-121239744D01*
X91139530Y-121218167D01*
X91144604Y-121212422D01*
X93605209Y-118751817D01*
X93666532Y-118718333D01*
X93692890Y-118715499D01*
X94020371Y-118715499D01*
X94020372Y-118715499D01*
X94079983Y-118709091D01*
X94214831Y-118658796D01*
X94330046Y-118572546D01*
X94416296Y-118457331D01*
X94427725Y-118426687D01*
X94469594Y-118370755D01*
X94535058Y-118346336D01*
X94603331Y-118361186D01*
X94620069Y-118372167D01*
X94762552Y-118483066D01*
X94762558Y-118483070D01*
X94762561Y-118483072D01*
X94974336Y-118597679D01*
X95092598Y-118638278D01*
X95202083Y-118675865D01*
X95202085Y-118675865D01*
X95202087Y-118675866D01*
X95439601Y-118715500D01*
X95439602Y-118715500D01*
X95680398Y-118715500D01*
X95680399Y-118715500D01*
X95917913Y-118675866D01*
X96145664Y-118597679D01*
X96357439Y-118483072D01*
X96547463Y-118335171D01*
X96710551Y-118158010D01*
X96726190Y-118134071D01*
X96779336Y-118088714D01*
X96848567Y-118079290D01*
X96911904Y-118108791D01*
X96933808Y-118134070D01*
X96949449Y-118158010D01*
X97112537Y-118335171D01*
X97302561Y-118483072D01*
X97514336Y-118597679D01*
X97632598Y-118638278D01*
X97742083Y-118675865D01*
X97742085Y-118675865D01*
X97742087Y-118675866D01*
X97979601Y-118715500D01*
X97979602Y-118715500D01*
X98220398Y-118715500D01*
X98220399Y-118715500D01*
X98457913Y-118675866D01*
X98685664Y-118597679D01*
X98897439Y-118483072D01*
X99087463Y-118335171D01*
X99250551Y-118158010D01*
X99382255Y-117956422D01*
X99478983Y-117735905D01*
X99538095Y-117502476D01*
X99553000Y-117322600D01*
X99553000Y-117107400D01*
X99538095Y-116927524D01*
X99478983Y-116694095D01*
X99382255Y-116473578D01*
X99250551Y-116271990D01*
X99133269Y-116144587D01*
X99102348Y-116081933D01*
X99100500Y-116060605D01*
X99100500Y-113543491D01*
X99100520Y-113541921D01*
X99102757Y-113453641D01*
X99102756Y-113453640D01*
X99102757Y-113453637D01*
X99091933Y-113393253D01*
X99091280Y-113388587D01*
X99087372Y-113350160D01*
X99085074Y-113327562D01*
X99074788Y-113294780D01*
X99072918Y-113287166D01*
X99066858Y-113253348D01*
X99044092Y-113196352D01*
X99042527Y-113191955D01*
X99024159Y-113133412D01*
X99007491Y-113103382D01*
X99004120Y-113096284D01*
X98991378Y-113064384D01*
X98991377Y-113064381D01*
X98967799Y-113028607D01*
X98957605Y-113013139D01*
X98955183Y-113009142D01*
X98925409Y-112955498D01*
X98903034Y-112929434D01*
X98898306Y-112923163D01*
X98879404Y-112894484D01*
X98879399Y-112894478D01*
X98857715Y-112872795D01*
X98836019Y-112851099D01*
X98832828Y-112847655D01*
X98792865Y-112801104D01*
X98765694Y-112780072D01*
X98759807Y-112774887D01*
X94716973Y-108732053D01*
X94715915Y-108730967D01*
X94655061Y-108666949D01*
X94655060Y-108666948D01*
X94655059Y-108666947D01*
X94620452Y-108642860D01*
X94604709Y-108631902D01*
X94600946Y-108629064D01*
X94553413Y-108590305D01*
X94553406Y-108590300D01*
X94522959Y-108574397D01*
X94516251Y-108570334D01*
X94488049Y-108550705D01*
X94488046Y-108550703D01*
X94488045Y-108550703D01*
X94488041Y-108550701D01*
X94431680Y-108526514D01*
X94427424Y-108524493D01*
X94373057Y-108496094D01*
X94373050Y-108496091D01*
X94373049Y-108496091D01*
X94367008Y-108494362D01*
X94340030Y-108486642D01*
X94332630Y-108484008D01*
X94301057Y-108470459D01*
X94301058Y-108470459D01*
X94240966Y-108458109D01*
X94236391Y-108456986D01*
X94177420Y-108440113D01*
X94177425Y-108440113D01*
X94143158Y-108437503D01*
X94135380Y-108436412D01*
X94101742Y-108429500D01*
X94101741Y-108429500D01*
X94040402Y-108429500D01*
X94035695Y-108429321D01*
X94030121Y-108428896D01*
X93974524Y-108424662D01*
X93954589Y-108427201D01*
X93940440Y-108429003D01*
X93932611Y-108429500D01*
X92974500Y-108429500D01*
X92907461Y-108409815D01*
X92861706Y-108357011D01*
X92850500Y-108305500D01*
X92850500Y-88105598D01*
X92870185Y-88038559D01*
X92922989Y-87992804D01*
X92976531Y-87981615D01*
X108006034Y-88228000D01*
X108072740Y-88248780D01*
X108117624Y-88302327D01*
X108128000Y-88351983D01*
X108128000Y-133826567D01*
X108108315Y-133893606D01*
X108055511Y-133939361D01*
X108004569Y-133950566D01*
X58968933Y-134175500D01*
X52880000Y-134175500D01*
X52812961Y-134155815D01*
X52767206Y-134103011D01*
X52756000Y-134051500D01*
X52756000Y-131126250D01*
X58349341Y-131126250D01*
X58369936Y-131361653D01*
X58369938Y-131361663D01*
X58431094Y-131589905D01*
X58431096Y-131589909D01*
X58431097Y-131589913D01*
X58435000Y-131598282D01*
X58530965Y-131804080D01*
X58530967Y-131804084D01*
X58639281Y-131958771D01*
X58666505Y-131997651D01*
X58833599Y-132164745D01*
X58930384Y-132232515D01*
X59027165Y-132300282D01*
X59027167Y-132300283D01*
X59027170Y-132300285D01*
X59241337Y-132400153D01*
X59469592Y-132461313D01*
X59657918Y-132477789D01*
X59704999Y-132481909D01*
X59705000Y-132481909D01*
X59705001Y-132481909D01*
X59744234Y-132478476D01*
X59940408Y-132461313D01*
X60168663Y-132400153D01*
X60382830Y-132300285D01*
X60576401Y-132164745D01*
X60743495Y-131997651D01*
X60873426Y-131812090D01*
X60928001Y-131768467D01*
X60997499Y-131761273D01*
X61059854Y-131792796D01*
X61076574Y-131812091D01*
X61206505Y-131997651D01*
X61373599Y-132164745D01*
X61470384Y-132232514D01*
X61567165Y-132300282D01*
X61567167Y-132300283D01*
X61567170Y-132300285D01*
X61781337Y-132400153D01*
X62009592Y-132461313D01*
X62197918Y-132477789D01*
X62244999Y-132481909D01*
X62245000Y-132481909D01*
X62245001Y-132481909D01*
X62284234Y-132478476D01*
X62480408Y-132461313D01*
X62708663Y-132400153D01*
X62922830Y-132300285D01*
X63116401Y-132164745D01*
X63283495Y-131997651D01*
X63419035Y-131804080D01*
X63518903Y-131589913D01*
X63580063Y-131361658D01*
X63580938Y-131351656D01*
X87704500Y-131351656D01*
X87719789Y-131536165D01*
X87719789Y-131536168D01*
X87719790Y-131536169D01*
X87780428Y-131775623D01*
X87879652Y-132001831D01*
X88014755Y-132208621D01*
X88182052Y-132390355D01*
X88182055Y-132390357D01*
X88182058Y-132390360D01*
X88376971Y-132542067D01*
X88376977Y-132542071D01*
X88376980Y-132542073D01*
X88594221Y-132659638D01*
X88715536Y-132701285D01*
X88827846Y-132739842D01*
X88827848Y-132739842D01*
X88827850Y-132739843D01*
X89071494Y-132780500D01*
X89071495Y-132780500D01*
X89318505Y-132780500D01*
X89318506Y-132780500D01*
X89562150Y-132739843D01*
X89795779Y-132659638D01*
X90013020Y-132542073D01*
X90038380Y-132522335D01*
X90116783Y-132461311D01*
X90207948Y-132390355D01*
X90265469Y-132327870D01*
X92704500Y-132327870D01*
X92704501Y-132327876D01*
X92710908Y-132387483D01*
X92761202Y-132522328D01*
X92761206Y-132522335D01*
X92847452Y-132637544D01*
X92847455Y-132637547D01*
X92962664Y-132723793D01*
X92962671Y-132723797D01*
X93097517Y-132774091D01*
X93097516Y-132774091D01*
X93104444Y-132774835D01*
X93157127Y-132780500D01*
X95232872Y-132780499D01*
X95292483Y-132774091D01*
X95427331Y-132723796D01*
X95542546Y-132637546D01*
X95628796Y-132522331D01*
X95679091Y-132387483D01*
X95685500Y-132327873D01*
X95685500Y-131126250D01*
X101349341Y-131126250D01*
X101369936Y-131361653D01*
X101369938Y-131361663D01*
X101431094Y-131589905D01*
X101431096Y-131589909D01*
X101431097Y-131589913D01*
X101435000Y-131598282D01*
X101530965Y-131804080D01*
X101530967Y-131804084D01*
X101639281Y-131958771D01*
X101666505Y-131997651D01*
X101833599Y-132164745D01*
X101930384Y-132232514D01*
X102027165Y-132300282D01*
X102027167Y-132300283D01*
X102027170Y-132300285D01*
X102241337Y-132400153D01*
X102469592Y-132461313D01*
X102657918Y-132477789D01*
X102704999Y-132481909D01*
X102705000Y-132481909D01*
X102705001Y-132481909D01*
X102744234Y-132478476D01*
X102940408Y-132461313D01*
X103168663Y-132400153D01*
X103382830Y-132300285D01*
X103576401Y-132164745D01*
X103743495Y-131997651D01*
X103873426Y-131812091D01*
X103928002Y-131768467D01*
X103997500Y-131761273D01*
X104059855Y-131792796D01*
X104076575Y-131812092D01*
X104206500Y-131997645D01*
X104206505Y-131997651D01*
X104373599Y-132164745D01*
X104470384Y-132232514D01*
X104567165Y-132300282D01*
X104567167Y-132300283D01*
X104567170Y-132300285D01*
X104781337Y-132400153D01*
X105009592Y-132461313D01*
X105197918Y-132477789D01*
X105244999Y-132481909D01*
X105245000Y-132481909D01*
X105245001Y-132481909D01*
X105284234Y-132478476D01*
X105480408Y-132461313D01*
X105708663Y-132400153D01*
X105922830Y-132300285D01*
X106116401Y-132164745D01*
X106283495Y-131997651D01*
X106419035Y-131804080D01*
X106518903Y-131589913D01*
X106580063Y-131361658D01*
X106600659Y-131126250D01*
X106580063Y-130890842D01*
X106518903Y-130662587D01*
X106419035Y-130448421D01*
X106283495Y-130254849D01*
X106283494Y-130254847D01*
X106116402Y-130087756D01*
X106116401Y-130087755D01*
X105993800Y-130001909D01*
X105930841Y-129957824D01*
X105887216Y-129903247D01*
X105880024Y-129833748D01*
X105911546Y-129771394D01*
X105930836Y-129754678D01*
X106116401Y-129624745D01*
X106283495Y-129457651D01*
X106419035Y-129264080D01*
X106518903Y-129049913D01*
X106580063Y-128821658D01*
X106600659Y-128586250D01*
X106580063Y-128350842D01*
X106518903Y-128122587D01*
X106419035Y-127908421D01*
X106396476Y-127876202D01*
X106283494Y-127714847D01*
X106116402Y-127547756D01*
X106116395Y-127547751D01*
X105922834Y-127412217D01*
X105922830Y-127412215D01*
X105922828Y-127412214D01*
X105708663Y-127312347D01*
X105708659Y-127312346D01*
X105708655Y-127312344D01*
X105480413Y-127251188D01*
X105480403Y-127251186D01*
X105245001Y-127230591D01*
X105244999Y-127230591D01*
X105009596Y-127251186D01*
X105009586Y-127251188D01*
X104781344Y-127312344D01*
X104781335Y-127312348D01*
X104567171Y-127412214D01*
X104567169Y-127412215D01*
X104373600Y-127547753D01*
X104251673Y-127669680D01*
X104190350Y-127703164D01*
X104120658Y-127698180D01*
X104064725Y-127656308D01*
X104047810Y-127625331D01*
X103998797Y-127493921D01*
X103998793Y-127493914D01*
X103912547Y-127378705D01*
X103912544Y-127378702D01*
X103797335Y-127292456D01*
X103797328Y-127292452D01*
X103662482Y-127242158D01*
X103662483Y-127242158D01*
X103602883Y-127235751D01*
X103602881Y-127235750D01*
X103602873Y-127235750D01*
X103602864Y-127235750D01*
X101807129Y-127235750D01*
X101807123Y-127235751D01*
X101747516Y-127242158D01*
X101612671Y-127292452D01*
X101612664Y-127292456D01*
X101497455Y-127378702D01*
X101497452Y-127378705D01*
X101411206Y-127493914D01*
X101411202Y-127493921D01*
X101360908Y-127628767D01*
X101354501Y-127688366D01*
X101354500Y-127688385D01*
X101354500Y-129484120D01*
X101354501Y-129484126D01*
X101360908Y-129543733D01*
X101411202Y-129678578D01*
X101411206Y-129678585D01*
X101497452Y-129793794D01*
X101497455Y-129793797D01*
X101612664Y-129880043D01*
X101612671Y-129880047D01*
X101744081Y-129929060D01*
X101800015Y-129970931D01*
X101824432Y-130036395D01*
X101809580Y-130104668D01*
X101788430Y-130132923D01*
X101666503Y-130254850D01*
X101530965Y-130448419D01*
X101530964Y-130448421D01*
X101431098Y-130662585D01*
X101431094Y-130662594D01*
X101369938Y-130890836D01*
X101369936Y-130890846D01*
X101349341Y-131126249D01*
X101349341Y-131126250D01*
X95685500Y-131126250D01*
X95685499Y-128272128D01*
X95679091Y-128212517D01*
X95645549Y-128122587D01*
X95628797Y-128077671D01*
X95628793Y-128077664D01*
X95542547Y-127962455D01*
X95542544Y-127962452D01*
X95427335Y-127876206D01*
X95427328Y-127876202D01*
X95292482Y-127825908D01*
X95292483Y-127825908D01*
X95232883Y-127819501D01*
X95232881Y-127819500D01*
X95232873Y-127819500D01*
X95232864Y-127819500D01*
X93157129Y-127819500D01*
X93157123Y-127819501D01*
X93097516Y-127825908D01*
X92962671Y-127876202D01*
X92962664Y-127876206D01*
X92847455Y-127962452D01*
X92847452Y-127962455D01*
X92761206Y-128077664D01*
X92761202Y-128077671D01*
X92710908Y-128212517D01*
X92704501Y-128272116D01*
X92704501Y-128272123D01*
X92704500Y-128272135D01*
X92704500Y-132327870D01*
X90265469Y-132327870D01*
X90375245Y-132208621D01*
X90510348Y-132001831D01*
X90609572Y-131775623D01*
X90670210Y-131536169D01*
X90685500Y-131351645D01*
X90685500Y-129248355D01*
X90670210Y-129063831D01*
X90609572Y-128824377D01*
X90510348Y-128598169D01*
X90375245Y-128391379D01*
X90207948Y-128209645D01*
X90207943Y-128209641D01*
X90207941Y-128209639D01*
X90013028Y-128057932D01*
X90013022Y-128057928D01*
X89795780Y-127940362D01*
X89795771Y-127940359D01*
X89562153Y-127860157D01*
X89356907Y-127825908D01*
X89318506Y-127819500D01*
X89071494Y-127819500D01*
X89033093Y-127825908D01*
X88827846Y-127860157D01*
X88594228Y-127940359D01*
X88594219Y-127940362D01*
X88376977Y-128057928D01*
X88376971Y-128057932D01*
X88182058Y-128209639D01*
X88182055Y-128209642D01*
X88014752Y-128391382D01*
X87879650Y-128598172D01*
X87780428Y-128824376D01*
X87719789Y-129063834D01*
X87704500Y-129248343D01*
X87704500Y-131351656D01*
X63580938Y-131351656D01*
X63600659Y-131126250D01*
X63580063Y-130890842D01*
X63518903Y-130662587D01*
X63419035Y-130448421D01*
X63283495Y-130254849D01*
X63283494Y-130254847D01*
X63116402Y-130087756D01*
X63116396Y-130087751D01*
X62930842Y-129957825D01*
X62887217Y-129903248D01*
X62880023Y-129833750D01*
X62911546Y-129771395D01*
X62930842Y-129754675D01*
X62953026Y-129739141D01*
X63116401Y-129624745D01*
X63283495Y-129457651D01*
X63419035Y-129264080D01*
X63518903Y-129049913D01*
X63580063Y-128821658D01*
X63600659Y-128586250D01*
X63580063Y-128350842D01*
X63518903Y-128122587D01*
X63419035Y-127908421D01*
X63396476Y-127876202D01*
X63283494Y-127714847D01*
X63116402Y-127547756D01*
X63116395Y-127547751D01*
X62922834Y-127412217D01*
X62922830Y-127412215D01*
X62922828Y-127412214D01*
X62708663Y-127312347D01*
X62708659Y-127312346D01*
X62708655Y-127312344D01*
X62480413Y-127251188D01*
X62480403Y-127251186D01*
X62245001Y-127230591D01*
X62244999Y-127230591D01*
X62009596Y-127251186D01*
X62009586Y-127251188D01*
X61781344Y-127312344D01*
X61781335Y-127312348D01*
X61567171Y-127412214D01*
X61567169Y-127412215D01*
X61373600Y-127547753D01*
X61251673Y-127669680D01*
X61190350Y-127703164D01*
X61120658Y-127698180D01*
X61064725Y-127656308D01*
X61047810Y-127625331D01*
X60998797Y-127493921D01*
X60998793Y-127493914D01*
X60912547Y-127378705D01*
X60912544Y-127378702D01*
X60797335Y-127292456D01*
X60797328Y-127292452D01*
X60662482Y-127242158D01*
X60662483Y-127242158D01*
X60602883Y-127235751D01*
X60602881Y-127235750D01*
X60602873Y-127235750D01*
X60602864Y-127235750D01*
X58807129Y-127235750D01*
X58807123Y-127235751D01*
X58747516Y-127242158D01*
X58612671Y-127292452D01*
X58612664Y-127292456D01*
X58497455Y-127378702D01*
X58497452Y-127378705D01*
X58411206Y-127493914D01*
X58411202Y-127493921D01*
X58360908Y-127628767D01*
X58354501Y-127688366D01*
X58354500Y-127688385D01*
X58354500Y-129484120D01*
X58354501Y-129484126D01*
X58360908Y-129543733D01*
X58411202Y-129678578D01*
X58411206Y-129678585D01*
X58497452Y-129793794D01*
X58497455Y-129793797D01*
X58612664Y-129880043D01*
X58612671Y-129880047D01*
X58744081Y-129929060D01*
X58800015Y-129970931D01*
X58824432Y-130036395D01*
X58809580Y-130104668D01*
X58788430Y-130132923D01*
X58666503Y-130254850D01*
X58530965Y-130448419D01*
X58530964Y-130448421D01*
X58431098Y-130662585D01*
X58431094Y-130662594D01*
X58369938Y-130890836D01*
X58369936Y-130890846D01*
X58349341Y-131126249D01*
X58349341Y-131126250D01*
X52756000Y-131126250D01*
X52756000Y-75906109D01*
X52775685Y-75839070D01*
X52828489Y-75793315D01*
X52878094Y-75782124D01*
X60076868Y-75671517D01*
X60144201Y-75690169D01*
X60166453Y-75707821D01*
X61024270Y-76565638D01*
X61036051Y-76579270D01*
X61050389Y-76598529D01*
X61052159Y-76600405D01*
X61052964Y-76601988D01*
X61054702Y-76604322D01*
X61054303Y-76604618D01*
X61083847Y-76662676D01*
X61076839Y-76732193D01*
X61033359Y-76786886D01*
X60967212Y-76809389D01*
X60961966Y-76809500D01*
X56823697Y-76809500D01*
X56816758Y-76809110D01*
X56789907Y-76806085D01*
X56778174Y-76804763D01*
X56778168Y-76804762D01*
X56732704Y-76807828D01*
X56709976Y-76809360D01*
X56705823Y-76809500D01*
X56693836Y-76809500D01*
X56652547Y-76813215D01*
X56651163Y-76813324D01*
X56553589Y-76819903D01*
X56549348Y-76820972D01*
X56530175Y-76824230D01*
X56525812Y-76824622D01*
X56525810Y-76824623D01*
X56431482Y-76850655D01*
X56430139Y-76851009D01*
X56335313Y-76874904D01*
X56335312Y-76874904D01*
X56331319Y-76876718D01*
X56313059Y-76883338D01*
X56308850Y-76884500D01*
X56308822Y-76884510D01*
X56220697Y-76926948D01*
X56219439Y-76927536D01*
X56130375Y-76967991D01*
X56126775Y-76970486D01*
X56109971Y-76980271D01*
X56106031Y-76982168D01*
X56106029Y-76982169D01*
X56026898Y-77039659D01*
X56025766Y-77040462D01*
X55945345Y-77096180D01*
X55942239Y-77099286D01*
X55927465Y-77111903D01*
X55923928Y-77114473D01*
X55923921Y-77114478D01*
X55856323Y-77185179D01*
X55855351Y-77186174D01*
X55061345Y-77980179D01*
X55000022Y-78013664D01*
X54994075Y-78014807D01*
X54960382Y-78020429D01*
X54725197Y-78101169D01*
X54725188Y-78101172D01*
X54506493Y-78219524D01*
X54310257Y-78372261D01*
X54141833Y-78555217D01*
X54005826Y-78763393D01*
X53905936Y-78991118D01*
X53844892Y-79232175D01*
X53844890Y-79232187D01*
X53824357Y-79479994D01*
X53824357Y-79480005D01*
X53844890Y-79727812D01*
X53844892Y-79727824D01*
X53905936Y-79968881D01*
X54005826Y-80196606D01*
X54141833Y-80404782D01*
X54141836Y-80404785D01*
X54310256Y-80587738D01*
X54506491Y-80740474D01*
X54725190Y-80858828D01*
X54960386Y-80939571D01*
X55205665Y-80980500D01*
X55454335Y-80980500D01*
X55699614Y-80939571D01*
X55934810Y-80858828D01*
X56153509Y-80740474D01*
X56349744Y-80587738D01*
X56518164Y-80404785D01*
X56654173Y-80196607D01*
X56754063Y-79968881D01*
X56794673Y-79808513D01*
X56827195Y-79751277D01*
X57231654Y-79346819D01*
X57292978Y-79313334D01*
X57319336Y-79310500D01*
X67696293Y-79310500D01*
X67703231Y-79310889D01*
X67741827Y-79315238D01*
X67741829Y-79315237D01*
X67741830Y-79315238D01*
X67759586Y-79314040D01*
X67810032Y-79310639D01*
X67814188Y-79310500D01*
X67826149Y-79310500D01*
X67826155Y-79310500D01*
X67859146Y-79307530D01*
X67867458Y-79306782D01*
X67868822Y-79306674D01*
X67966412Y-79300096D01*
X67970646Y-79299028D01*
X67989841Y-79295767D01*
X67994188Y-79295377D01*
X68088510Y-79269344D01*
X68089821Y-79268999D01*
X68103448Y-79265564D01*
X68184683Y-79245096D01*
X68188655Y-79243291D01*
X68206962Y-79236654D01*
X68211170Y-79235493D01*
X68299371Y-79193017D01*
X68300499Y-79192489D01*
X68389626Y-79152007D01*
X68393220Y-79149516D01*
X68410035Y-79139724D01*
X68413973Y-79137829D01*
X68493210Y-79080259D01*
X68494150Y-79079592D01*
X68574654Y-79023820D01*
X68577743Y-79020730D01*
X68592545Y-79008088D01*
X68596078Y-79005522D01*
X68663755Y-78934735D01*
X68664602Y-78933870D01*
X70751762Y-76846710D01*
X70813083Y-76813227D01*
X70882775Y-76818211D01*
X70938708Y-76860083D01*
X70962969Y-76923585D01*
X70969364Y-76996687D01*
X70969366Y-76996697D01*
X71028258Y-77216488D01*
X71028261Y-77216497D01*
X71124431Y-77422732D01*
X71124432Y-77422734D01*
X71254954Y-77609141D01*
X71415858Y-77770045D01*
X71415861Y-77770047D01*
X71602266Y-77900568D01*
X71637867Y-77917169D01*
X71660275Y-77927618D01*
X71712714Y-77973791D01*
X71731866Y-78040984D01*
X71711650Y-78107865D01*
X71660275Y-78152382D01*
X71602267Y-78179431D01*
X71602265Y-78179432D01*
X71415858Y-78309954D01*
X71254954Y-78470858D01*
X71124432Y-78657265D01*
X71124431Y-78657267D01*
X71028261Y-78863502D01*
X71028258Y-78863511D01*
X70969366Y-79083302D01*
X70969364Y-79083313D01*
X70949532Y-79309998D01*
X70949532Y-79310001D01*
X70969364Y-79536686D01*
X70969366Y-79536697D01*
X71028258Y-79756488D01*
X71028261Y-79756497D01*
X71124431Y-79962732D01*
X71124432Y-79962734D01*
X71254954Y-80149141D01*
X71415858Y-80310045D01*
X71422779Y-80314891D01*
X71602266Y-80440568D01*
X71654343Y-80464852D01*
X71660275Y-80467618D01*
X71712714Y-80513791D01*
X71731866Y-80580984D01*
X71711650Y-80647865D01*
X71660275Y-80692381D01*
X71648868Y-80697701D01*
X71602267Y-80719431D01*
X71602265Y-80719432D01*
X71415858Y-80849954D01*
X71254954Y-81010858D01*
X71124432Y-81197265D01*
X71124431Y-81197267D01*
X71028261Y-81403502D01*
X71028258Y-81403511D01*
X70969366Y-81623302D01*
X70969364Y-81623313D01*
X70949532Y-81849998D01*
X70949532Y-81850001D01*
X70969364Y-82076686D01*
X70969366Y-82076697D01*
X71028258Y-82296488D01*
X71028261Y-82296497D01*
X71124431Y-82502732D01*
X71124432Y-82502734D01*
X71254954Y-82689141D01*
X71415858Y-82850045D01*
X71455045Y-82877484D01*
X71602266Y-82980568D01*
X71660275Y-83007618D01*
X71712714Y-83053791D01*
X71731866Y-83120984D01*
X71711650Y-83187865D01*
X71660275Y-83232381D01*
X71643272Y-83240310D01*
X71602267Y-83259431D01*
X71602265Y-83259432D01*
X71415858Y-83389954D01*
X71254954Y-83550858D01*
X71124432Y-83737265D01*
X71124431Y-83737267D01*
X71028261Y-83943502D01*
X71028258Y-83943511D01*
X70969366Y-84163302D01*
X70969364Y-84163313D01*
X70949532Y-84389998D01*
X70949532Y-84390001D01*
X70969364Y-84616686D01*
X70969366Y-84616697D01*
X71028258Y-84836488D01*
X71028261Y-84836497D01*
X71124431Y-85042732D01*
X71124432Y-85042734D01*
X71254954Y-85229141D01*
X71415858Y-85390045D01*
X71415861Y-85390047D01*
X71602266Y-85520568D01*
X71808504Y-85616739D01*
X72028308Y-85675635D01*
X72198214Y-85690499D01*
X72198215Y-85690500D01*
X72198216Y-85690500D01*
X73111785Y-85690500D01*
X73111785Y-85690499D01*
X73281692Y-85675635D01*
X73501496Y-85616739D01*
X73707734Y-85520568D01*
X73894139Y-85390047D01*
X74055047Y-85229139D01*
X74185568Y-85042734D01*
X74281739Y-84836496D01*
X74340635Y-84616692D01*
X74360468Y-84390000D01*
X74340635Y-84163308D01*
X74281739Y-83943504D01*
X74185568Y-83737266D01*
X74055047Y-83550861D01*
X74055045Y-83550858D01*
X73894141Y-83389954D01*
X73707734Y-83259432D01*
X73707728Y-83259429D01*
X73680038Y-83246517D01*
X73649724Y-83232381D01*
X73597285Y-83186210D01*
X73578133Y-83119017D01*
X73598348Y-83052135D01*
X73649725Y-83007618D01*
X73707734Y-82980568D01*
X73894139Y-82850047D01*
X74055047Y-82689139D01*
X74185568Y-82502734D01*
X74281739Y-82296496D01*
X74340635Y-82076692D01*
X74360468Y-81850000D01*
X74340635Y-81623308D01*
X74281739Y-81403504D01*
X74185568Y-81197266D01*
X74055047Y-81010861D01*
X74055045Y-81010858D01*
X73894141Y-80849954D01*
X73707734Y-80719432D01*
X73707728Y-80719429D01*
X73680038Y-80706517D01*
X73649724Y-80692381D01*
X73597285Y-80646210D01*
X73578133Y-80579017D01*
X73598348Y-80512135D01*
X73649725Y-80467618D01*
X73655657Y-80464852D01*
X73707734Y-80440568D01*
X73894139Y-80310047D01*
X74055047Y-80149139D01*
X74185568Y-79962734D01*
X74281739Y-79756496D01*
X74340635Y-79536692D01*
X74360468Y-79310000D01*
X74360186Y-79306782D01*
X74350235Y-79193041D01*
X74340635Y-79083308D01*
X74281739Y-78863504D01*
X74185568Y-78657266D01*
X74055047Y-78470861D01*
X74055045Y-78470858D01*
X73894141Y-78309954D01*
X73707734Y-78179432D01*
X73707728Y-78179429D01*
X73649725Y-78152382D01*
X73597285Y-78106210D01*
X73578133Y-78039017D01*
X73598348Y-77972135D01*
X73649725Y-77927618D01*
X73707734Y-77900568D01*
X73894139Y-77770047D01*
X74055047Y-77609139D01*
X74185568Y-77422734D01*
X74281739Y-77216496D01*
X74340635Y-76996692D01*
X74360468Y-76770000D01*
X74340635Y-76543308D01*
X74281739Y-76323504D01*
X74185568Y-76117266D01*
X74055047Y-75930861D01*
X74055045Y-75930858D01*
X73894141Y-75769954D01*
X73707734Y-75639432D01*
X73707732Y-75639431D01*
X73501497Y-75543261D01*
X73501488Y-75543258D01*
X73281697Y-75484366D01*
X73281687Y-75484364D01*
X73111785Y-75469500D01*
X73111784Y-75469500D01*
X72428335Y-75469500D01*
X72361296Y-75449815D01*
X72315541Y-75397011D01*
X72305597Y-75327853D01*
X72334622Y-75264297D01*
X72340653Y-75257820D01*
X72340652Y-75257819D01*
X72392135Y-75206337D01*
X72397298Y-75201724D01*
X72427666Y-75177508D01*
X72472632Y-75126039D01*
X72475478Y-75122995D01*
X72483929Y-75114545D01*
X72483929Y-75114544D01*
X72483944Y-75114530D01*
X72510537Y-75082675D01*
X72511390Y-75081677D01*
X72575765Y-75007996D01*
X72578006Y-75004243D01*
X72589274Y-74988364D01*
X72592068Y-74985019D01*
X72640347Y-74899931D01*
X72641018Y-74898779D01*
X72646258Y-74890009D01*
X72691215Y-74814764D01*
X72692747Y-74810679D01*
X72701003Y-74793033D01*
X72703153Y-74789245D01*
X72735489Y-74696832D01*
X72735918Y-74695649D01*
X72770307Y-74604024D01*
X72771085Y-74599737D01*
X72776056Y-74580902D01*
X72777498Y-74576783D01*
X72792816Y-74480064D01*
X72793031Y-74478803D01*
X72800209Y-74439255D01*
X72810500Y-74382547D01*
X72810500Y-74378168D01*
X72812027Y-74358770D01*
X72812710Y-74354460D01*
X72812437Y-74342280D01*
X72830614Y-74274816D01*
X72882378Y-74227889D01*
X72936406Y-74215500D01*
X74615686Y-74215500D01*
X74615694Y-74215500D01*
X74652569Y-74212598D01*
X74652571Y-74212597D01*
X74652573Y-74212597D01*
X74694191Y-74200505D01*
X74810398Y-74166744D01*
X74951865Y-74083081D01*
X75018128Y-74016817D01*
X75079449Y-73983334D01*
X75105808Y-73980500D01*
X77116293Y-73980500D01*
X77123231Y-73980889D01*
X77161827Y-73985238D01*
X77161829Y-73985237D01*
X77161830Y-73985238D01*
X77179586Y-73984040D01*
X77230032Y-73980639D01*
X77234188Y-73980500D01*
X77246149Y-73980500D01*
X77246155Y-73980500D01*
X77279146Y-73977530D01*
X77287458Y-73976782D01*
X77288822Y-73976674D01*
X77386412Y-73970096D01*
X77390646Y-73969028D01*
X77409841Y-73965767D01*
X77414188Y-73965377D01*
X77508510Y-73939344D01*
X77509821Y-73938999D01*
X77523448Y-73935564D01*
X77604683Y-73915096D01*
X77608655Y-73913291D01*
X77626962Y-73906654D01*
X77631170Y-73905493D01*
X77719371Y-73863017D01*
X77720499Y-73862489D01*
X77809626Y-73822007D01*
X77813220Y-73819516D01*
X77830035Y-73809724D01*
X77833973Y-73807829D01*
X77913210Y-73750259D01*
X77914150Y-73749592D01*
X77994654Y-73693820D01*
X77997743Y-73690730D01*
X78012545Y-73678088D01*
X78016078Y-73675522D01*
X78083755Y-73604735D01*
X78084602Y-73603870D01*
X79482127Y-72206345D01*
X79487287Y-72201733D01*
X79517666Y-72177508D01*
X79562645Y-72126023D01*
X79565462Y-72123010D01*
X79573945Y-72114529D01*
X79600551Y-72082658D01*
X79601342Y-72081732D01*
X79665765Y-72007996D01*
X79668002Y-72004250D01*
X79679269Y-71988369D01*
X79682068Y-71985018D01*
X79730372Y-71899886D01*
X79731004Y-71898801D01*
X79781215Y-71814764D01*
X79782749Y-71810675D01*
X79790998Y-71793044D01*
X79793154Y-71789245D01*
X79825495Y-71696815D01*
X79825924Y-71695633D01*
X79860307Y-71604024D01*
X79861085Y-71599730D01*
X79866054Y-71580906D01*
X79867498Y-71576782D01*
X79882823Y-71480020D01*
X79883024Y-71478842D01*
X79900500Y-71382547D01*
X79900500Y-71378176D01*
X79902027Y-71358778D01*
X79902710Y-71354465D01*
X79902711Y-71354460D01*
X79901161Y-71285393D01*
X79900516Y-71256638D01*
X79900500Y-71255247D01*
X79900500Y-70726289D01*
X79920185Y-70659250D01*
X79920691Y-70658468D01*
X79944238Y-70622426D01*
X79974173Y-70576607D01*
X80074063Y-70348881D01*
X80135108Y-70107821D01*
X80139384Y-70056218D01*
X80155643Y-69860005D01*
X80155643Y-69859994D01*
X80135109Y-69612187D01*
X80135107Y-69612175D01*
X80074063Y-69371118D01*
X79974173Y-69143393D01*
X79838166Y-68935217D01*
X79762715Y-68853256D01*
X79669744Y-68752262D01*
X79473509Y-68599526D01*
X79473507Y-68599525D01*
X79473506Y-68599524D01*
X79254811Y-68481172D01*
X79254802Y-68481169D01*
X79019616Y-68400429D01*
X78774335Y-68359500D01*
X78525665Y-68359500D01*
X78280383Y-68400429D01*
X78045197Y-68481169D01*
X78045188Y-68481172D01*
X77826493Y-68599524D01*
X77630257Y-68752261D01*
X77461833Y-68935217D01*
X77325826Y-69143393D01*
X77225936Y-69371118D01*
X77164892Y-69612175D01*
X77164890Y-69612187D01*
X77144357Y-69859994D01*
X77144357Y-69860005D01*
X77164890Y-70107812D01*
X77164892Y-70107824D01*
X77225936Y-70348881D01*
X77325826Y-70576606D01*
X77369182Y-70642968D01*
X77389370Y-70709858D01*
X77370189Y-70777043D01*
X77353054Y-70798470D01*
X76708345Y-71443181D01*
X76647022Y-71476666D01*
X76620664Y-71479500D01*
X75254347Y-71479500D01*
X75187308Y-71459815D01*
X75141553Y-71407011D01*
X75131609Y-71337853D01*
X75147616Y-71292378D01*
X75149377Y-71289400D01*
X75151744Y-71285398D01*
X75197598Y-71127569D01*
X75200500Y-71090694D01*
X75200500Y-70659306D01*
X75197598Y-70622431D01*
X75184284Y-70576606D01*
X75151745Y-70464606D01*
X75151744Y-70464603D01*
X75151744Y-70464602D01*
X75088082Y-70356955D01*
X75070899Y-70289231D01*
X75070939Y-70288269D01*
X75074290Y-70213670D01*
X75072654Y-70201596D01*
X75083162Y-70132521D01*
X75088795Y-70121838D01*
X75151744Y-70015398D01*
X75196892Y-69860000D01*
X75197597Y-69857573D01*
X75197598Y-69857567D01*
X75200499Y-69820701D01*
X75200500Y-69820694D01*
X75200500Y-69389306D01*
X75197598Y-69352431D01*
X75192277Y-69334117D01*
X75156210Y-69209975D01*
X75151744Y-69194602D01*
X75068081Y-69053135D01*
X75068079Y-69053133D01*
X75068076Y-69053129D01*
X74951870Y-68936923D01*
X74951862Y-68936917D01*
X74810396Y-68853255D01*
X74810393Y-68853254D01*
X74652573Y-68807402D01*
X74652567Y-68807401D01*
X74615701Y-68804500D01*
X74615694Y-68804500D01*
X72834306Y-68804500D01*
X72834298Y-68804500D01*
X72797432Y-68807401D01*
X72797426Y-68807402D01*
X72639606Y-68853254D01*
X72639603Y-68853255D01*
X72498137Y-68936917D01*
X72498129Y-68936923D01*
X72451874Y-68983180D01*
X72390551Y-69016666D01*
X72364192Y-69019500D01*
X72203707Y-69019500D01*
X72196768Y-69019110D01*
X72173477Y-69016486D01*
X72158176Y-69014762D01*
X72158169Y-69014761D01*
X72111224Y-69017927D01*
X72089967Y-69019360D01*
X72085812Y-69019500D01*
X72073838Y-69019500D01*
X72032559Y-69023214D01*
X72031175Y-69023323D01*
X71933590Y-69029903D01*
X71929349Y-69030972D01*
X71910176Y-69034230D01*
X71905808Y-69034623D01*
X71811514Y-69060647D01*
X71810169Y-69061002D01*
X71715319Y-69084902D01*
X71711322Y-69086718D01*
X71693059Y-69093339D01*
X71688838Y-69094504D01*
X71688821Y-69094510D01*
X71600663Y-69136964D01*
X71599405Y-69137553D01*
X71510374Y-69177992D01*
X71506772Y-69180488D01*
X71489980Y-69190267D01*
X71486029Y-69192170D01*
X71486020Y-69192175D01*
X71406848Y-69249696D01*
X71405711Y-69250503D01*
X71399000Y-69255152D01*
X71332683Y-69277146D01*
X71265002Y-69259794D01*
X71217446Y-69208606D01*
X71204392Y-69153921D01*
X71177691Y-64395194D01*
X71196999Y-64328046D01*
X71249545Y-64281995D01*
X71301686Y-64270499D01*
X72267872Y-64270499D01*
X72327483Y-64264091D01*
X72462331Y-64213796D01*
X72577546Y-64127546D01*
X72663796Y-64012331D01*
X72714091Y-63877483D01*
X72720500Y-63817873D01*
X72720499Y-59762128D01*
X72714091Y-59702517D01*
X72664706Y-59570108D01*
X72659722Y-59500416D01*
X72693207Y-59439093D01*
X72754531Y-59405609D01*
X72776528Y-59402851D01*
X74209623Y-59352499D01*
X74834694Y-59330538D01*
X74836871Y-59330500D01*
X75330130Y-59330500D01*
X75397169Y-59350185D01*
G37*
%TD.AperFunction*%
%TA.AperFunction,NonConductor*%
G36*
X104223418Y-129481667D02*
G01*
X104251673Y-129502819D01*
X104373597Y-129624743D01*
X104373603Y-129624748D01*
X104559158Y-129754675D01*
X104602783Y-129809252D01*
X104609977Y-129878750D01*
X104578454Y-129941105D01*
X104559158Y-129957825D01*
X104373597Y-130087755D01*
X104206508Y-130254844D01*
X104076574Y-130440410D01*
X104021997Y-130484034D01*
X103952498Y-130491227D01*
X103890144Y-130459705D01*
X103873429Y-130440414D01*
X103743495Y-130254849D01*
X103621567Y-130132921D01*
X103588084Y-130071601D01*
X103593068Y-130001909D01*
X103634939Y-129945975D01*
X103665915Y-129929060D01*
X103797331Y-129880046D01*
X103912546Y-129793796D01*
X103998796Y-129678581D01*
X104047810Y-129547166D01*
X104089681Y-129491234D01*
X104155145Y-129466816D01*
X104223418Y-129481667D01*
G37*
%TD.AperFunction*%
%TA.AperFunction,NonConductor*%
G36*
X61223418Y-129481667D02*
G01*
X61251673Y-129502819D01*
X61373597Y-129624743D01*
X61373603Y-129624748D01*
X61559158Y-129754675D01*
X61602783Y-129809252D01*
X61609977Y-129878750D01*
X61578454Y-129941105D01*
X61559158Y-129957825D01*
X61373597Y-130087755D01*
X61206508Y-130254844D01*
X61076574Y-130440410D01*
X61021997Y-130484034D01*
X60952498Y-130491227D01*
X60890144Y-130459705D01*
X60873429Y-130440414D01*
X60743495Y-130254849D01*
X60621567Y-130132921D01*
X60588084Y-130071601D01*
X60593068Y-130001909D01*
X60634939Y-129945975D01*
X60665915Y-129929060D01*
X60797331Y-129880046D01*
X60912546Y-129793796D01*
X60998796Y-129678581D01*
X61047810Y-129547166D01*
X61089681Y-129491234D01*
X61155145Y-129466816D01*
X61223418Y-129481667D01*
G37*
%TD.AperFunction*%
M02*
